<?xml version="1.0" encoding="UTF-8"?> <svg xmlns="http://www.w3.org/2000/svg" width="58" height="58" viewBox="0 0 58 58" fill="none"><g data-figma-bg-blur-radius="21.6928"><g clip-path="url(#clip1_864_9385)"><path d="M51.8036 28.4472C51.6788 26.6525 50.3727 24.838 47.5898 22.6035V22.6026C47.7206 22.3037 47.7874 21.0767 46.4007 20.3405C42.9079 18.4931 35.4111 16.5472 29.7777 16.25C29.8331 16.4012 29.9649 16.8229 30.0585 17.1374C23.8452 16.8826 17.6217 17.0564 11.4325 17.6576C9.73558 17.8243 4.46094 18.5519 4.46094 18.5519L16.3787 23.6473C15.1073 23.9342 13.8159 24.2435 12.5168 24.5805C11.1907 24.9261 7.26293 26.2628 7.26293 26.2628L12.0271 27.3014C14.3992 27.8164 21.0883 29.2456 23.944 29.904C23.5661 31.0705 21.1073 39.1521 21.1073 39.1521C21.1073 39.1521 24.2915 35.7857 25.2804 34.8456C26.5371 33.6489 26.9531 33.2436 27.3301 32.9334C27.1854 34.6547 26.8647 38.3486 26.7824 39.2584C26.7165 39.986 26.8587 40.7403 27.2799 41.181C27.5093 41.3923 27.7821 41.5512 28.0793 41.6467C28.3766 41.7422 28.6911 41.772 29.0011 41.734C29.5894 41.6158 30.1362 41.3459 30.5872 40.9511C32.506 39.3664 37.3126 35.0815 41.3774 31.1396C41.6062 31.1051 41.8341 31.0731 42.0638 31.0489C44.8545 30.7404 47.556 31.1846 48.0179 32.5792C48.3195 33.4951 48.0093 34.0593 47.7276 34.9364C48.206 34.4801 49.4419 33.343 49.9246 32.7382C50.7107 31.7549 51.9267 30.228 51.8027 28.4472" fill="black"></path><path d="M30.0095 21.3343L30.0641 21.3282C29.8994 21.0085 29.7608 20.6785 29.636 20.4383C31.9223 20.1635 37.216 20.4383 39.329 21.7905C41.442 23.1428 43.3616 23.6068 44.8064 23.2836C44.6484 23.5955 44.4284 23.8722 44.1599 24.0967C43.6211 24.2141 43.0651 24.2311 42.5201 24.1468C41.9221 25.1345 40.4531 25.0126 38.1347 26.1826C34.8831 27.821 31.7569 29.696 28.7814 31.7921C28.6878 32.9413 28.4876 35.1723 28.4608 35.5206L33.0559 33.8486L32.1286 33.0597L36.0512 32.1585C36.6865 31.1302 41.5477 26.4185 42.3173 25.8465C42.5753 25.7883 42.8363 25.7442 43.0991 25.7143C44.1155 24.7894 45.2419 23.9926 46.4531 23.3415C46.4741 23.2761 46.4908 23.2094 46.5034 23.1419C46.5727 22.7203 46.5424 22.1085 45.9903 21.8182C36.6405 16.9241 19.3476 18.5045 10.0342 19.2605L18.8172 23.1229C23.0206 22.2606 26.9068 21.6765 30.0095 21.3343" fill="#BFBD9C"></path><path d="M32.1281 33.0594L33.0564 33.8483L28.4592 35.5204C28.4592 35.5204 28.213 38.5017 28.148 39.2033C28.0613 40.1565 28.8691 40.4503 29.6353 39.8186C31.3428 38.4075 35.3168 34.9484 39.0222 31.4763L32.1281 33.0594Z" fill="#6F7757"></path><path d="M40.3281 24.7079C38.5842 24.9861 37.7434 23.7565 37.5892 22.4586C36.9625 22.3549 36.3384 22.2944 35.7759 22.2434C35.7473 23.8714 36.8472 25.6446 39.496 25.2445C40.4789 25.0976 40.9504 24.7623 41.1662 24.4176C40.91 24.5712 40.6246 24.67 40.3281 24.7079" fill="#FEFEFE"></path><path d="M44.6796 25.8532C44.8634 25.4816 45.1804 25.1923 45.568 25.0427C46.1667 25.2884 46.6984 25.6722 47.1194 26.1626L44.6796 25.8532ZM46.4529 23.342C42.8074 25.2345 39.8743 29.0695 38.8594 30.465C41.8678 29.4877 48.0824 28.9554 49.0869 32.0049C50.7355 29.8515 52.3979 27.9798 46.452 23.342L46.4529 23.342Z" fill="#F2F2D9"></path><path d="M24.7814 25.7431L32.3952 24.8946L28.2819 27.9292L28.3703 26.6909L24.7814 25.7431ZM36.3256 25.6653C35.0767 24.9628 34.6772 23.5898 34.8133 22.3049H34.8107C32.8156 22.4579 22.0834 23.3072 12.3809 25.8908C15.5139 26.4378 25.6888 28.8148 25.6888 28.8148C25.6888 28.8148 24.5751 32.1277 24.0014 34.236C27.7142 30.9646 30.1687 29.0386 36.3256 25.6653V25.6653Z" fill="#FF0000"></path></g></g><defs><clipPath id="bgblur_0_864_9385_clip_path" transform="translate(21.6928 21.6928)"><rect width="58" height="58" rx="11.5695"></rect></clipPath><clipPath id="clip1_864_9385"><rect width="50.25" height="25.5" fill="white" transform="translate(3.875 16.25)"></rect></clipPath></defs></svg> 