<?xml version="1.0" encoding="UTF-8"?> <svg xmlns="http://www.w3.org/2000/svg" width="348" height="315" viewBox="0 0 348 315" fill="none"><path d="M292.022 67.1113L177.548 133.632L62.3169 67.1074L176.791 0.577148L292.022 67.1113Z" fill="url(#paint0_linear_864_9471)" stroke="url(#paint1_linear_864_9471)"></path><g filter="url(#filter0_f_864_9471)"><ellipse cx="174" cy="214.5" rx="128" ry="54.5" fill="#E41E12" fill-opacity="0.23"></ellipse></g><path d="M292.21 201.802L177.732 268.329L178.049 134.498L292.517 67.9802L292.21 201.802Z" fill="url(#paint2_linear_864_9471)" stroke="url(#paint3_linear_864_9471)"></path><path d="M177.049 134.498L176.732 268.335L61.5 201.802L61.8174 67.9744L177.049 134.498Z" fill="url(#paint4_linear_864_9471)" stroke="url(#paint5_linear_864_9471)"></path><g style="mix-blend-mode:overlay" opacity="0.3"><path d="M169.02 80.4099C189.217 80.4099 205.59 70.9587 205.59 59.2999C205.59 47.6412 189.217 38.1899 169.02 38.1899C148.823 38.1899 132.45 47.6412 132.45 59.2999C132.45 70.9587 148.823 80.4099 169.02 80.4099Z" fill="white"></path></g><path d="M175.65 65.46L160.38 56.65L156.64 58.85L149.02 54.45L153.72 51.7L159.69 48.25L182.57 61.46L175.64 65.46H175.65Z" fill="white"></path><g style="mix-blend-mode:overlay" opacity="0.3"><path d="M257.15 167.275C267.249 149.784 267.25 130.879 257.154 125.05C247.057 119.22 230.685 128.674 220.587 146.165C210.488 163.656 210.487 182.561 220.584 188.391C230.68 194.22 247.052 184.766 257.15 167.275Z" fill="white"></path></g><path d="M230.11 174.08L232.65 168.85C234.23 169.84 236.73 169.5 238.96 168.22C241.74 166.62 243.28 164.34 243.28 162.36C243.28 160.26 241.87 160.12 238.68 161.96C237.72 162.51 236.18 163.45 235.83 163.68V158.61C236.24 158.41 237.82 157.5 238.68 157C241.22 155.53 242.9 153.69 242.9 151.75C242.9 149.65 241.05 149.69 238.65 151.08C236.45 152.35 234.47 154.45 232.85 157.16L230.41 155.04C232.26 151.55 235.14 148.11 239.16 145.79C244.51 142.7 247.81 143.57 247.81 147.97C247.81 151.3 245.34 154.9 242.8 156.88C245.13 155.81 248.15 156.17 248.15 160.13C248.15 164.68 244.62 169.93 239.13 173.1C234.91 175.54 231.79 175.48 230.11 174.07V174.08Z" fill="white"></path><path d="M214.59 212.7C215.07 212.33 215.71 211.88 216.51 211.42C217.5 210.85 218.22 210.7 218.68 210.91C219.1 211.09 219.36 211.59 219.36 212.39C219.36 213.19 219.15 213.96 218.76 214.65C218.23 215.61 217.37 216.44 216.39 217C216.09 217.17 215.82 217.32 215.59 217.39V220.97L214.59 221.55V212.71V212.7ZM215.59 216.44C215.81 216.38 216.08 216.25 216.42 216.06C217.63 215.36 218.36 214.26 218.36 213.03C218.36 211.8 217.64 211.7 216.53 212.33C216.09 212.58 215.76 212.81 215.59 212.97V216.45V216.44Z" fill="white"></path><path d="M224.72 211.5L221.71 213.24V216.47L225.07 214.53V215.5L220.71 218.02V209.07L224.9 206.65V207.62L221.72 209.46V212.29L224.73 210.55V211.51L224.72 211.5Z" fill="white"></path><path d="M226.17 206.44C226.7 205.74 227.38 205.07 228.22 204.58C229.57 203.8 230.5 204.07 230.5 205.46C230.5 206.56 229.81 207.8 228.9 208.56V208.59C229.99 208.09 230.79 208.46 230.79 209.74C230.79 211.6 229.4 213.15 227.98 213.96C227.28 214.36 226.54 214.62 225.96 214.54L226.22 213.48C226.63 213.52 227.32 213.39 227.96 213.02C229.11 212.36 229.74 211.27 229.74 210.29C229.74 208.95 228.62 209.21 227.64 209.78L227.18 210.05V209.17L227.64 208.9C228.66 208.31 229.46 207.12 229.46 206.2C229.46 205.28 228.91 205.11 228.07 205.6C227.48 205.94 226.87 206.57 226.46 207.11L226.18 206.42L226.17 206.44Z" fill="white"></path><path d="M232.26 202.39L233.8 205.31C234 205.73 234.18 206.14 234.36 206.56H234.38C234.52 206 234.67 205.4 234.86 204.65L236.07 200.18L237.13 199.57L235.51 205.1C235.08 206.54 234.6 208.19 234.06 209.33C233.55 210.35 232.99 211.05 232.3 211.45C232.05 211.6 231.86 211.67 231.74 211.7L231.84 210.7C231.92 210.68 232.04 210.63 232.21 210.53C233.01 210.05 233.49 208.89 233.73 208.11C233.81 207.86 233.79 207.74 233.69 207.59L231.11 203.05L232.25 202.39H232.26Z" fill="white"></path><path d="M242.87 196.27V205.22L241.86 205.8V197.82L239.3 199.3V202.01C239.3 203.95 239.23 206.15 238.14 207.63C237.85 208.01 237.4 208.48 236.96 208.74L236.83 207.88C237.14 207.63 237.46 207.24 237.65 206.93C238.27 205.87 238.33 204.1 238.33 202.66V198.89L242.88 196.26L242.87 196.27Z" fill="white"></path><path d="M245.61 194.68V198.02C245.84 197.85 246.3 197.56 246.56 197.4C248.15 196.48 249.55 196.49 249.55 198.46C249.55 199.3 249.32 200.04 248.95 200.72C248.32 201.85 247.24 202.76 246.17 203.37C245.47 203.78 244.94 204.03 244.61 204.17V195.25L245.61 194.67V194.68ZM245.61 202.74C245.84 202.66 246.09 202.53 246.44 202.33C247.55 201.69 248.51 200.51 248.51 199.14C248.51 197.77 247.53 197.77 246.43 198.4C246.18 198.55 245.87 198.75 245.61 198.94V202.74Z" fill="white"></path><path d="M251.52 192.25L249.16 193.61V192.63L254.9 189.32V190.3L252.53 191.67V199.63L251.52 200.21V192.25Z" fill="white"></path><path d="M256.09 194.77L255.28 198.05L254.25 198.65L256.88 188.18L258.09 187.48L260.73 194.9L259.66 195.52L258.83 193.18L256.08 194.77H256.09ZM258.63 192.4L257.87 190.26C257.7 189.77 257.58 189.31 257.47 188.86H257.45C257.33 189.47 257.21 190.09 257.06 190.72L256.3 193.75L258.63 192.4Z" fill="white"></path><path d="M262.84 185.72L260.48 187.08V186.1L266.22 182.79V183.77L263.85 185.14V193.1L262.84 193.68V185.72Z" fill="white"></path><g style="mix-blend-mode:overlay" opacity="0.3"><path d="M131.623 186.454C141.72 180.625 141.718 161.72 131.62 144.229C121.521 126.737 105.15 117.284 95.0528 123.113C84.956 128.942 84.9575 147.847 95.056 165.339C105.155 182.83 121.526 192.283 131.623 186.454Z" fill="white"></path></g><path d="M110.05 141.27C115.9 144.81 118.83 149.43 118.83 155.14C118.83 157.81 117 160.07 113.34 161.91L110.29 163.83L120.86 169.93L119.18 173.83L101.58 163.67V159.59C108.72 155.87 112.29 153.44 112.29 152.3V151.51C111.92 149.45 111.09 148.04 109.79 147.29C108.21 146.38 106.29 146.87 104.03 148.76L100.02 143.47C102.86 139.93 106.21 139.2 110.07 141.27H110.05Z" fill="white"></path><path d="M89.35 189.87C89.35 192.95 87.73 193.65 85.75 192.5C83.7 191.32 82.27 188.66 82.27 185.95C82.27 183.11 83.8 182.13 85.87 183.33C87.99 184.55 89.35 187.21 89.35 189.87ZM83.34 186.54C83.34 188.45 84.24 190.68 85.81 191.59C87.4 192.51 88.29 191.34 88.29 189.31C88.29 187.53 87.48 185.21 85.82 184.25C84.16 183.29 83.34 184.58 83.34 186.55V186.54Z" fill="white"></path><path d="M96.2499 189.47V198.42L95.2499 197.84V189.86L91.6499 187.78V195.76L90.6499 195.18V186.23L96.2499 189.46V189.47Z" fill="white"></path><path d="M102.02 197.55L99.0103 195.81V199.04L102.37 200.98V201.95L98.0103 199.43V190.48L102.19 192.9V193.87L99.0103 192.03V194.86L102.02 196.6V197.56V197.55Z" fill="white"></path><path d="M103.66 193.86C104.14 194.05 104.78 194.33 105.58 194.8C106.57 195.37 107.29 196.05 107.75 196.8C108.17 197.47 108.43 198.27 108.43 199.06C108.43 199.85 108.22 200.39 107.83 200.63C107.3 200.98 106.44 200.81 105.46 200.25C105.16 200.08 104.89 199.91 104.66 199.71V203.29L103.66 202.71V193.87V193.86ZM104.67 198.75C104.89 198.94 105.16 199.13 105.5 199.32C106.71 200.02 107.44 199.77 107.44 198.53C107.44 197.29 106.72 196.36 105.61 195.72C105.17 195.47 104.84 195.32 104.67 195.27V198.75Z" fill="white"></path><path d="M110.07 203.58L109.26 205.93L108.23 205.33L110.86 197.9L112.07 198.6L114.71 209.07L113.64 208.45L112.81 205.16L110.06 203.57L110.07 203.58ZM112.61 204.15L111.85 201.14C111.68 200.46 111.56 199.86 111.45 199.27H111.43C111.31 199.72 111.19 200.19 111.04 200.65L110.28 202.8L112.61 204.15Z" fill="white"></path><path d="M116.86 201.37V209.35L120.41 211.4V203.42L121.42 204V212L122.1 212.42L122.03 215.45L121.24 214.99L121.17 212.8L115.86 209.73V200.78L116.86 201.36V201.37Z" fill="white"></path><path d="M124.3 205.66V209.43C124.3 210.85 124.28 212.01 124.21 213.16L124.23 213.19C124.62 212.49 125.1 211.8 125.67 211.06L128.18 207.9L129.18 208.48V217.43L128.24 216.89V213.08C128.24 211.63 128.25 210.58 128.33 209.5L128.3 209.47C127.92 210.23 127.39 210.96 126.86 211.65L124.43 214.7L123.36 214.08V205.13L124.3 205.67V205.66Z" fill="white"></path><path d="M131.87 210.03V213.8C131.87 215.22 131.85 216.38 131.78 217.53L131.8 217.56C132.19 216.86 132.67 216.17 133.24 215.43L135.75 212.27L136.75 212.85V221.8L135.81 221.26V217.45C135.81 216 135.82 214.95 135.9 213.87L135.87 213.84C135.49 214.6 134.96 215.33 134.43 216.02L132 219.07L130.93 218.45V209.5L131.87 210.04V210.03Z" fill="white"></path><path d="M259.111 64.5877L258.234 62.1017C257.999 62.2154 257.736 62.3052 257.444 62.3712C257.158 62.4335 256.863 62.4647 256.558 62.4647C256.253 62.4647 255.942 62.428 255.624 62.3547C255.313 62.2777 255.015 62.1567 254.729 61.9917C254.437 61.823 254.221 61.6434 254.081 61.4527C253.948 61.2584 253.887 61.0622 253.9 60.8642C253.906 60.6625 253.986 60.4664 254.138 60.2757C254.297 60.0814 254.522 59.8999 254.815 59.7312L257.368 58.2572L263.722 61.9257L262.931 62.3822L260.406 60.9247L259.13 61.6617L260.035 64.0542L259.111 64.5877ZM259.711 60.5232L257.282 59.1207L255.605 60.0887C255.23 60.305 255.037 60.5452 255.024 60.8092C255.011 61.0732 255.186 61.3097 255.548 61.5187C255.91 61.7277 256.323 61.8304 256.786 61.8267C257.244 61.8194 257.66 61.7075 258.034 61.4912L259.711 60.5232Z" fill="white"></path><path d="M252.471 68.4212L246.117 64.7527L246.908 64.2962L251.871 67.1617L250.566 62.1842L251.376 61.7167L257.73 65.3852L256.939 65.8417L251.871 62.9157L253.233 67.9812L252.471 68.4212Z" fill="white"></path><path d="M250.483 69.5687L245.396 72.5057L239.042 68.8372L239.833 68.3807L245.482 71.6422L249.197 69.4972L243.548 66.2357L244.339 65.7792L249.988 69.0407L250.569 68.7052L252.445 69.7887L251.655 70.2452L250.483 69.5687Z" fill="white"></path><path d="M243.47 73.6178L241.498 73.1283L238.336 74.9543L239.183 76.0928L238.278 76.6153L234.477 71.4728L235.459 70.9063L244.375 73.0953L243.47 73.6178ZM235.792 71.6598L237.859 74.4153L240.555 72.8588L235.792 71.6598Z" fill="white"></path><path d="M235.22 78.5128C234.941 78.6741 234.649 78.8098 234.344 78.9198C234.052 79.0298 233.753 79.1178 233.448 79.1838C233.15 79.2461 232.858 79.2864 232.572 79.3048C232.293 79.3194 232.029 79.3139 231.781 79.2883L231.743 78.7273C232.181 78.7603 232.651 78.7236 233.153 78.6173C233.655 78.5109 234.103 78.3441 234.496 78.1168C234.998 77.8271 235.284 77.5411 235.354 77.2588C235.424 76.9691 235.274 76.7179 234.906 76.5053C234.709 76.3916 234.5 76.3183 234.277 76.2853C234.055 76.2449 233.826 76.2413 233.591 76.2743C233.356 76.3073 233.115 76.3696 232.867 76.4613C232.62 76.5529 232.375 76.6684 232.134 76.8078L230.838 77.5558L230.133 77.1488L231.429 76.4008C231.638 76.2798 231.816 76.1551 231.962 76.0268C232.108 75.8911 232.21 75.7591 232.267 75.6308C232.318 75.4988 232.321 75.3723 232.277 75.2513C232.226 75.1266 232.108 75.0111 231.924 74.9048C231.746 74.8021 231.55 74.7361 231.334 74.7068C231.124 74.6738 230.905 74.6719 230.676 74.7013C230.441 74.7269 230.21 74.7801 229.981 74.8608C229.746 74.9378 229.524 75.0368 229.314 75.1578C228.596 75.5721 228.253 76.0671 228.285 76.6428L227.352 76.6098C227.314 76.3091 227.396 75.9938 227.599 75.6638C227.803 75.3264 228.158 75.0111 228.666 74.7178C228.977 74.5381 229.308 74.3914 229.657 74.2778C230.013 74.1604 230.365 74.0853 230.714 74.0523C231.064 74.0119 231.407 74.0193 231.743 74.0743C232.073 74.1256 232.372 74.2283 232.639 74.3823C232.867 74.5143 233.023 74.6554 233.105 74.8058C233.188 74.9561 233.223 75.1046 233.21 75.2513C233.198 75.3979 233.147 75.5409 233.058 75.6803C232.969 75.8123 232.864 75.9278 232.743 76.0268C232.902 75.9498 233.102 75.8819 233.344 75.8233C233.585 75.7646 233.842 75.7298 234.115 75.7188C234.388 75.7078 234.668 75.7298 234.954 75.7848C235.246 75.8361 235.519 75.9351 235.773 76.0818C236.04 76.2358 236.227 76.4099 236.335 76.6043C236.443 76.7986 236.475 77.0039 236.43 77.2203C236.379 77.4329 236.256 77.6511 236.059 77.8748C235.855 78.0948 235.576 78.3074 235.22 78.5128Z" fill="white"></path><path d="M226.247 83.5618L219.893 79.8933L220.683 79.4368L225.646 82.3023L224.341 77.3248L225.151 76.8573L231.505 80.5258L230.714 80.9823L225.646 78.0563L227.009 83.1218L226.247 83.5618Z" fill="white"></path><path d="M218.245 87.4994C218.436 87.3894 218.572 87.2739 218.655 87.1529C218.738 87.0245 218.747 86.8724 218.684 86.6964C218.614 86.5167 218.455 86.3077 218.207 86.0694C217.96 85.8237 217.601 85.5249 217.131 85.1729L214.33 83.1049L218.217 80.8609L224.571 84.5294L223.78 84.9859L218.131 81.7244L215.74 83.1049L217.969 84.7549C218.579 85.2095 219.026 85.6 219.312 85.9264C219.598 86.2454 219.76 86.5259 219.798 86.7679C219.843 87.0062 219.782 87.2134 219.617 87.3894C219.458 87.569 219.236 87.7414 218.95 87.9064L218.245 87.4994Z" fill="white"></path><path d="M217.348 88.6996L215.376 88.2101L212.213 90.0361L213.061 91.1746L212.156 91.6971L208.355 86.5546L209.336 85.9881L218.253 88.1771L217.348 88.6996ZM209.67 86.7416L211.737 89.4971L214.433 87.9406L209.67 86.7416Z" fill="white"></path><path d="M210.347 92.7416L207.432 91.0586L203.716 93.2036L206.632 94.8866L205.841 95.3431L199.487 91.6746L200.277 91.2181L203.012 92.7966L206.727 90.6516L203.993 89.0731L204.783 88.6166L211.137 92.2851L210.347 92.7416Z" fill="white"></path><path d="M201.377 98.0526C200.907 98.324 200.396 98.5238 199.843 98.6521C199.29 98.7805 198.728 98.841 198.157 98.8336C197.585 98.819 197.023 98.7401 196.471 98.5971C195.918 98.4541 195.407 98.247 194.937 97.9756C194.467 97.7043 194.108 97.4091 193.86 97.0901C193.613 96.7711 193.479 96.4485 193.46 96.1221C193.441 95.7885 193.543 95.4621 193.765 95.1431C193.988 94.8241 194.334 94.529 194.804 94.2576C195.274 93.9863 195.785 93.7865 196.337 93.6581C196.89 93.5298 197.452 93.473 198.023 93.4876C198.595 93.495 199.157 93.5701 199.71 93.7131C200.262 93.8561 200.773 94.0633 201.243 94.3346C201.713 94.606 202.072 94.9011 202.32 95.2201C202.568 95.5391 202.701 95.8655 202.72 96.1991C202.739 96.5255 202.637 96.8481 202.415 97.1671C202.193 97.4861 201.847 97.7813 201.377 98.0526ZM200.672 97.6456C201.027 97.4403 201.285 97.2185 201.443 96.9801C201.596 96.7381 201.659 96.4925 201.634 96.2431C201.602 95.9901 201.485 95.7426 201.281 95.5006C201.078 95.2513 200.792 95.0203 200.424 94.8076C200.056 94.595 199.656 94.43 199.224 94.3126C198.798 94.1916 198.37 94.1238 197.938 94.1091C197.506 94.0945 197.084 94.133 196.671 94.2246C196.252 94.3126 195.864 94.4593 195.509 94.6646C195.153 94.87 194.896 95.0955 194.737 95.3411C194.578 95.5795 194.511 95.8233 194.537 96.0726C194.562 96.322 194.68 96.5695 194.889 96.8151C195.099 97.0608 195.388 97.29 195.756 97.5026C196.125 97.7153 196.521 97.8821 196.947 98.0031C197.366 98.1205 197.795 98.1883 198.233 98.2066C198.665 98.2213 199.09 98.1846 199.51 98.0966C199.929 98.0013 200.316 97.851 200.672 97.6456Z" fill="white"></path><path d="M194.863 101.813C194.405 102.077 193.897 102.279 193.338 102.418C192.786 102.554 192.217 102.625 191.633 102.633C191.049 102.633 190.471 102.567 189.899 102.435C189.328 102.295 188.798 102.085 188.309 101.802C187.82 101.52 187.458 101.216 187.223 100.889C186.988 100.556 186.873 100.222 186.88 99.8883C186.886 99.5473 187.007 99.2173 187.242 98.8983C187.483 98.5756 187.832 98.2823 188.289 98.0183C188.569 97.857 188.858 97.7268 189.156 97.6278C189.461 97.5251 189.769 97.45 190.08 97.4023C190.398 97.351 190.712 97.3235 191.024 97.3198C191.341 97.3125 191.652 97.3235 191.957 97.3528L191.662 97.9523C191.211 97.9046 190.744 97.9211 190.261 98.0018C189.779 98.0751 189.356 98.2163 188.994 98.4253C188.645 98.627 188.385 98.8506 188.213 99.0963C188.042 99.342 187.959 99.595 187.966 99.8553C187.978 100.112 188.08 100.369 188.27 100.625C188.461 100.875 188.747 101.109 189.128 101.329C189.502 101.546 189.909 101.711 190.347 101.824C190.792 101.934 191.236 101.993 191.681 102C192.132 102.004 192.57 101.956 192.995 101.857C193.421 101.758 193.808 101.608 194.158 101.406C194.52 101.197 194.767 100.955 194.901 100.68C195.04 100.402 195.066 100.13 194.977 99.8663L196.025 99.6903C196.12 100.053 196.092 100.418 195.939 100.785C195.787 101.144 195.428 101.487 194.863 101.813Z" fill="white"></path><path d="M185.957 106.823L179.603 103.155L182.156 101.681C182.473 101.497 182.807 101.364 183.156 101.279C183.505 101.195 183.851 101.156 184.194 101.164C184.537 101.164 184.871 101.206 185.194 101.29C185.512 101.371 185.801 101.486 186.061 101.637C186.322 101.787 186.525 101.956 186.671 102.143C186.811 102.326 186.884 102.519 186.89 102.72C186.89 102.918 186.817 103.118 186.671 103.32C186.525 103.521 186.296 103.712 185.985 103.892L184.223 104.909L186.747 106.367L185.957 106.823ZM185.185 103.54C185.566 103.32 185.76 103.08 185.766 102.819C185.779 102.555 185.604 102.319 185.242 102.11C184.88 101.901 184.47 101.8 184.013 101.807C183.562 101.811 183.146 101.923 182.765 102.143L181.098 103.105L183.518 104.502L185.185 103.54Z" fill="white"></path><path d="M180.342 110.065L173.988 106.396L178.151 103.993L178.856 104.4L175.484 106.347L177.532 107.529L180.838 105.621L181.543 106.028L178.237 107.936L180.428 109.201L183.8 107.254L184.505 107.661L180.342 110.065Z" fill="white"></path><path d="M177.876 111.489L172.226 108.227L168.511 110.372L174.16 113.634L173.37 114.09L167.016 110.422L172.312 107.364L178.666 111.032L177.876 111.489Z" fill="white"></path><defs><filter id="filter0_f_864_9471" x="0" y="114" width="348" height="201" filterUnits="userSpaceOnUse" color-interpolation-filters="sRGB"><feFlood flood-opacity="0" result="BackgroundImageFix"></feFlood><feBlend mode="normal" in="SourceGraphic" in2="BackgroundImageFix" result="shape"></feBlend><feGaussianBlur stdDeviation="23" result="effect1_foregroundBlur_864_9471"></feGaussianBlur></filter><linearGradient id="paint0_linear_864_9471" x1="192" y1="6" x2="222.5" y2="111.5" gradientUnits="userSpaceOnUse"><stop stop-color="#00FFFF" stop-opacity="0"></stop><stop offset="1" stop-color="#00FFFF"></stop></linearGradient><linearGradient id="paint1_linear_864_9471" x1="143" y1="105.5" x2="224.5" y2="24.5" gradientUnits="userSpaceOnUse"><stop stop-color="#00FFFF" stop-opacity="0"></stop><stop offset="1" stop-color="#00FFFF"></stop></linearGradient><linearGradient id="paint2_linear_864_9471" x1="177.23" y1="168.15" x2="293.02" y2="168.15" gradientUnits="userSpaceOnUse"><stop stop-color="#E41E12"></stop><stop offset="1" stop-color="#D48A71" stop-opacity="0"></stop></linearGradient><linearGradient id="paint3_linear_864_9471" x1="177.23" y1="168.15" x2="235" y2="248" gradientUnits="userSpaceOnUse"><stop stop-color="#E41E12" stop-opacity="0"></stop><stop offset="1" stop-color="#E41E12"></stop></linearGradient><linearGradient id="paint4_linear_864_9471" x1="89.5" y1="88.5002" x2="170" y2="260.5" gradientUnits="userSpaceOnUse"><stop stop-color="#1858FD" stop-opacity="0"></stop><stop offset="1" stop-color="#1858FD"></stop></linearGradient><linearGradient id="paint5_linear_864_9471" x1="89.5" y1="88.5002" x2="170" y2="260.5" gradientUnits="userSpaceOnUse"><stop stop-color="#1858FD" stop-opacity="0"></stop><stop offset="1" stop-color="#1858FD"></stop></linearGradient></defs></svg> 