<?xml version="1.0" encoding="UTF-8"?> <svg xmlns="http://www.w3.org/2000/svg" width="58" height="58" viewBox="0 0 58 58" fill="none"><g data-figma-bg-blur-radius="21.6928"><g clip-path="url(#clip1_864_9418)"><mask id="mask0_864_9418" style="mask-type:luminance" maskUnits="userSpaceOnUse" x="8" y="8" width="42" height="42"><path d="M49.25 8.75H8.75V49.25H49.25V8.75Z" fill="white"></path></mask><g mask="url(#mask0_864_9418)"><mask id="mask1_864_9418" style="mask-type:luminance" maskUnits="userSpaceOnUse" x="14" y="9" width="27" height="41"><path d="M40.8609 9.32715H14.8252V49.8271H40.8609V9.32715Z" fill="white"></path></mask><g mask="url(#mask1_864_9418)"><path d="M30.0092 47.5193C28.9989 44.6844 25.9056 37.7691 19.0162 34.7895L17.7845 34.2569L20.3491 28.4199C17.7836 26.3082 18.3257 23.1702 18.562 22.2313L18.5932 22.1066C15.1187 19.7828 14.0834 16.4827 15.3372 11.9606L15.4039 11.7207L16.7431 11.2304V11.9277C16.7431 12.7497 16.8524 13.5439 17.0683 14.3001C17.6787 13.5075 18.2083 12.9047 18.7549 12.3738L19.5226 10.0802L20.7978 9.60296L20.756 10.8242C21.5567 10.3392 22.4755 9.90092 23.581 9.47391L23.9631 9.32666L24.586 10.2976L24.1862 10.5592C21.4918 12.3175 19.8248 14.5573 18.9548 17.5931C19.5493 18.2375 20.2567 18.8109 21.0653 19.3055C21.7673 16.3216 23.166 14.1026 25.2302 12.7029L25.5608 12.4786L26.3899 13.2503L26.134 13.5933C25.5555 14.3702 25.0677 15.232 24.6775 16.1648L25.0312 15.944L25.7234 16.9478L23.7907 19.1323C23.6831 19.7083 23.6245 20.1682 23.5925 20.4791C24.4216 20.7606 25.3093 20.9728 26.2415 21.1123C26.7676 20.5398 27.4109 19.3254 27.6917 17.9639L27.7477 17.6936L28.6728 17.3766L28.8816 17.7066C29.4726 18.6403 29.7258 19.8451 29.6351 21.2942C30.0732 21.2717 30.5007 21.2309 30.9139 21.1729C31.3306 20.3145 31.5075 19.1738 31.4266 17.8564L31.4079 17.5559L32.3606 17.025L32.6165 17.4C33.1088 18.1223 33.6517 19.3436 33.937 20.3232C34.1334 20.2357 34.3262 20.143 34.5154 20.0461C34.2053 18.1631 33.586 16.0557 31.6603 14.3243L31.3493 14.0445L32.0264 13.045L32.421 13.2451C34.4773 14.2879 35.8946 15.9847 36.7352 18.4194C36.8401 18.3129 36.9423 18.2029 37.0418 18.0903C36.2954 15.5118 34.5332 12.7904 32.3987 10.9351L31.9722 10.5644L32.8946 9.79957L33.1887 9.94682C34.1654 10.4371 34.942 10.8926 35.6093 11.3682L35.7613 9.8732L37.0072 10.4102L37.6932 13.239C38.0539 13.647 38.4058 14.1034 38.7844 14.6534C38.8875 14.1805 38.9603 13.6704 39.0039 13.1126L39.0492 12.5357L40.2693 12.8458L40.3519 13.0996C41.6342 17.0189 40.4976 20.3553 37.1467 22.7554L37.1956 22.9338C37.535 24.1758 37.4594 25.2065 36.9725 25.9991C36.6588 26.5092 36.235 26.8106 35.9035 26.9812C35.9568 27.1354 35.9844 27.2316 35.9888 27.2489L36.1096 27.6777L35.835 28.3541L37.5297 31.5112L38.3765 33.0988L38.2912 33.3058C37.8309 34.4232 37.4719 35.5873 37.2231 36.7661L37.0391 37.6374H35.1064C35.1126 37.6703 35.1286 37.7535 35.1286 37.7535L35.2654 38.7747V38.7851C35.3037 39.2043 35.3179 39.6226 35.309 40.0288C35.3064 42.6013 34.1796 45.6207 32.3695 47.8969L30.8348 49.8267L30.0119 47.5175L30.0092 47.5193Z" fill="#C2C7C7"></path><path d="M39.8761 13.2471L39.4913 13.1492C39.4167 14.102 39.2558 14.9932 38.9582 15.8239C38.3752 14.8954 37.8296 14.1262 37.2351 13.4662L36.5784 10.7552L36.1821 10.5846L36.0088 12.2944C35.1779 11.598 34.1987 10.9995 32.9591 10.3767L32.7236 10.5725C35.1415 12.6729 36.901 15.6411 37.5835 18.2058C37.2609 18.5964 36.8895 18.9749 36.4922 19.3049C35.8844 17.143 34.7194 14.9569 32.1904 13.6741L31.9923 13.9669C34.1125 15.8724 34.7443 18.2292 35.0544 20.3062C34.5959 20.5626 34.1001 20.7947 33.5918 20.9904C33.4061 20.0255 32.7609 18.4864 32.2029 17.6679L31.9176 17.8264C32.0047 19.2434 31.8056 20.599 31.236 21.6123C30.5545 21.7223 29.8356 21.7829 29.0909 21.7951C29.2393 20.5244 29.178 19.0962 28.4582 17.9598L28.1729 18.0577C27.8628 19.5596 27.1066 21.0138 26.4126 21.6245C25.2352 21.4659 24.1191 21.1966 23.0651 20.806C23.09 20.4153 23.1647 19.7432 23.3256 18.9125L25.0984 16.9092L24.8877 16.6034L23.7352 17.3241C24.1199 16.0534 24.7394 14.6373 25.731 13.306L25.508 13.0981C23.2394 14.6373 21.9748 17.1162 21.4044 20.0602C20.2393 19.4374 19.2228 18.6553 18.4043 17.7155C19.2965 14.393 21.0444 12.0241 23.9085 10.155L23.7601 9.92285C22.2725 10.4971 21.1564 11.0835 20.2269 11.7547L20.2767 10.3135L19.9168 10.4477L19.1855 12.6339C18.4043 13.3788 17.6979 14.2458 16.9043 15.3328C16.4831 14.3073 16.2477 13.1709 16.2477 11.9254L15.814 12.0839C14.2145 17.8489 16.5125 21.4356 22.8883 23.5984C22.9052 23.6045 22.923 23.6097 22.9399 23.6157L22.7391 24.0566C20.6659 23.3273 20.0821 22.9297 19.0415 22.3442C18.6327 23.9682 18.638 26.5961 20.9529 28.2669L18.4319 34.0051L19.2157 34.3438C26.2829 37.4004 29.4446 44.4621 30.4754 47.3567L30.9988 48.8257L31.9754 47.5975C33.7215 45.4009 34.8083 42.4968 34.811 40.0153C34.8207 39.5856 34.8021 39.1829 34.7701 38.8243L34.6359 37.8257C34.5586 37.4108 34.5044 37.202 34.499 37.1804L34.4911 37.151H36.6335L36.7357 36.6659C36.9908 35.4551 37.3568 34.2693 37.8296 33.1225L37.0894 31.7332L35.289 28.3795L35.5858 27.6476L35.5085 27.3739C35.4996 27.3436 35.4259 27.0872 35.2695 26.7087C35.2695 26.7087 37.5702 26.1907 36.7135 23.0562C35.7538 23.6876 34.4502 24.3233 33.8957 24.4793L33.5464 24.1233C39.2736 21.8375 41.4383 18.0196 39.877 13.2445L39.8761 13.2471Z" fill="#10069F"></path><path d="M28.2834 20.4141C27.9129 21.1867 27.4605 21.8432 26.9913 22.2564L26.6928 22.5188L26.2947 22.4652C21.1602 21.5808 18.6143 19.2656 17.7461 18.2669L17.4529 17.93L17.5675 17.5021C17.891 16.2965 18.3255 15.2025 18.88 14.2039C18.4917 14.6551 18.0802 15.1809 17.6084 15.8279L16.6904 17.0855L16.207 15.9093C16.2825 16.9755 16.5793 17.9187 17.0992 18.7555C18.1495 20.4488 20.1365 21.7722 23.1712 22.8012C24.4766 23.2438 26.2174 23.5729 27.9377 23.7193C27.9377 23.7193 28.3536 21.8346 28.2834 20.4132V20.4141Z" fill="white"></path><path d="M36.0044 24.4652C36.0044 24.4652 35.2722 24.9 34.4795 25.1755L34.9069 25.9255C35.4952 25.819 36.0861 25.1694 36.0053 24.4644L36.0044 24.4652Z" fill="#E4002B"></path><path d="M32.4496 32.8004L34.4081 32.0434L35.685 32.5934L36.3284 32.1413L34.3423 28.416L34.6738 27.5992C34.6738 27.5992 34.1201 25.6314 32.6193 24.4465L32.1732 24.5807L30.3755 22.8831L29.359 24.9107C27.5986 24.715 26.9792 24.618 25.0447 24.1659L24.8465 25.5828C22.6898 25.0459 20.6318 24.2143 19.6899 23.6895C19.5903 24.6301 19.9254 26.2783 21.1525 27.3169L21.3507 25.7899L23.4336 27.7933L21.8466 28.3797L19.5654 33.5704C25.5529 36.1602 29.4087 41.7901 31.2926 47.0788C32.8174 45.1612 33.9451 42.4501 33.9451 40.0067C33.9655 39.1675 33.8642 38.4252 33.7825 37.9791H33.7843C33.7105 37.5824 33.643 37.1562 33.643 37.1562H33.0476C32.2914 36.2771 30.8758 34.9311 29.7606 34.4184C28.3974 33.7956 25.5956 33.3556 25.4463 33.1729C24.7026 32.1837 24.747 30.5536 24.9825 29.4303C25.4037 30.6394 26.0364 32.3006 26.2221 32.4349C26.4825 32.6186 28.8995 33.0819 29.9908 33.4976C30.9576 33.8641 32.3243 35.0741 33.093 35.7947L32.4487 32.8021L32.4496 32.8004ZM30.6839 29.27L29.6255 28.9755L29.8024 29.4502L29.0977 29.8044C28.6649 29.6113 28.2828 29.2596 28.034 28.7079C27.7363 28.0488 27.6865 27.206 27.7363 26.7539C29.2887 28.4108 30.8189 28.7833 30.8189 28.7833C30.9975 28.934 31.1193 29.0223 31.1193 29.0223L30.6848 29.27H30.6839Z" fill="#E4002B"></path><path d="M29.9686 40.1747L31.2908 39.7192C31.6899 41.3952 31.7903 42.9819 31.6099 44.5107C32.5243 43.0556 33.037 41.4601 33.1241 39.662L33.9461 39.9946C33.9665 39.1544 33.8634 38.4096 33.7816 37.9644H28.8418C29.3217 38.6642 29.6896 39.3996 29.9677 40.1756" fill="white"></path><path d="M34.4959 28.0405C34.5777 27.8447 34.6754 27.5987 34.6754 27.5987C34.6754 27.5987 34.5146 26.9578 33.9538 26.0024L33.7246 27.655L34.4968 28.0405H34.4959Z" fill="white"></path><path d="M36.864 33.1991L36.329 32.1399L35.6857 32.592L34.4087 32.042L32.4502 32.799L33.0944 35.7915C33.3406 36.0237 33.5281 36.2177 33.6134 36.3025H35.9291L36.4001 34.4655L35.5755 34.9003L34.0915 34.1095V33.1663L36.8649 33.1983L36.864 33.1991Z" fill="white"></path><path d="M30.5609 27.2749C29.8438 26.9007 29.2032 26.4374 29.1658 26.4192C29.1907 26.5309 29.3995 27.1848 29.8411 27.7764C30.1513 28.1922 30.6969 28.6833 30.8168 28.7838C31.063 28.9899 31.1172 29.0228 31.1172 29.0228L30.6827 29.2705L29.6163 28.9708L29.7985 29.4507L29.0947 29.8049C29.2032 29.8724 30.2019 30.2493 31.2319 29.7218C32.2636 29.1934 32.3853 28.0501 32.3853 28.0501C32.3853 28.0501 31.4229 27.7244 30.5601 27.2749" fill="white"></path><path d="M39.5914 16.2836C39.4448 16.7063 39.2467 17.1246 39.0467 17.517L38.2221 16.268C37.744 15.5058 37.3308 14.9177 36.9255 14.4214C37.5903 15.5898 38.1057 16.8085 38.4211 17.9934L38.5313 18.4065C36.938 20.7044 33.6892 22.0313 32.9357 22.1534L32.7419 21.1479C32.7055 20.9599 32.6478 20.7425 32.5749 20.5113C32.4398 21.069 32.2461 21.5757 31.9946 22.0227L31.792 22.3829L33.2494 23.3305C35.8894 22.2721 37.6364 20.9512 38.6744 19.3099C38.9454 18.8811 39.0956 18.5451 39.1791 18.306C39.4368 17.659 39.5834 16.98 39.5914 16.2836Z" fill="white"></path></g></g></g></g><defs><clipPath id="bgblur_0_864_9418_clip_path" transform="translate(21.6928 21.6928)"><rect width="58" height="58" rx="11.5695"></rect></clipPath><clipPath id="clip1_864_9418"><rect width="40.5" height="40.5" fill="white" transform="translate(8.75 8.75)"></rect></clipPath></defs></svg> 