<?xml version="1.0" encoding="UTF-8"?> <svg xmlns="http://www.w3.org/2000/svg" width="2392" height="836" viewBox="0 0 2392 836" fill="none"> <g clip-path="url(#clip0_534_548)"> <path d="M515.906 0.724425C515.262 1.12683 513.25 1.85116 511.479 2.41453C509.709 2.97789 506.57 4.58751 504.477 5.95568C502.384 7.24337 436.387 72.6743 357.834 151.304C204.833 304.298 213.043 295.686 210.145 306.31C208.535 312.346 209.179 320.233 211.755 325.303C212.157 326.108 212.479 327.235 212.479 327.798C212.479 328.362 214.411 331.178 216.745 334.076C220.045 338.019 222.298 339.87 226.242 341.802C233.566 345.424 236.142 346.067 242.5 346.067C250.709 346.067 255.377 344.458 262.38 339.146C268.094 334.881 546.49 55.8538 549.548 51.2664C558.804 37.7456 556.551 19.8789 544.156 8.61155C540.534 5.31183 533.693 1.60972 531.278 1.60972C530.393 1.60972 529.427 1.20731 529.186 0.804906C528.622 -0.160864 517.677 -0.160864 515.906 0.724425Z" fill="#0F35F1"></path> <path d="M324.352 11.1869C313.004 12.9575 303.909 21.0861 298.678 34.0435C297.47 37.1017 297.551 49.6567 298.839 53.1174C302.702 63.7409 309.704 70.6622 320.891 74.8472C324.433 76.1349 334.493 76.1349 339.322 74.8472C344.151 73.5595 351.475 68.6502 354.936 64.6262C356.305 62.9361 358.558 59.2339 359.926 56.3366C362.26 51.5883 362.502 50.3811 362.502 43.4597C362.502 36.3774 362.26 35.4116 359.685 29.778C357.673 25.593 355.5 22.5347 352.441 19.6374C348.417 15.8548 346.646 14.8086 340.288 12.2332C337.31 11.026 328.859 10.4626 324.352 11.1869Z" fill="#0F35F1"></path> <path d="M653.373 48.6104C650.475 49.6567 646.854 51.2663 645.324 52.1516C643.876 53.1174 514.94 181.645 358.8 337.778C105.112 591.614 74.7697 622.197 73.0795 626.14C69.7796 633.464 68.8138 639.742 70.0211 645.617C72.3551 656.965 78.9549 665.817 88.5325 670.324C92.4763 672.175 93.925 672.417 101.812 672.336C112.436 672.256 114.207 671.854 119.921 667.91C122.336 666.22 250.306 538.819 406.849 382.123C707.056 81.7686 692.006 97.2208 694.501 87.3217C698.283 73.0766 690.154 56.4171 676.633 50.381C667.377 46.2765 661.502 45.7936 653.373 48.6104Z" fill="#0F35F1"></path> <path d="M1047.1 158.547V241.442H1091.61C1135.8 241.362 1142.16 241.04 1152.62 238.384C1165.66 235.084 1179.5 220.92 1183.52 206.916C1188.76 188.888 1185.3 172.47 1173.22 158.145C1171.53 156.133 1168.07 153.155 1165.58 151.465C1157.85 146.314 1154.87 145.348 1139.82 142.451C1137.49 142.049 1123.08 141.646 1107.87 141.646H1080.1V122.331V103.015H1125.58H1171.05V89.3337V75.652H1109.08H1047.1V158.547ZM1128.39 169.975C1131.29 170.458 1134.35 171.102 1135.23 171.424C1136.12 171.827 1137.81 172.309 1138.94 172.551C1142.48 173.356 1147.39 177.46 1149.16 181.404C1151.49 186.233 1151.57 196.051 1149.4 200.8C1147.87 204.18 1142.88 209.17 1139.1 211.101C1135.23 213.113 1127.91 213.596 1103.85 213.677H1080.5L1080.26 192.349C1080.18 180.599 1080.26 170.539 1080.5 169.975C1080.83 169.171 1085.33 169.01 1101.99 169.09C1113.66 169.171 1125.5 169.573 1128.39 169.975Z" fill="white"></path> <path d="M1319.54 118.87C1303.69 120.238 1288.96 129.091 1280.19 142.451C1276.73 147.682 1272.62 158.386 1271.09 166.193L1270.45 169.412H1257.57H1244.69L1244.29 145.268L1243.89 121.124H1229H1214.11L1213.87 181.243L1213.71 241.442H1229H1244.29L1244.45 218.264L1244.69 195.166L1257.41 194.924C1267.15 194.763 1270.13 194.924 1270.37 195.729C1270.53 196.293 1271.25 199.351 1271.98 202.57C1273.75 210.055 1277.21 217.057 1282.6 224.139C1289.93 233.555 1298.05 238.706 1311.5 242.328C1316.57 243.776 1341.76 243.857 1345.3 242.569C1346.67 242.006 1349.32 241.12 1351.34 240.557C1358.82 238.304 1368 231.624 1373.47 224.38C1379.1 216.815 1382.08 209.894 1384.33 198.627C1386.19 189.532 1386.51 175.609 1385.06 167.883C1380.47 143.417 1368.96 128.85 1347.71 120.721C1343.77 119.192 1341.11 118.87 1332.82 118.709C1327.27 118.629 1321.31 118.709 1319.54 118.87ZM1337.73 144.383C1344.33 147.119 1348.44 151.706 1350.93 158.95C1352.14 162.491 1353.75 175.448 1353.75 182.048C1353.75 191.303 1351.66 202.329 1348.84 207.399C1343.13 217.701 1340.79 218.988 1328.96 219.069C1318.5 219.149 1314.47 217.62 1309.16 211.423C1305.62 207.479 1305.3 206.755 1303.69 199.19C1302.32 192.751 1302 171.826 1303.13 165.388C1305.06 154.443 1309.73 147.521 1316.89 144.785C1321.4 143.014 1333.95 142.773 1337.73 144.383Z" fill="white"></path> <path d="M1471.26 119.031C1462 120.399 1452.99 125.309 1445.66 133.115C1443.33 135.61 1441.24 137.622 1441.08 137.622C1440.92 137.622 1440.59 133.92 1440.51 129.333L1440.27 121.124H1426.19H1412.1L1411.86 204.18L1411.7 287.316H1426.99C1442.2 287.316 1442.28 287.316 1442.69 285.465C1442.93 284.5 1443.09 271.059 1442.93 255.687C1442.77 240.316 1443.01 227.761 1443.33 227.761C1443.65 227.761 1446.55 230.014 1449.77 232.75C1452.91 235.487 1458.22 238.947 1461.6 240.557C1467.56 243.374 1467.8 243.454 1478.1 243.454C1489.21 243.454 1490.17 243.213 1499.43 238.706C1507.31 234.923 1516.57 225.266 1520.84 216.493C1522.61 212.711 1524.54 208.123 1525.02 206.192C1525.58 204.341 1526.47 201.282 1527.03 199.351C1528.4 194.603 1528.32 167.641 1526.87 161.766C1523.57 148.246 1519.55 140.761 1511.18 132.391C1504.74 125.952 1500.07 123.055 1492.18 120.399C1487.68 118.951 1477.13 118.226 1471.26 119.031ZM1477.86 144.222C1481.56 145.348 1488.72 151.465 1491.38 155.73C1496.21 163.537 1498.38 181.967 1495.97 194.361C1492.91 209.894 1483.73 218.908 1470.94 218.908C1464.26 218.908 1460.71 217.861 1456.29 214.562C1448.72 208.848 1445.34 202.973 1443.49 192.188C1439.14 167.883 1446.63 148.889 1462.4 143.739C1464.9 143.014 1474.64 143.256 1477.86 144.222Z" fill="white"></path> <path d="M1599.63 118.79C1585.71 120.802 1574.28 126.355 1564.94 135.61C1559.31 141.163 1557.86 143.256 1554.4 150.499C1547.31 165.308 1545.46 177.621 1548.04 192.752C1549.41 200.639 1551.58 208.606 1552.63 209.653C1553.03 210.055 1553.35 210.86 1553.35 211.423C1553.35 214.884 1567.6 231.543 1572.1 233.394C1572.59 233.636 1574.68 234.763 1576.69 235.97C1578.7 237.097 1583.77 239.27 1587.96 240.718C1595.28 243.213 1596.09 243.294 1608.89 243.374C1620.8 243.374 1622.81 243.213 1628.2 241.442C1642.45 236.855 1655.16 226.795 1662.41 214.481C1668.93 203.375 1670.86 195.568 1670.86 181.001C1670.86 168.285 1669.33 161.445 1663.86 150.58C1657.18 137.139 1643.65 125.631 1629.81 121.607C1627.8 121.043 1625.38 120.238 1624.5 119.917C1622.49 119.112 1603.25 118.307 1599.63 118.79ZM1621.36 146.797C1626.35 149.372 1627.96 150.741 1631.74 155.73C1636.89 162.41 1638.66 168.929 1638.66 180.921C1638.58 195.005 1635.85 202.973 1628.52 210.538C1624.18 215.045 1621.28 216.574 1614.28 218.184C1605.83 220.035 1595.85 216.815 1589.17 210.216C1578.38 199.351 1575.89 177.058 1583.69 159.513C1585.3 155.891 1592.55 148.809 1596.81 146.717C1601.56 144.383 1603.17 144.141 1610.9 144.383C1616.05 144.624 1618.22 145.107 1621.36 146.797Z" fill="white"></path> <path d="M749.473 141.244C738.849 143.819 756.475 126.677 452.968 430.411C187.369 696.239 169.099 714.669 166.765 719.498C163.063 727.466 162.097 732.938 163.304 739.457C165.236 749.759 171.674 758.531 181.494 763.923C186.162 766.418 186.645 766.579 195.256 766.579C211.192 766.579 176.101 800.059 497.395 478.539C652.65 323.13 780.459 195.085 781.345 193.959C790.118 182.611 791.164 169.09 784.162 156.857C779.574 148.728 771.848 143.336 761.787 141.163C756.073 139.876 755.026 139.876 749.473 141.244Z" fill="#0F35F1"></path> <path d="M158.634 166.997C152.839 169.734 151.069 171.504 92.2347 230.819C5.2309 318.623 6.11623 317.657 3.70169 322.647C2.57491 325.062 1.6091 327.718 1.6091 328.442C1.6091 329.247 1.28716 330.132 0.804255 330.373C-0.242043 331.017 -0.242043 342.607 0.804255 343.25C1.28716 343.492 1.6091 344.458 1.6091 345.343C1.6091 347.596 4.74799 354.035 7.56495 357.576C10.4624 361.198 16.5792 365.785 20.7644 367.395C31.4688 371.419 41.7709 370.372 50.7046 364.336C52.7168 362.968 82.7375 333.19 117.507 298.181C204.35 210.779 199.118 216.252 201.855 210.055C207.569 197.339 204.993 183.094 195.255 173.436C191.553 169.814 188.172 167.722 181.653 165.066C180.446 164.583 176.1 164.181 171.995 164.181C165.234 164.261 164.027 164.503 158.634 166.997Z" fill="#0F35F1"></path> <path d="M781.344 277.095C762.672 283.936 754.382 305.666 763.637 323.291C768.225 332.064 779.09 339.226 789.231 340.112C807.019 341.721 821.586 330.374 824.886 312.265C825.691 307.839 825.691 306.068 824.645 301.561C821.747 289.087 814.906 281.602 801.385 276.129C797.602 274.6 786.575 275.164 781.344 277.095Z" fill="#0F35F1"></path> <path d="M1047.02 307.597C1047.02 307.758 1046.78 344.699 1046.54 389.688C1046.14 455.28 1046.3 471.778 1047.1 472.824C1047.99 473.871 1055.07 474.032 1106.74 474.032H1165.42V492.14V510.248H1179.1H1192.78L1192.62 478.378L1192.38 446.507L1185.94 446.346L1179.5 446.266L1179.1 377.052L1178.7 307.839H1162.6H1146.5L1146.1 377.052L1145.7 446.266H1113.1H1080.5L1080.1 377.052L1079.7 307.839L1063.44 307.597C1054.43 307.517 1047.1 307.517 1047.02 307.597Z" fill="white"></path> <path d="M1428.92 311.139C1428.6 313.231 1428.6 326.671 1428.84 340.997C1429.16 359.186 1429 366.992 1428.44 366.992C1427.96 366.992 1426.27 365.544 1424.74 363.773C1422.08 360.554 1414.52 355.001 1411.3 353.793C1407.35 352.264 1400.91 350.896 1397.69 350.896C1393.75 350.896 1385.78 353.311 1381.36 355.886C1373.79 360.232 1363.33 371.338 1359.22 379.386C1354.96 387.756 1352.14 401.116 1352.14 413.269C1352.22 434.918 1358.74 453.348 1370.57 465.259C1379.18 473.871 1386.19 476.768 1397.45 476.205C1401.56 476.044 1405.9 475.561 1407.27 475.239C1411.06 474.193 1419.02 469.203 1423.45 465.018C1425.7 462.925 1427.88 461.155 1428.28 461.155C1428.68 461.155 1429 473.468 1429 490.289V519.503L1444.54 519.745L1459.99 519.906V490.53C1459.99 474.354 1460.23 461.155 1460.47 461.155C1460.79 461.155 1463.37 463.408 1466.35 466.145C1474.56 473.871 1480.67 476.446 1490.9 476.446C1501.44 476.446 1509.49 472.744 1517.62 464.213C1523.01 458.499 1526.39 453.831 1529.13 447.875C1532.18 441.437 1532.83 439.586 1534.76 431.779C1536.05 426.468 1536.53 412.142 1535.73 404.818C1534.28 392.102 1532.83 387.032 1527.76 376.891C1518.18 357.415 1501.28 347.677 1484.54 352.023C1475.93 354.357 1470.61 357.254 1465.7 362.727C1463.13 365.463 1460.79 367.797 1460.47 367.797C1460.23 367.797 1459.91 354.276 1459.83 337.778L1459.59 307.839L1444.54 307.597L1429.49 307.437L1428.92 311.139ZM1412.26 376.006C1417.49 378.26 1424.58 386.227 1426.27 391.78C1427.72 396.69 1429.33 408.118 1429.33 413.671C1429.41 418.5 1427.8 429.606 1426.59 433.389C1425.3 437.413 1421.04 445.139 1419.1 447.151C1415 451.256 1412.5 452.302 1406.63 452.302C1399.79 452.302 1395.92 450.048 1392.14 444.012C1387.8 437.172 1386.59 433.952 1385.3 425.421C1384.25 418.58 1384.17 416.005 1385.06 408.037C1386.51 395 1389.16 387.595 1394.56 381.64C1400.11 375.604 1406.55 373.592 1412.26 376.006ZM1488.88 376.65C1494.52 379.467 1498.62 385.905 1501.84 396.77C1504.1 404.335 1504.42 421.88 1502.41 428.962C1501.68 431.377 1500.88 434.274 1500.55 435.401C1499.11 440.471 1492.75 449.163 1489.13 451.014C1487.03 452.06 1481.96 452.704 1477.62 452.463C1475.12 452.302 1468.92 447.071 1465.7 442.322C1461.36 436.045 1459.99 429.526 1459.99 415.442C1459.99 408.601 1460.39 401.599 1460.88 400.07C1461.36 398.46 1462.08 395.885 1462.57 394.356C1464.74 386.308 1471.74 377.455 1476.97 375.926C1481.4 374.718 1485.58 374.96 1488.88 376.65Z" fill="white"></path> <path d="M718.325 342.043C718.084 342.446 717.118 342.848 716.313 342.848C714.381 342.848 707.057 347.113 703.999 349.93C697.882 355.564 693.777 365.222 693.777 373.672C693.777 384.457 698.365 393.551 706.977 399.909C713.818 404.979 717.118 406.025 726.374 406.025C733.778 406.025 734.824 405.784 740.136 403.37C756.636 395.643 763.477 376.569 755.911 359.508C752.773 352.425 743.758 344.94 734.905 342.124C731.444 340.997 718.969 340.997 718.325 342.043Z" fill="#0F35F1"></path> <path d="M1620.96 351.862C1612.99 354.035 1611.54 354.518 1609.13 355.805C1603.17 359.105 1600.11 361.439 1596.25 365.624C1594 368.119 1591.98 369.89 1591.66 369.648C1591.42 369.326 1591.18 365.785 1591.18 361.6V354.115H1576.69H1562.21V436.206C1562.21 481.355 1562.21 518.538 1562.21 518.86C1562.21 519.262 1569.29 519.584 1577.9 519.745L1593.59 519.906V490.128C1593.59 473.79 1593.84 460.35 1594.08 460.35C1594.32 460.35 1596.57 462.121 1599.07 464.213C1610.25 473.79 1616.77 476.446 1629.17 476.446C1641 476.446 1648.56 473.71 1657.9 466.225C1668.28 457.855 1674.16 447.393 1678.02 430.331C1679.39 424.617 1679.15 402.323 1677.7 395.402C1676.17 388.078 1673.43 380.433 1670.54 375.604C1665.87 367.636 1654.84 357.737 1646.87 354.357C1639.55 351.299 1627.32 350.091 1620.96 351.862ZM1631.26 378.421C1638.83 382.606 1643.82 389.688 1645.99 399.185C1647.36 404.979 1647.28 424.295 1645.99 429.445C1642.77 441.759 1636.57 448.6 1626.51 451.175C1618.3 453.268 1610.25 451.014 1603.9 444.817C1596.49 437.654 1593.59 428.56 1593.59 412.544C1593.59 397.092 1595.85 389.929 1602.93 382.847C1608.89 376.891 1611.86 375.845 1621.36 376.167C1626.35 376.409 1628.6 376.891 1631.26 378.421Z" fill="white"></path> <path d="M1749.33 351.782C1740.32 353.633 1737.74 354.357 1734.44 355.886C1732.43 356.852 1729.69 358.059 1728.32 358.622C1724.46 360.232 1716.33 366.671 1712.87 370.856C1702.73 383.008 1698.3 395.966 1698.3 413.671C1698.3 423.57 1698.63 426.468 1701.2 436.93C1702.41 442.001 1708.85 453.187 1713.19 457.855C1719.23 464.374 1729.29 470.732 1736.86 472.744C1737.98 473.066 1739.59 473.629 1740.48 474.032C1746.35 476.446 1766.47 477.412 1773.4 475.561C1783.62 472.905 1788.53 470.813 1794.81 466.547C1806.31 458.66 1814.6 447.312 1818.79 433.791C1825.95 410.613 1821.28 386.71 1806.56 371.177C1796.17 360.232 1785.95 354.679 1771.46 352.023C1764.78 350.816 1754.32 350.655 1749.33 351.782ZM1767.84 377.696C1786.43 383.33 1794.72 407.716 1786.52 432.182C1785.07 436.286 1783.78 438.379 1779.92 442.242C1777.26 444.898 1774.04 447.554 1772.67 448.198C1771.38 448.761 1769.61 449.566 1768.89 449.968C1768.08 450.371 1763.98 450.692 1759.79 450.692C1750.94 450.692 1747.32 449.405 1741.28 444.093C1733.48 437.172 1730.42 428.721 1730.42 413.752C1730.42 403.37 1731.46 397.897 1734.76 391.459C1736.45 388.4 1743.05 381.64 1746.11 380.03C1752.47 376.731 1761.48 375.765 1767.84 377.696Z" fill="white"></path> <path d="M1215.48 413.832L1215.72 473.629H1230.61H1245.5L1253.55 461.477C1264.09 445.461 1276 427.192 1276.4 426.146C1277.21 424.295 1294.43 398.782 1295.08 398.541C1295.48 398.38 1295.88 414.637 1295.96 435.964L1296.2 473.629L1311.33 473.871L1326.39 474.032V414.074V354.115H1310.77H1295.16L1286.06 368.119C1264.98 400.392 1260.79 406.83 1260.47 407.555C1259.66 409.486 1247.27 427.755 1246.62 427.997C1246.22 428.158 1245.9 412.947 1245.9 391.217V354.115H1230.61H1215.32L1215.48 413.832Z" fill="white"></path> <path d="M1848.09 413.832L1848.33 473.629H1891.79C1935.09 473.629 1935.25 473.629 1940.88 471.778C1948.29 469.283 1952.31 466.869 1956.34 462.523C1961.49 456.97 1963.34 452.302 1963.66 444.012C1963.98 436.206 1962.53 431.055 1958.11 424.456C1955.69 420.834 1949.17 416.166 1944.35 414.396C1942.66 413.832 1941.29 413.027 1941.29 412.705C1941.29 412.384 1942.82 411.337 1944.59 410.372C1949.17 408.038 1955.05 402.002 1957.38 397.173C1959.07 393.712 1959.32 392.022 1959.4 384.698C1959.4 376.731 1959.23 375.926 1956.74 370.855C1953.28 363.854 1949.34 360.715 1938.47 356.449C1934.45 354.92 1928.65 354.598 1889.54 354.357L1847.92 354.115L1848.09 413.832ZM1912.71 374.477C1920.68 375.845 1924.22 377.455 1926.64 380.916C1930.66 386.871 1927.85 397.334 1921.41 400.392C1916.1 402.967 1912.31 403.45 1895.65 403.772L1879.31 404.094V389.286C1879.31 381.157 1879.56 374.236 1879.88 373.994C1880.84 373.028 1906.12 373.431 1912.71 374.477ZM1917.62 424.295C1928.09 426.307 1933.64 434.274 1930.82 443.208C1927.93 452.141 1922.29 453.912 1897.02 453.912H1879.31V438.62V423.329H1896.05C1905.55 423.329 1914.89 423.731 1917.62 424.295Z" fill="white"></path> <path d="M1990.87 354.84C1990.14 355.886 1990.46 472.1 1991.19 473.227C1992.07 474.595 2072.88 473.871 2078.11 472.422C2095.74 467.513 2103.79 459.465 2106.28 444.173C2107.17 439.023 2107.17 437.413 2105.96 432.182C2105.15 428.882 2103.62 424.456 2102.42 422.283C2099.52 416.89 2091.39 409.486 2086.96 408.038C2084.95 407.474 2083.02 406.669 2082.54 406.347C2080.93 405.221 2071.43 404.657 2047.12 404.094L2022.17 403.611L2021.93 378.823L2021.77 354.115H2006.48C1998.11 354.115 1991.11 354.437 1990.87 354.84ZM2060.56 424.214C2068.77 425.985 2071.91 428.48 2074.01 434.757C2074.81 437.091 2074.81 438.781 2074.09 442.242C2073.36 445.863 2072.56 447.151 2069.9 449.485C2068.05 451.014 2065.88 452.302 2065.15 452.302C2064.35 452.302 2063.46 452.624 2063.22 453.107C2062.9 453.59 2055.01 453.912 2042.21 453.912H2021.77V438.62V423.329H2039.08C2048.73 423.329 2058.15 423.731 2060.56 424.214Z" fill="white"></path> <path d="M2125.76 413.832L2126 473.629L2141.53 473.871L2156.99 474.032V414.074V354.115H2141.29H2125.6L2125.76 413.832Z" fill="white"></path> <path d="M2177.11 354.759C2177.11 355.081 2186.12 368.039 2197.15 383.491C2209.7 401.036 2217.03 412.062 2216.79 412.786C2216.54 413.51 2215.34 415.361 2214.13 416.89C2213 418.42 2209.7 423.087 2206.81 427.272C2203.99 431.377 2199.32 438.137 2196.42 442.242C2193.53 446.346 2188.86 453.026 2186.04 457.131C2183.22 461.235 2179.6 466.386 2177.83 468.64C2176.14 470.893 2174.93 472.985 2175.18 473.388C2175.42 473.71 2183.3 474.032 2192.8 474.032C2206.08 474.032 2210.27 473.79 2211.07 472.985C2211.63 472.342 2217.19 464.213 2223.39 454.877C2229.66 445.381 2235.22 437.815 2235.86 437.815C2236.5 437.815 2238.52 440.069 2240.21 442.805C2241.9 445.622 2247.13 453.751 2251.88 460.913L2260.41 474.032H2279.16C2291.96 474.032 2297.83 473.79 2297.83 473.146C2297.83 472.664 2295.02 468.237 2291.56 463.328C2288.1 458.338 2278.6 444.898 2270.47 433.389C2262.42 421.88 2255.58 411.981 2255.42 411.418C2255.02 410.532 2259.52 403.45 2266.04 394.678C2267.33 392.907 2270.47 388.561 2272.88 385.1C2277.23 378.984 2281.41 373.109 2288.5 363.371C2290.35 360.715 2292.6 357.576 2293.41 356.288L2294.78 354.115H2276.59H2258.4L2252.04 363.532C2239.48 382.042 2236.67 385.905 2235.78 385.905C2235.3 385.905 2230.31 378.743 2224.75 370.051L2214.53 354.115H2195.86C2185.56 354.115 2177.11 354.437 2177.11 354.759Z" fill="white"></path> <path d="M609.269 468.318C607.74 468.64 604.44 469.766 602.025 470.813C598.001 472.503 583.916 486.265 454.9 615.195C374.335 695.595 310.752 759.739 308.981 762.314C307.291 764.809 305.842 767.465 305.842 768.109C305.842 768.752 305.52 769.477 305.118 769.799C304.474 770.201 303.911 773.179 303.106 780.905C302.704 784.205 304.474 790.965 306.969 795.875C314.937 811.488 334.897 817.926 350.511 809.959C355.179 807.544 382.303 780.744 539.972 622.117C651.926 509.524 645.407 516.606 647.902 504.776C648.706 500.671 648.706 498.9 647.902 494.715C644.682 479.183 633.253 468.801 618.364 467.996C614.903 467.835 610.798 467.996 609.269 468.318Z" fill="#0F35F1"></path> <path d="M795.188 468.076C794.061 468.318 792.451 468.8 791.566 469.122C790.681 469.525 788.508 470.491 786.737 471.215C784.403 472.261 758.165 497.934 687.902 568.114C635.346 620.587 590.918 665.334 589.228 667.588C580.777 678.614 580.294 694.549 588.182 705.977C595.023 715.876 607.739 722.073 618.283 720.705C629.631 719.176 634.541 715.796 652.247 697.607C659.732 689.962 683.958 665.415 706.172 642.961C774.342 574.23 826.818 520.711 828.428 518.457C832.211 512.823 833.337 509.121 833.659 500.832L833.981 492.623L830.681 485.782C826.899 478.056 823.357 474.434 815.55 470.732C811.526 468.8 809.112 468.237 803.88 467.996C800.178 467.835 796.315 467.915 795.188 468.076Z" fill="#0F35F1"></path> <path d="M55.5345 475.078C44.4276 479.505 38.8742 485.138 34.5281 496.486C33.1598 500.188 33.1598 511.536 34.6085 515.962C39.5181 531.415 56.8223 541.475 72.2753 538.014C83.4626 535.439 92.0745 528.195 96.3402 517.813C97.9499 513.95 98.2718 511.697 98.2718 505.822C98.1913 495.359 95.4548 488.921 88.2112 482.321C84.026 478.458 77.7482 474.837 75.3337 474.837C74.6898 474.837 73.885 474.434 73.6435 474.032C72.6777 472.503 60.2831 473.227 55.5345 475.078Z" fill="#0F35F1"></path> <path d="M2302.5 538.014C2301.94 538.577 2303.63 545.579 2305.64 550.891C2306.61 553.708 2308.78 556.605 2312.72 560.549C2320.29 568.114 2324.63 569.804 2336.87 569.804C2341.7 569.804 2346.93 569.402 2348.46 568.919C2357.71 565.941 2364.72 559.985 2368.5 551.857C2371.32 545.821 2373.09 539.302 2372.04 538.255C2371.64 537.853 2368.26 537.612 2364.55 537.773L2357.87 538.014L2356.91 541.394C2354.41 549.845 2348.46 553.708 2337.75 553.708C2329.62 553.708 2325.12 552.098 2321.33 547.752C2318.92 545.016 2318.36 543.728 2317.79 539.624C2317.55 538.175 2316.83 538.014 2310.23 537.773C2306.28 537.692 2302.74 537.773 2302.5 538.014Z" fill="white"></path> <path d="M1034.55 541.877C1034.39 542.44 1034.31 548.476 1034.39 555.317L1034.63 567.792L1058.93 568.033L1083.32 568.194L1083.48 637.247L1083.72 706.219L1100.46 706.46L1117.13 706.621V637.408V568.194L1141.51 568.033L1165.82 567.792V554.512V541.233L1100.38 540.992C1047.35 540.831 1034.87 540.992 1034.55 541.877Z" fill="white"></path> <path d="M1220.71 583.888C1202.52 587.993 1189.96 596.121 1180.23 610.447C1178.7 612.7 1177.41 615.356 1174.75 621.473C1167.83 637.73 1169.12 659.218 1177.97 675.556C1181.92 682.96 1186.58 688.352 1192.94 693.181C1201.96 699.941 1209.36 703.08 1222.4 705.736C1227.87 706.863 1243.16 706.863 1248.15 705.816C1250.25 705.334 1253.79 704.609 1255.96 704.126C1265.14 702.114 1275.12 697.688 1281.48 692.779L1284.45 690.445L1279.54 683.443C1276.81 679.58 1273.75 675.234 1272.7 673.785L1270.77 671.21L1267.39 673.463C1253.39 682.96 1233.83 685.133 1220.47 678.775C1216.04 676.682 1208.72 669.52 1206.54 665.174C1203.97 660.023 1203.16 656.16 1204.45 655.114C1205.01 654.631 1220.87 654.228 1249.2 654.148L1292.98 653.906L1292.82 645.053C1292.66 635.718 1291.86 630.486 1289.12 622.519C1284.05 607.147 1273.02 594.672 1259.18 588.395C1257.89 587.832 1256.12 587.027 1255.4 586.624C1254.59 586.222 1253.31 585.9 1252.5 585.9C1251.7 585.9 1250.73 585.578 1250.33 585.176C1248.23 583.244 1227.71 582.278 1220.71 583.888ZM1241.07 607.952C1247.51 609.481 1251.7 611.895 1255.56 616.241C1259.58 620.829 1262.08 626.06 1262.24 630.567L1262.4 633.786L1232.94 634.028L1203.41 634.189L1203 632.418C1202.68 631.452 1202.76 630.245 1203.08 629.843C1203.41 629.36 1204.21 627.509 1204.77 625.738C1209.52 611.815 1225.14 604.169 1241.07 607.952Z" fill="white"></path> <path d="M1636.65 584.371C1620.96 585.658 1609.69 590.729 1599.23 601.191C1593.67 606.744 1591.66 609.4 1589.01 614.953C1582.97 627.508 1582 632.015 1582 646.663C1582 657.528 1582.25 660.506 1583.77 665.978C1586.35 674.912 1591.18 684.489 1595.93 689.801C1599.95 694.308 1608.81 700.826 1613.31 702.678C1614.68 703.16 1616.45 703.885 1617.34 704.287C1624.74 707.345 1637.3 709.84 1645.51 709.84C1652.75 709.84 1663.21 707.587 1669.73 704.529C1685.51 697.205 1698.87 681.431 1703.62 664.369C1705.47 657.85 1705.47 636.603 1703.62 630.164C1699.91 617.046 1695.89 610.044 1687.04 601.191C1678.18 592.499 1671.26 588.717 1657.42 585.095C1653.31 584.049 1644.54 583.807 1636.65 584.371ZM1653.07 611.01C1657.34 612.459 1664.02 617.609 1666.75 621.553C1671.18 627.991 1672.79 634.832 1672.79 647.065C1672.79 659.781 1671.18 665.576 1665.87 672.578C1651.3 691.652 1622.81 685.938 1615.57 662.437C1613.63 655.999 1613.63 636.281 1615.65 630.567C1619.51 619.541 1628.6 611.171 1638.26 609.722C1641.8 609.239 1649.77 609.883 1653.07 611.01Z" fill="white"></path> <path d="M1929.21 584.451C1922.21 584.934 1919.72 585.498 1912.71 587.912C1895.65 593.787 1883.66 606.423 1877.3 624.933C1875.45 630.486 1873.68 640.949 1873.68 646.261C1873.76 650.767 1875.37 662.115 1876.74 667.186C1880.92 682.879 1891.06 695.354 1904.83 701.792C1915.85 707.023 1914.57 706.621 1927.2 708.714C1948.13 712.174 1966.64 705.816 1981.61 690.042C1993.28 677.648 1996.82 668.393 1997.38 648.755C1997.79 637.73 1997.63 635.718 1996.02 629.842C1990.46 609.722 1978.07 595.397 1959.8 587.912C1952.47 584.934 1940.4 583.566 1929.21 584.451ZM1947.32 611.734C1959.64 617.529 1965.43 628.716 1965.43 646.743C1965.43 660.425 1963.02 667.99 1956.74 674.751C1952.96 678.694 1947.16 682.477 1944.83 682.477C1943.78 682.477 1942.74 682.799 1942.49 683.282C1941.69 684.65 1932.19 684.167 1927.36 682.557C1910.62 677.085 1903.06 658.896 1907.24 634.51C1909.33 622.599 1919.48 611.654 1930.02 609.964C1935.41 609.078 1943.38 609.883 1947.32 611.734Z" fill="white"></path> <path d="M1304.65 586.383C1304.65 586.866 1317.37 605.215 1334.6 629.521L1344.17 643.041L1340.15 648.836C1337.89 652.055 1333.87 657.769 1331.21 661.552C1328.48 665.334 1324.13 671.451 1321.56 675.234C1318.9 679.016 1313.51 686.662 1309.48 692.296C1305.54 698.01 1302.24 702.758 1302.24 702.999C1302.24 703.241 1309.97 703.402 1319.38 703.402H1336.53L1341.76 695.595C1344.58 691.33 1348.2 686.098 1349.73 684.006C1351.26 681.913 1354.88 676.682 1357.77 672.497C1360.67 668.232 1363.49 664.852 1364.13 665.013C1365.18 665.173 1367.27 668.071 1383.61 691.732L1391.34 702.999L1408.72 703.241C1418.38 703.321 1426.19 703.241 1426.19 702.919C1426.19 702.678 1425.14 701.068 1423.93 699.458C1418.3 692.296 1384.82 644.892 1384.58 643.685C1384.33 642.961 1385.78 640.144 1387.71 637.408C1389.57 634.591 1391.74 631.613 1392.38 630.647C1395.44 626.221 1407.43 609.32 1414.76 598.938C1419.26 592.58 1422.97 587.027 1422.97 586.624C1422.97 586.222 1415.96 585.9 1406.15 585.9H1389.24L1383.05 594.914C1379.59 599.904 1374.03 608.032 1370.73 612.941C1367.35 617.851 1364.29 621.794 1363.81 621.553C1363.41 621.392 1361.4 618.817 1359.38 615.839C1357.37 612.861 1351.98 604.893 1347.31 598.133L1338.86 585.9H1321.8C1312.38 585.9 1304.65 586.141 1304.65 586.383Z" fill="white"></path> <path d="M1443.89 644.651V703.402H1459.18H1474.48L1474.64 680.223L1474.88 657.125L1500.47 656.884L1525.99 656.723V680.062V703.402H1541.28H1556.57V644.651V585.9H1541.28H1525.99V607.63V629.36H1500.23H1474.48V607.63V585.9H1459.18H1443.89V644.651Z" fill="white"></path> <path d="M1748.93 587.992C1748.45 589.119 1748.12 591.212 1748.12 592.66C1748.12 594.109 1747.8 597.248 1747.4 599.662C1747 602.077 1746.19 607.066 1745.71 610.849C1745.23 614.632 1744.5 620.024 1744.1 622.921C1743.7 625.818 1742.97 630.889 1742.57 634.188C1740.32 651.089 1739.75 654.389 1738.39 660.345C1735.73 671.531 1729.93 680.867 1725.67 680.867C1722.77 680.867 1722.37 682.477 1722.37 694.71V706.621H1725.99C1731.54 706.621 1737.02 705.092 1745.31 701.309C1749.41 699.378 1755.77 693.422 1759.31 688.191C1762.61 683.201 1765.83 676.682 1765.83 674.912C1765.83 674.268 1766.23 673.463 1766.64 673.222C1767.12 672.98 1767.44 672.014 1767.44 671.129C1767.44 670.324 1767.76 668.956 1768.16 668.151C1769.21 666.381 1771.46 654.791 1772.43 647.065C1773.96 633.786 1774.76 627.106 1775.41 621.311C1776.54 611.493 1774.44 612.378 1796.33 612.62L1815.33 612.861L1815.57 658.172L1815.73 703.402L1831.02 703.241L1846.32 702.999L1846.4 644.651L1846.48 586.302L1798.11 586.061L1749.73 585.9L1748.93 587.992Z" fill="white"></path> <path d="M2023.38 644.651V703.402L2038.91 703.241L2054.37 702.999L2054.53 658.735C2054.69 634.349 2054.77 613.988 2054.77 613.505C2054.77 612.7 2061.77 612.459 2085.6 612.298L2116.34 612.056V599.179V586.302L2069.9 586.061L2023.38 585.9V644.651Z" fill="white"></path> <path d="M2140.49 586.624L2138.07 587.107V646.663V706.219L2153.12 706.46L2168.17 706.621L2173 699.297C2175.74 695.273 2177.91 691.813 2177.91 691.652C2177.91 691.491 2181.21 686.42 2185.15 680.384C2189.18 674.429 2192.4 669.358 2192.4 669.198C2192.4 669.037 2196.1 663.161 2200.69 656.16C2205.28 649.158 2210.75 640.627 2213 637.247C2215.18 633.786 2217.19 630.969 2217.59 630.969C2217.91 630.969 2218.15 647.951 2218.15 668.795V706.621H2233.45H2248.74L2248.58 646.502L2248.34 586.463H2240.69C2236.5 586.463 2229.58 586.544 2225.32 586.624L2217.51 586.705L2214.13 592.097C2212.2 595.155 2206.89 603.284 2202.38 610.205C2197.79 617.207 2194.01 623.082 2194.01 623.323C2194.01 623.565 2190.06 629.762 2185.15 637.086C2180.33 644.409 2176.3 650.606 2176.3 650.848C2176.3 651.733 2169.62 660.747 2168.98 660.747C2168.57 660.747 2168.17 644.007 2168.09 623.484L2167.85 586.302L2155.38 586.222C2148.53 586.141 2141.85 586.302 2140.49 586.624Z" fill="white"></path> <path d="M2281.25 587.107C2281.09 587.51 2281.01 614.551 2281.09 647.065L2281.33 706.219L2296.47 706.46L2311.52 706.621L2313.77 703.08C2314.98 701.068 2319.56 693.825 2323.99 686.984C2328.42 680.143 2335.1 669.761 2338.88 663.886C2353.93 640.385 2359.97 631.372 2360.69 631.13C2361.09 630.969 2361.5 646.1 2361.58 668.554L2361.82 706.219L2376.95 706.46L2392 706.621V646.743V586.785L2389.02 586.544C2387.33 586.383 2380.33 586.383 2373.33 586.544L2360.77 586.785L2353.85 597.409C2350.07 603.284 2342.99 614.149 2338.08 621.714C2319.24 650.928 2312.72 660.747 2312.16 660.747C2311.84 660.747 2311.44 644.007 2311.35 623.565L2311.11 586.383H2296.3C2287.13 586.302 2281.41 586.624 2281.25 587.107Z" fill="white"></path> <path d="M484.196 772.696C472.606 777.042 465.121 786.378 462.787 799.174C461.097 808.51 465.282 820.34 472.687 827.02C486.128 839.173 505.685 838.932 518.16 826.377C524.519 820.019 527.98 811.729 527.98 803.118C527.899 789.677 519.046 777.283 505.927 772.535C500.454 770.523 489.669 770.603 484.196 772.696Z" fill="#0F35F1"></path> </g> <defs> <clipPath id="clip0_534_548"> <rect width="2392" height="836" fill="white"></rect> </clipPath> </defs> </svg> 