<?xml version="1.0" encoding="UTF-8"?> <svg xmlns="http://www.w3.org/2000/svg" width="376" height="319" viewBox="0 0 376 319" fill="none"> <path d="M230.524 173.061L230.917 172.038L232.667 172.579L235.114 166.21L243.474 169.421L243.037 170.559L235.701 167.74L233.997 172.176L241.333 174.995L240.896 176.132L233.56 173.314L233.254 174.11L230.524 173.061Z" fill="#1035F2"></path> <path d="M231.517 177.731L229.036 182.757L228.107 182.299L231.127 176.18L239.158 180.144L236.3 185.935L235.426 185.504L237.745 180.805L235.155 179.527L233.268 183.351L232.394 182.92L234.281 179.095L231.517 177.731Z" fill="#1035F2"></path> <path d="M230.567 188.44L227.9 192.808L231.145 194.789L230.51 195.829L222.866 191.162L223.501 190.122L226.964 192.237L229.631 187.869L226.168 185.754L226.803 184.714L234.447 189.381L233.812 190.421L230.567 188.44Z" fill="#1035F2"></path> <path d="M224.752 197.475L221.692 201.577L224.739 203.85L224.01 204.827L216.832 199.471L217.56 198.495L220.813 200.921L223.873 196.819L220.62 194.393L221.349 193.416L228.528 198.771L227.799 199.748L224.752 197.475Z" fill="#1035F2"></path> <path d="M217.892 210.099C219.207 208.659 218.996 206.487 217.764 205.361C216.315 204.038 214.158 204.412 213.024 205.654C211.693 207.111 211.921 209.283 213.154 210.409C214.63 211.756 216.783 211.314 217.892 210.099ZM218.792 210.921C217.108 212.765 214.168 212.985 212.332 211.309C210.488 209.624 210.44 206.677 212.125 204.832C213.801 202.996 216.741 202.777 218.585 204.461C220.421 206.137 220.468 209.085 218.792 210.921Z" fill="#1035F2"></path> <path d="M206.725 219.409L207.353 219.893C207.915 219.734 208.443 219.393 208.952 218.938C210.205 217.817 210.602 215.664 209.294 214.202C207.987 212.739 205.803 212.894 204.55 214.014C203.732 214.745 203.366 215.743 203.399 216.694L202.177 216.626C202.181 215.332 202.711 214.024 203.738 213.106C205.591 211.449 208.538 211.528 210.202 213.39C211.867 215.252 211.617 218.189 209.764 219.846C208.964 220.561 208.041 221.027 206.908 221.223L205.925 220.123L206.725 219.409Z" fill="#1035F2"></path> <path d="M200.289 226.013L195.623 219.689L196.603 218.965L201.27 225.29L203.819 223.409L204.47 224.291L198.391 228.776L197.74 227.894L200.289 226.013Z" fill="#1035F2"></path> <path d="M189.871 232.909L188.952 224.209L190.912 223.023L195.547 230.687L194.505 231.317L190.406 224.54L190.166 224.685L191.085 233.386L189.125 234.571L184.49 226.908L185.532 226.277L189.631 233.054L189.871 232.909Z" fill="#1035F2"></path> <path d="M179.476 234.788L168.878 239.132L168.508 238.23L179.106 233.886L179.476 234.788Z" fill="#1035F2"></path> <path d="M151.506 237.152L152.574 236.9L153.112 238.651L159.753 237.083L161.811 245.8L160.625 246.08L158.819 238.431L154.194 239.523L156 247.172L154.814 247.452L153.008 239.803L152.178 239.999L151.506 237.152Z" fill="#1035F2"></path> <path d="M148.208 240.604L142.658 241.387L142.514 240.361L149.27 239.408L150.521 248.277L144.126 249.179L143.99 248.213L149.178 247.482L148.775 244.622L144.552 245.218L144.416 244.252L148.639 243.657L148.208 240.604Z" fill="#1035F2"></path> <path d="M138.826 245.854L133.715 246.112L133.906 249.909L132.69 249.971L132.238 241.026L133.454 240.965L133.659 245.017L138.77 244.759L138.566 240.706L139.783 240.645L140.235 249.589L139.018 249.651L138.826 245.854Z" fill="#1035F2"></path> <path d="M128.086 246.141L122.973 245.925L122.812 249.723L121.594 249.672L121.973 240.724L123.191 240.775L123.019 244.829L128.132 245.046L128.304 240.992L129.521 241.043L129.143 249.991L127.925 249.94L128.086 246.141Z" fill="#1035F2"></path> <path d="M113.791 247.588C115.722 247.863 117.398 246.465 117.633 244.812C117.909 242.87 116.385 241.299 114.72 241.062C112.766 240.784 111.101 242.196 110.865 243.849C110.584 245.827 112.163 247.357 113.791 247.588ZM113.62 248.795C111.147 248.443 109.309 246.138 109.659 243.677C110.011 241.204 112.419 239.504 114.892 239.856C117.353 240.206 119.191 242.511 118.839 244.984C118.489 247.445 116.081 249.145 113.62 248.795Z" fill="#1035F2"></path> <path d="M99.8074 243.609L99.7619 244.401C100.209 244.775 100.789 245.019 101.451 245.183C103.084 245.587 105.085 244.702 105.557 242.798C106.028 240.893 104.67 239.176 103.038 238.772C101.973 238.509 100.943 238.769 100.176 239.332L99.5437 238.284C100.615 237.558 101.994 237.259 103.331 237.59C105.744 238.187 107.34 240.666 106.739 243.09C106.139 245.515 103.571 246.963 101.159 246.366C100.118 246.109 99.2121 245.608 98.4122 244.783L98.7665 243.351L99.8074 243.609Z" fill="#1035F2"></path> <path d="M90.7248 242.014L93.3197 234.595L94.4699 234.998L91.875 242.416L94.8655 243.462L94.5034 244.497L87.3723 242.003L87.7343 240.968L90.7248 242.014Z" fill="#1035F2"></path> <path d="M79.157 237.294L85.8267 231.632L87.9107 232.583L84.1918 240.731L83.0833 240.225L86.3721 233.019L86.1172 232.903L79.4474 238.565L77.3635 237.614L81.0824 229.466L82.1909 229.972L78.902 237.178L79.157 237.294Z" fill="#1035F2"></path> <path d="M71.7471 229.765L62.1864 223.457L62.7232 222.644L72.2839 228.952L71.7471 229.765Z" fill="#1035F2"></path> <path d="M54.0327 207.991L54.8423 208.731L53.6994 210.162L58.737 214.765L52.696 221.377L51.7964 220.555L57.0977 214.753L53.5894 211.547L48.2881 217.35L47.3885 216.528L52.6898 210.725L52.0601 210.15L54.0327 207.991Z" fill="#1035F2"></path> <path d="M49.3231 207.212L45.5488 203.068L46.3145 202.371L50.9093 207.416L44.288 213.446L39.9394 208.672L40.66 208.016L44.1882 211.889L46.3232 209.945L43.4515 206.792L44.1722 206.135L47.0439 209.288L49.3231 207.212Z" fill="#1035F2"></path> <path d="M39.6987 202.42L36.6051 198.343L33.5766 200.641L32.84 199.67L39.9745 194.257L40.7111 195.227L37.4787 197.68L40.5724 201.757L43.8047 199.304L44.5413 200.275L37.4068 205.689L36.6702 204.718L39.6987 202.42Z" fill="#1035F2"></path> <path d="M33.4093 193.709L30.7067 189.363L27.4783 191.371L26.8348 190.336L34.4403 185.606L35.0837 186.641L31.638 188.784L34.3406 193.13L37.7863 190.987L38.4298 192.022L30.8243 196.751L30.1809 195.717L33.4093 193.709Z" fill="#1035F2"></path> <path d="M24.1588 182.716C25.0195 184.465 27.1191 185.062 28.617 184.325C30.3773 183.459 30.8162 181.314 30.0738 179.806C29.2024 178.034 27.0972 177.454 25.5993 178.191C23.8062 179.073 23.4326 181.24 24.1588 182.716ZM23.0655 183.254C21.9627 181.012 22.831 178.195 25.0614 177.098C27.3027 175.995 30.0644 177.026 31.1672 179.268C32.2645 181.498 31.3963 184.315 29.1549 185.418C26.9245 186.515 24.1628 185.484 23.0655 183.254Z" fill="#1035F2"></path> <path d="M19.5657 168.921L18.8858 169.33C18.8285 169.91 18.9537 170.527 19.1916 171.166C19.7776 172.742 21.637 173.897 23.4758 173.213C25.3146 172.53 25.9679 170.441 25.3818 168.865C24.9996 167.837 24.2043 167.131 23.3067 166.815L23.8161 165.703C25.0199 166.178 26.044 167.149 26.5239 168.44C27.3903 170.77 26.2418 173.485 23.9005 174.355C21.5592 175.226 18.9158 173.921 18.0495 171.591C17.6757 170.586 17.5788 169.556 17.8101 168.43L19.192 167.916L19.5657 168.921Z" fill="#1035F2"></path> <path d="M15.7654 160.519L23.3562 158.482L23.672 159.659L16.0812 161.696L16.9022 164.756L15.8431 165.04L13.8851 157.744L14.9443 157.459L15.7654 160.519Z" fill="#1035F2"></path> <path d="M13.1461 148.303L21.582 150.622L21.9705 152.88L13.1442 154.399L12.9375 153.198L20.7431 151.855L20.6956 151.579L12.2597 149.259L11.8712 147.002L20.6975 145.483L20.9041 146.684L13.0985 148.027L13.1461 148.303Z" fill="#1035F2"></path> <path d="M15.1899 137.939L15.0132 126.486L15.9879 126.471L16.1646 137.924L15.1899 137.939Z" fill="#1035F2"></path> <path d="M23.1952 111.036L23.0403 112.121L21.2137 111.984L20.2501 118.739L11.3838 117.474L11.5559 116.268L19.3365 117.378L20.0076 112.673L12.2269 111.563L12.399 110.357L20.1796 111.467L20.3001 110.623L23.1952 111.036Z" fill="#1035F2"></path> <path d="M21.1848 106.706L22.4813 101.253L23.489 101.492L21.9106 108.131L13.1975 106.059L14.6912 99.7762L15.6396 100.002L14.4277 105.099L17.2372 105.767L18.2237 101.618L19.1721 101.843L18.1856 105.993L21.1848 106.706Z" fill="#1035F2"></path> <path d="M19.7205 96.0542L21.3452 91.2012L17.7401 89.9943L18.1269 88.8388L26.6197 91.6819L26.2328 92.8374L22.3851 91.5493L20.7605 96.4023L24.6082 97.6904L24.2214 98.8459L15.7286 96.0028L16.1154 94.8473L19.7205 96.0542Z" fill="#1035F2"></path> <path d="M23.3724 85.9499L25.4397 81.2683L21.9619 79.7326L22.4542 78.6179L30.647 82.2357L30.1548 83.3504L26.4429 81.7113L24.3756 86.3929L28.0875 88.032L27.5953 89.1467L19.4024 85.5289L19.8946 84.4142L23.3724 85.9499Z" fill="#1035F2"></path> <path d="M27.2413 72.113C26.2812 73.8098 26.9715 75.8805 28.4244 76.7026C30.1318 77.6688 32.1505 76.823 32.9786 75.3595C33.9508 73.6415 33.2438 71.5754 31.7909 70.7532C30.0517 69.7691 28.0515 70.6813 27.2413 72.113ZM26.1808 71.5129C27.411 69.3389 30.2276 68.4685 32.391 69.6927C34.565 70.9229 35.2693 73.7856 34.0391 75.9596C32.8149 78.123 29.9983 78.9933 27.8243 77.7631C25.6609 76.5389 24.9566 73.6763 26.1808 71.5129Z" fill="#1035F2"></path> <path d="M36.0491 60.5454L35.3282 60.2141C34.8165 60.4938 34.3778 60.9446 33.9835 61.5015C33.0117 62.8738 33.1056 65.0605 34.7067 66.1943C36.3077 67.328 38.4015 66.6905 39.3733 65.3182C40.0071 64.4232 40.1416 63.3688 39.897 62.4491L41.103 62.243C41.3887 63.5054 41.1635 64.8987 40.3677 66.0224C38.9312 68.051 36.0411 68.6323 34.0025 67.1887C31.9639 65.7451 31.5525 62.826 32.9891 60.7973C33.6088 59.9222 34.405 59.2617 35.4655 58.8183L36.6688 59.6703L36.0491 60.5454Z" fill="#1035F2"></path> <path d="M40.8481 52.6714L46.8083 57.7944L46.014 58.7185L40.0538 53.5954L37.9887 55.998L37.157 55.2832L42.0815 49.554L42.9132 50.2688L40.8481 52.6714Z" fill="#1035F2"></path> <path d="M49.4642 43.6235L52.3019 51.8994L50.6558 53.4926L44.4273 47.0571L45.3028 46.2096L50.8111 51.9009L51.0125 51.706L48.1747 43.4301L49.8208 41.837L56.0494 48.2725L55.1738 49.1199L49.6656 43.4286L49.4642 43.6235Z" fill="#1035F2"></path> <path d="M59.1776 39.4717L68.5391 32.872L69.1008 33.6687L59.7392 40.2684L59.1776 39.4717Z" fill="#1035F2"></path> <path d="M85.9139 30.9243L84.9298 31.4082L84.014 29.8217L77.8905 32.8324L73.9389 24.7952L75.0324 24.2576L78.5001 31.3106L82.7647 29.2139L79.297 22.1609L80.3905 21.6233L83.8582 28.6763L84.6236 28.3L85.9139 30.9243Z" fill="#1035F2"></path> <path d="M88.3579 26.8237L93.5933 24.8218L93.9632 25.7893L87.5896 28.2264L84.391 19.861L90.4231 17.5545L90.7713 18.465L85.8773 20.3363L86.9087 23.0337L90.8922 21.5105L91.2403 22.4211L87.2568 23.9442L88.3579 26.8237Z" fill="#1035F2"></path> <path d="M96.332 19.6117L101.257 18.2191L100.222 14.5608L101.395 14.2292L103.832 22.8473L102.659 23.1789L101.555 19.2744L96.6304 20.667L97.7345 24.5715L96.562 24.9031L94.1249 16.285L95.2974 15.9534L96.332 19.6117Z" fill="#1035F2"></path> <path d="M106.737 16.9348L111.77 16.0044L111.078 12.266L112.277 12.0445L113.905 20.8513L112.707 21.0728L111.969 17.0828L106.936 18.0132L107.674 22.0032L106.476 22.2247L104.848 13.4179L106.046 13.1964L106.737 16.9348Z" fill="#1035F2"></path> <path d="M120.348 12.3335C118.405 12.4965 117.083 14.2336 117.223 15.8971C117.387 17.8521 119.223 19.0431 120.899 18.9025C122.866 18.7375 124.174 16.9892 124.035 15.3257C123.868 13.3344 121.987 12.196 120.348 12.3335ZM120.246 11.1192C122.735 10.9104 125.041 12.7468 125.249 15.2239C125.458 17.7131 123.49 19.908 121.001 20.1168C118.524 20.3246 116.218 18.4882 116.009 15.999C115.801 13.5219 117.769 11.327 120.246 11.1192Z" fill="#1035F2"></path> <path d="M134.867 13.0911L134.735 12.3088C134.215 12.0438 133.596 11.9354 132.913 11.9235C131.232 11.894 129.479 13.2038 129.444 15.1653C129.41 17.1268 131.116 18.4973 132.798 18.5268C133.894 18.546 134.841 18.0629 135.463 17.3426L136.313 18.2228C135.431 19.1701 134.153 19.7692 132.776 19.7451C130.291 19.7015 128.182 17.6415 128.226 15.1439C128.27 12.6464 130.449 10.6616 132.935 10.7051C134.007 10.7239 135.001 11.0095 135.965 11.6357L135.939 13.1099L134.867 13.0911Z" fill="#1035F2"></path> <path d="M144.077 12.6185L143.203 20.4292L141.992 20.2938L142.866 12.4831L139.717 12.131L139.839 11.0411L147.347 11.8808L147.225 12.9706L144.077 12.6185Z" fill="#1035F2"></path> <path d="M156.406 14.6377L151.169 21.6455L148.925 21.1834L150.731 12.4115L151.925 12.6573L150.327 20.4148L150.602 20.4713L155.839 13.4635L158.083 13.9255L156.277 22.6975L155.083 22.4517L156.681 14.6942L156.406 14.6377Z" fill="#1035F2"></path> <path d="M165.31 20.3223L176.037 24.337L175.696 25.2499L164.968 21.2353L165.31 20.3223Z" fill="#1035F2"></path> <path d="M187.437 37.5929L186.483 37.0525L187.277 35.402L181.339 32.0398L185.752 24.2464L186.813 24.8468L182.94 31.6859L187.075 34.0274L190.948 27.1883L192.008 27.7886L188.136 34.6278L188.878 35.0481L187.437 37.5929Z" fill="#1035F2"></path> <path d="M192.202 37.3012L196.806 40.4982L196.215 41.3489L190.61 37.457L195.719 30.1006L201.023 33.784L200.467 34.5847L196.163 31.5963L194.516 33.9683L198.019 36.4008L197.463 37.2015L193.96 34.769L192.202 37.3012Z" fill="#1035F2"></path> <path d="M202.653 39.8247L206.579 43.1082L209.018 40.1921L209.953 40.9739L204.207 47.8436L203.272 47.0618L205.875 43.9494L201.95 40.6659L199.346 43.7783L198.412 42.9965L204.158 36.1268L205.092 36.9086L202.653 39.8247Z" fill="#1035F2"></path> <path d="M210.728 46.9117L214.333 50.5448L217.032 47.8672L217.89 48.7322L211.532 55.0399L210.674 54.1749L213.554 51.3171L209.95 47.684L207.069 50.5418L206.211 49.6768L212.569 43.3691L213.427 44.2341L210.728 46.9117Z" fill="#1035F2"></path> <path d="M222.199 55.5629C220.97 54.0498 218.79 53.9369 217.494 54.9896C215.972 56.2267 216.023 58.4148 217.083 59.7199C218.328 61.2519 220.509 61.3477 221.805 60.295C223.356 59.0348 223.237 56.8396 222.199 55.5629ZM223.145 54.7945C224.72 56.7332 224.503 59.6731 222.573 61.2407C220.635 62.8159 217.713 62.427 216.137 60.4883C214.57 58.5591 214.787 55.6191 216.726 54.0439C218.655 52.4764 221.577 52.8653 223.145 54.7945Z" fill="#1035F2"></path> <path d="M229.755 67.9844L230.327 67.4341C230.253 66.8557 229.993 66.2827 229.619 65.7124C228.696 64.3068 226.626 63.5963 224.986 64.6733C223.346 65.7502 223.176 67.9322 224.099 69.3378C224.701 70.2544 225.633 70.7644 226.579 70.8723L226.331 72.0704C225.051 71.8757 223.836 71.1576 223.08 70.0067C221.716 67.9289 222.229 65.026 224.317 63.6548C226.405 62.2835 229.273 62.9657 230.637 65.0435C231.226 65.9398 231.55 66.9221 231.576 68.0713L230.344 68.8807L229.755 67.9844Z" fill="#1035F2"></path> <path d="M235.335 75.3259L228.39 79.0058L227.82 77.9291L234.765 74.2492L233.281 71.4498L234.25 70.9364L237.787 77.6119L236.818 78.1254L235.335 75.3259Z" fill="#1035F2"></path> <path d="M240.615 86.6495L231.874 86.2716L230.992 84.1577L239.256 80.707L239.726 81.8314L232.417 84.883L232.525 85.1417L241.266 85.5196L242.148 87.6335L233.884 91.0842L233.414 89.9598L240.723 86.9081L240.615 86.6495Z" fill="#1035F2"></path> <path d="M240.936 97.208L243.665 108.332L242.718 108.564L239.989 97.4402L240.936 97.208Z" fill="#1035F2"></path> <g filter="url(#filter0_f_1_736)"> <ellipse cx="200.214" cy="166.5" rx="148.214" ry="124.5" fill="white"></ellipse> </g> <defs> <filter id="filter0_f_1_736" x="24.8471" y="14.8471" width="350.734" height="303.306" filterUnits="userSpaceOnUse" color-interpolation-filters="sRGB"> <feFlood flood-opacity="0" result="BackgroundImageFix"></feFlood> <feBlend mode="normal" in="SourceGraphic" in2="BackgroundImageFix" result="shape"></feBlend> <feGaussianBlur stdDeviation="13.5764" result="effect1_foregroundBlur_1_736"></feGaussianBlur> </filter> </defs> </svg> 