<?xml version="1.0" encoding="UTF-8"?> <svg xmlns="http://www.w3.org/2000/svg" width="320" height="41" viewBox="0 0 320 41" fill="none"><path d="M0.833333 3.5C0.833333 4.97276 2.02724 6.16667 3.5 6.16667C4.97276 6.16667 6.16667 4.97276 6.16667 3.5C6.16667 2.02724 4.97276 0.833333 3.5 0.833333C2.02724 0.833333 0.833333 2.02724 0.833333 3.5ZM185 3.5L185.354 3.14645L185.207 3H185V3.5ZM219.5 38L219.146 38.3536L219.293 38.5H219.5V38ZM313.833 38C313.833 39.4728 315.027 40.6667 316.5 40.6667C317.973 40.6667 319.167 39.4728 319.167 38C319.167 36.5272 317.973 35.3333 316.5 35.3333C315.027 35.3333 313.833 36.5272 313.833 38ZM3.5 4H185V3H3.5V4ZM184.646 3.85355L219.146 38.3536L219.854 37.6464L185.354 3.14645L184.646 3.85355ZM219.5 38.5H316.5V37.5H219.5V38.5Z" fill="#013EDF"></path></svg> 