<?xml version="1.0" encoding="UTF-8"?> <svg xmlns="http://www.w3.org/2000/svg" width="641" height="126" viewBox="0 0 641 126" fill="none"><path d="M402.018 3C402.018 4.47276 403.212 5.66667 404.685 5.66667C406.157 5.66667 407.351 4.47276 407.351 3C407.351 1.52724 406.157 0.333333 404.685 0.333333C403.212 0.333333 402.018 1.52724 402.018 3ZM640 3H640.5V2.5H640V3ZM640 96.2143L640.349 96.5723L640.5 96.4251V96.2143H640ZM612.522 123V123.5H612.725L612.871 123.358L612.522 123ZM0.333333 123C0.333333 124.473 1.52724 125.667 3 125.667C4.47276 125.667 5.66667 124.473 5.66667 123C5.66667 121.527 4.47276 120.333 3 120.333C1.52724 120.333 0.333333 121.527 0.333333 123ZM404.685 3.5H640V2.5H404.685V3.5ZM639.5 3V96.2143H640.5V3H639.5ZM639.651 95.8562L612.173 122.642L612.871 123.358L640.349 96.5723L639.651 95.8562ZM612.522 122.5H3V123.5H612.522V122.5Z" fill="#013EDF"></path></svg> 