<?xml version="1.0" encoding="UTF-8"?> <svg xmlns="http://www.w3.org/2000/svg" width="469" height="159" viewBox="0 0 469 159" fill="none"><path d="M60.3333 3C60.3333 4.47276 61.5272 5.66667 63 5.66667C64.4728 5.66667 65.6667 4.47276 65.6667 3C65.6667 1.52724 64.4728 0.333333 63 0.333333C61.5272 0.333333 60.3333 1.52724 60.3333 3ZM21.5 3V2.5H21.3112L21.1695 2.62482L21.5 3ZM0.5 21.5L0.169485 21.1248L0 21.2741V21.5H0.5ZM0.5 158H0V158.5H0.5V158ZM410 158V158.5H410.207L410.354 158.354L410 158ZM448.5 119.5L448.854 119.854L449 119.707V119.5H448.5ZM448.5 61.5V61H448V61.5H448.5ZM463.333 61.5C463.333 62.9728 464.527 64.1667 466 64.1667C467.473 64.1667 468.667 62.9728 468.667 61.5C468.667 60.0272 467.473 58.8333 466 58.8333C464.527 58.8333 463.333 60.0272 463.333 61.5ZM63 2.5H21.5V3.5H63V2.5ZM21.1695 2.62482L0.169485 21.1248L0.830515 21.8752L21.8305 3.37518L21.1695 2.62482ZM0 21.5V158H1V21.5H0ZM0.5 158.5H410V157.5H0.5V158.5ZM410.354 158.354L448.854 119.854L448.146 119.146L409.646 157.646L410.354 158.354ZM449 119.5V61.5H448V119.5H449ZM448.5 62H466V61H448.5V62Z" fill="#013EDF"></path></svg> 