<?xml version="1.0" encoding="UTF-8"?> <svg xmlns="http://www.w3.org/2000/svg" width="268" height="107" viewBox="0 0 268 107" fill="none"><path d="M261.833 3.5C261.833 4.97276 263.027 6.16667 264.5 6.16667C265.973 6.16667 267.167 4.97276 267.167 3.5C267.167 2.02724 265.973 0.833333 264.5 0.833333C263.027 0.833333 261.833 2.02724 261.833 3.5ZM20.5 3.5V3H20.2785L20.1296 3.16409L20.5 3.5ZM1 25L0.62964 24.6641L0.5 24.807V25H1ZM1 103.5H0.5V104H1V103.5ZM122.833 103.5C122.833 104.973 124.027 106.167 125.5 106.167C126.973 106.167 128.167 104.973 128.167 103.5C128.167 102.027 126.973 100.833 125.5 100.833C124.027 100.833 122.833 102.027 122.833 103.5ZM264.5 3H20.5V4H264.5V3ZM20.1296 3.16409L0.62964 24.6641L1.37036 25.3359L20.8704 3.83591L20.1296 3.16409ZM0.5 25V103.5H1.5V25H0.5ZM1 104H125.5V103H1V104Z" fill="#013EDF"></path></svg> 