<?xml version="1.0" encoding="UTF-8"?> <svg xmlns="http://www.w3.org/2000/svg" width="338" height="352" viewBox="0 0 338 352" fill="none"> <path d="M12.0138 95.7069L10.3691 95.2435C9.37444 96.01 8.59224 97.116 7.9399 98.4328C6.33236 101.678 7.26476 106.298 11.0505 108.174C14.8363 110.049 19.0769 107.991 20.6845 104.746C21.7329 102.63 21.6658 100.342 20.8374 98.4674L23.3339 97.625C24.3645 100.215 24.3522 103.254 23.0359 105.911C20.6595 110.708 14.706 112.913 9.88563 110.525C5.06526 108.137 3.21214 102.065 5.5885 97.2679C6.6136 95.1987 8.08611 93.5268 10.1937 92.2281L13.0389 93.6376L12.0138 95.7069Z" fill="#1035F2"></path> <path d="M28.9711 94.6434L13.0758 83.7191L22.2908 70.3108L38.1862 81.2351L36.6999 83.3977L22.7509 73.8111L16.5085 82.8942L30.4574 92.4808L28.9711 94.6434Z" fill="#1035F2"></path> <path d="M35.7052 58.5811C32.8437 61.6536 33.2515 66.3366 35.8823 68.7867C38.9739 71.6661 43.6259 70.9066 46.0939 68.2566C48.9912 65.1458 48.5463 60.4641 45.9155 58.014C42.7662 55.0809 38.1196 55.9887 35.7052 58.5811ZM33.7849 56.7927C37.4512 52.8561 43.7866 52.4452 47.704 56.0937C51.6405 59.76 51.6805 66.1085 48.0142 70.0451C44.3658 73.9625 38.0304 74.3733 34.0938 70.707C30.1765 67.0586 30.1365 60.71 33.7849 56.7927Z" fill="#1035F2"></path> <path d="M58.3618 59.5492L46.2945 44.5032L53.0294 39.1017C55.9157 36.7867 60.1211 37.2487 62.436 40.1351C64.7345 43.001 64.289 47.2268 61.4026 49.5418L56.7148 53.3015L60.4089 57.9074L58.3618 59.5492ZM54.5891 41.0464L49.9013 44.8062L55.1551 51.3568L59.8429 47.597C61.5215 46.2508 61.7516 43.476 60.3889 41.7769C59.0098 40.0574 56.2881 39.6837 54.5891 41.0464Z" fill="#1035F2"></path> <path d="M73.9422 27.5672L82.6555 42.0776L80.4058 43.4285L71.6925 28.9181L65.8433 32.4305L64.6275 30.4057L78.5755 22.0301L79.7913 24.0548L73.9422 27.5672Z" fill="#1035F2"></path> <path d="M99.0383 22.339L122.513 14.7625L123.158 16.7604L99.6831 24.3368L99.0383 22.339Z" fill="#1035F2"></path> <path d="M151.432 18.4692L150.489 1.56985L153.109 1.42365L154.052 18.323L162.436 17.8551L161.493 0.955793L164.113 0.809589L165.188 20.067L140.559 21.4413L139.485 2.18391L142.105 2.0377L143.048 18.937L151.432 18.4692Z" fill="#1035F2"></path> <path d="M181.89 4.96574C177.721 4.46946 174.182 7.56287 173.757 11.1327C173.257 15.3279 176.616 18.6347 180.212 19.0627C184.434 19.5652 187.95 16.4426 188.375 12.8728C188.884 8.5994 185.408 5.38447 181.89 4.96574ZM182.2 2.36001C187.542 2.99586 191.613 7.86728 190.981 13.183C190.345 18.5247 185.244 22.3043 179.902 21.6685C174.586 21.0357 170.515 16.1643 171.151 10.8225C171.784 5.50685 176.885 1.72725 182.2 2.36001Z" fill="#1035F2"></path> <path d="M202.134 25.9709L201.122 25.6948L198.956 24.5602L199.508 22.5349L202.825 23.4393C203.23 23.5497 203.89 23.3219 204.233 22.7626L205.478 20.7901L202.187 19.8927C200.415 19.4094 199.662 17.9802 199.612 16.4704L199.305 5.12626L201.837 5.81663L202.095 16.4404C202.116 16.9628 202.479 17.5244 202.96 17.6556L206.783 18.698L212.926 8.84045L215.457 9.53082L206.047 24.5899C205.23 25.8903 203.502 26.3437 202.134 25.9709Z" fill="#1035F2"></path> <path d="M218.972 20.7454L227.08 24.0021L226.298 25.9501L218.189 22.6935L218.972 20.7454Z" fill="#1035F2"></path> <path d="M228.449 35.4124L237.608 18.4383L249.663 24.9429L248.542 27.0213L238.796 21.7629L236.154 26.6588L242.413 30.0357C245.092 31.4811 246.016 34.9618 244.571 37.6407C243.125 40.3196 239.696 41.4808 237.017 40.0354L228.449 35.4124ZM235.033 28.7372L231.88 34.58L238.139 37.9569C239.547 38.717 241.501 37.8034 242.262 36.3946C243.022 34.9859 242.7 32.8742 241.291 32.1141L235.033 28.7372Z" fill="#1035F2"></path> <path d="M267.097 39.4304L250.568 48.4745L246.586 45.5625L257.971 29.9937L260.089 31.5426L250.021 45.311L250.508 45.6672L267.037 36.6231L271.019 39.5351L259.634 55.104L257.516 53.555L267.584 39.7866L267.097 39.4304Z" fill="#1035F2"></path> <path d="M283.048 50.2413C285.366 52.4868 287.72 56.9215 285.11 59.6171C283.886 60.88 281.583 60.7314 280.646 60.1525C281.319 61.6078 281.658 64.2376 279.869 66.0849C277.349 68.6863 272.575 67.2039 269.634 64.3561C267.033 61.8368 265.819 59.054 265.588 56.1998L268.288 55.6369C268.345 58.03 269.311 60.3899 271.441 62.4528C273.967 64.899 276.663 65.2084 277.776 64.0586C279.401 62.3809 278.567 60.1487 276.456 58.1041L274.703 56.4063L276.528 54.5213L278.319 56.2556C279.639 57.5335 281.611 59.0422 283.017 57.5907C284.039 56.5351 283.107 53.9519 281.222 52.1264C280.091 51.031 278.683 49.9958 277.246 49.4807L276.125 50.2224L274.467 48.6159L276.493 46.5235C278.914 47.0414 281.389 48.6348 283.048 50.2413Z" fill="#1035F2"></path> <path d="M289.211 68.875L295.999 77.5585L302.449 72.5165L304.065 74.584L288.869 86.4617L287.253 84.3942L294.138 79.0129L287.351 70.3294L280.466 75.7108L278.85 73.6433L294.046 61.7656L295.662 63.8331L289.211 68.875Z" fill="#1035F2"></path> <path d="M295.119 92.0886L301.218 102.506L299.293 103.633L291.868 90.9509L308.513 81.2066L315.54 93.209L313.728 94.2696L308.027 84.5318L302.66 87.6739L307.3 95.6L305.489 96.6606L300.848 88.7345L295.119 92.0886Z" fill="#1035F2"></path> <path d="M320.315 115.747L321.745 114.813C321.822 113.559 321.504 112.243 320.941 110.885C319.554 107.54 315.46 105.203 311.557 106.822C307.655 108.44 306.415 112.987 307.802 116.333C308.707 118.514 310.475 119.969 312.432 120.578L311.424 123.012C308.796 122.085 306.514 120.077 305.378 117.338C303.328 112.393 305.583 106.458 310.552 104.398C315.522 102.337 321.314 104.935 323.365 109.88C324.249 112.013 324.54 114.222 324.132 116.664L321.199 117.88L320.315 115.747Z" fill="#1035F2"></path> <path d="M322.747 137.139L326.683 161.49L324.611 161.825L320.674 137.474L322.747 137.139Z" fill="#1035F2"></path> <path d="M318.584 193.54L316.228 193.382L316.089 191.531C316.183 190.117 317.107 188.891 318.673 188.286L321.32 187.253C321.992 187.035 322.386 186.641 322.441 186.224L322.767 181.354L316.876 180.959L317.051 178.341L336.295 179.63L335.718 188.244C335.471 191.936 332.286 194.721 328.594 194.473C325.714 194.28 323.352 192.255 322.607 189.627L319.802 190.676C319.128 190.92 318.735 191.288 318.707 191.707L318.584 193.54ZM333.231 188.077L333.633 182.082L325.254 181.52L324.853 187.516C324.709 189.663 326.597 191.709 328.77 191.855C330.969 192.002 333.085 190.251 333.231 188.077Z" fill="#1035F2"></path> <path d="M316.969 202.066L314.595 213.901L312.408 213.463L315.298 199.054L334.208 202.847L331.474 216.483L329.415 216.07L331.634 205.007L325.536 203.784L323.73 212.789L321.672 212.376L323.478 203.371L316.969 202.066Z" fill="#1035F2"></path> <path d="M324.123 232.698L308.112 227.208L308.963 224.726L324.974 230.215L327.187 223.762L329.421 224.528L324.144 239.918L321.91 239.152L324.123 232.698Z" fill="#1035F2"></path> <path d="M306.71 244.628L302.73 240.826L303.924 238.489L318.471 252.407L315.605 258.015L295.803 254.378L296.998 252.041L302.411 253.04L306.71 244.628ZM315.496 253.038L308.491 246.334L304.836 253.484L314.374 255.235L315.496 253.038Z" fill="#1035F2"></path> <path d="M307.524 271.579L291.33 261.102L292.756 258.899L308.949 269.376L307.524 271.579Z" fill="#1035F2"></path> <path d="M288.472 269.436L281.349 278.523L279.49 277.066L288.232 265.914L303.412 277.813L301.793 279.878L288.472 269.436Z" fill="#1035F2"></path> <path d="M275.525 296.108L256.391 311.675L255.066 310.047L274.2 294.48L275.525 296.108Z" fill="#1035F2"></path> <path d="M235.602 314.886L224.778 320.229L223.791 318.229L236.968 311.724L245.505 329.019L233.034 335.175L232.105 333.293L242.223 328.298L239.47 322.721L231.235 326.787L230.305 324.904L238.541 320.839L235.602 314.886Z" fill="#1035F2"></path> <path d="M206.866 326.717L212.308 342.882L209.821 343.72L203.667 325.44L208.342 323.866L221.37 337.478L221.942 337.285L216.5 321.12L218.987 320.283L225.141 338.562L220.465 340.136L207.438 326.525L206.866 326.717Z" fill="#1035F2"></path> <path d="M192.468 345.178L189.325 328.547L191.903 328.06L195.046 344.691L201.75 343.424L202.189 345.745L186.202 348.766L185.764 346.445L192.468 345.178Z" fill="#1035F2"></path> <path d="M174.929 332.775L162.876 333.431L162.755 331.204L177.428 330.405L178.476 349.664L164.589 350.42L164.475 348.323L175.742 347.71L175.404 341.5L166.233 341.999L166.119 339.903L175.29 339.404L174.929 332.775Z" fill="#1035F2"></path> <path d="M142.314 332.564L142.495 330.209L144.347 330.088C145.759 330.197 146.977 331.133 147.567 332.704L148.574 335.361C148.785 336.035 149.176 336.434 149.592 336.492L154.459 336.866L154.911 330.979L157.527 331.18L156.05 350.41L147.442 349.749C143.753 349.466 141 346.254 141.283 342.565C141.504 339.687 143.553 337.344 146.187 336.625L145.166 333.81C144.929 333.133 144.564 332.737 144.146 332.705L142.314 332.564ZM147.633 347.264L153.625 347.724L154.268 339.351L148.276 338.891C146.131 338.726 144.066 340.594 143.899 342.766C143.731 344.964 145.462 347.097 147.633 347.264Z" fill="#1035F2"></path> <path d="M124.294 343.873L127.853 327.326L130.418 327.878L126.859 344.425L133.529 345.859L133.033 348.168L117.127 344.747L117.624 342.438L124.294 343.873Z" fill="#1035F2"></path> <path d="M110.389 327.993L113.694 323.591L116.155 324.501L104.054 340.591L98.1467 338.408L99.4179 318.315L101.879 319.225L101.528 324.718L110.389 327.993ZM103.076 337.711L108.905 329.962L101.374 327.179L100.762 336.856L103.076 337.711Z" fill="#1035F2"></path> <path d="M83.7231 331.987L92.2122 314.668L94.5685 315.823L86.0793 333.142L83.7231 331.987Z" fill="#1035F2"></path> <path d="M74.3575 306.994L65.3939 321.505L63.1613 320.126L73.2971 303.717L77.4944 306.31L75.34 325.027L75.8535 325.344L84.8172 310.833L87.0497 312.212L76.9139 328.621L72.7167 326.029L74.871 307.311L74.3575 306.994Z" fill="#1035F2"></path> <path d="M55.4322 301.52L45.4709 306.161L41.8414 303.097L54.2823 288.358L56.2876 290.051L45.2854 303.085L45.4859 303.254L55.4271 298.597L58.4952 301.186L55.5923 311.785L55.7728 311.938L66.775 298.904L68.7802 300.596L56.3393 315.335L52.7098 312.271L55.6327 301.689L55.4322 301.52Z" fill="#1035F2"></path> <path d="M47.1656 284.075L39.1378 275.06L40.8035 273.577L50.5765 284.551L36.1729 297.378L26.9234 286.992L28.4911 285.596L35.9954 294.022L40.6399 289.886L34.5317 283.027L36.0995 281.631L42.2076 288.49L47.1656 284.075Z" fill="#1035F2"></path> <path d="M28.1223 259.516L13.9849 269.059L12.5168 266.884L28.5029 256.093L31.263 260.182L21.6035 276.359L21.9412 276.859L36.0786 267.316L37.5467 269.491L21.5606 280.282L18.8005 276.193L28.46 260.016L28.1223 259.516Z" fill="#1035F2"></path> <path d="M6.49851 250.542L21.6963 243.092L22.8514 245.449L7.65355 252.899L10.6567 259.025L8.53604 260.064L1.37477 245.456L3.4954 244.416L6.49851 250.542Z" fill="#1035F2"></path> </svg> 