<?xml version="1.0" encoding="UTF-8"?> <svg xmlns="http://www.w3.org/2000/svg" width="985" height="990" viewBox="0 0 985 990" fill="none"> <path d="M105.347 571.196C101.726 567.544 97.4203 564.647 92.6788 562.669C87.9373 560.692 82.8532 559.674 77.7184 559.674C72.5836 559.674 67.4994 560.692 62.758 562.669C58.0165 564.647 53.7112 567.544 50.0894 571.196C44.6577 576.672 40.9648 583.64 39.4765 591.219C37.9883 598.799 38.7715 606.651 41.7272 613.785C44.6829 620.919 49.6788 627.014 56.0842 631.302C62.4897 635.59 70.0178 637.879 77.7184 637.879C85.419 637.879 92.9471 635.59 99.3525 631.302C105.758 627.014 110.754 620.919 113.71 613.785C116.665 606.651 117.448 598.799 115.96 591.219C114.472 583.64 110.779 576.672 105.347 571.196Z" fill="url(#paint0_linear_24_161)" fill-opacity="0.2"></path> <path d="M907.081 391.77C912.526 397.254 919.471 400.994 927.036 402.515C934.601 404.037 942.446 403.271 949.577 400.316C956.708 397.361 962.804 392.35 967.094 385.916C971.384 379.482 973.674 371.916 973.674 364.176C973.674 356.436 971.384 348.869 967.094 342.436C962.804 336.002 956.708 330.99 949.577 328.035C942.446 325.08 934.601 324.315 927.036 325.837C919.471 327.358 912.526 331.098 907.081 336.582C903.449 340.194 900.566 344.492 898.598 349.228C896.631 353.965 895.618 359.045 895.618 364.176C895.618 369.307 896.631 374.387 898.598 379.123C900.566 383.86 903.449 388.158 907.081 391.77Z" fill="#7289FF" fill-opacity="0.2"></path> <path d="M230.663 260.356C234.291 256.732 237.172 252.427 239.142 247.686C241.112 242.945 242.132 237.862 242.143 232.726C242.155 227.589 241.158 222.501 239.209 217.752C237.26 213.002 234.398 208.684 230.786 205.044C227.174 201.404 222.883 198.513 218.157 196.537C213.431 194.561 208.364 193.538 203.244 193.526C198.124 193.515 193.053 194.515 188.318 196.47C183.584 198.425 179.28 201.296 175.651 204.92L11.3572 371.228C4.06224 378.579 -0.0230338 388.537 9.76974e-05 398.91C0.0232292 409.283 4.15288 419.222 11.4806 426.54C18.8082 433.859 28.7337 437.957 39.0734 437.934C49.4132 437.911 59.3203 433.768 66.6153 426.416L230.663 260.356Z" fill="url(#paint1_linear_24_161)" fill-opacity="0.2"></path> <path d="M285.924 410.087C296.189 410.058 306.029 405.967 313.306 398.703L643.868 66.8297C651.195 59.5113 655.325 49.5723 655.348 39.1992C655.371 28.8262 651.286 18.8688 643.991 11.5175C636.696 4.16625 626.789 0.0233039 616.449 9.80119e-05C606.109 -0.0231079 596.184 4.07532 588.856 11.3938L258.048 343.267C254.408 346.901 251.52 351.22 249.549 355.976C247.578 360.733 246.563 365.834 246.563 370.985C246.563 376.136 247.578 381.237 249.549 385.994C251.52 390.75 254.408 395.07 258.048 398.703C265.491 406.02 275.503 410.108 285.924 410.087Z" fill="url(#paint2_linear_24_161)" fill-opacity="0.2"></path> <path d="M809.148 66.8275C805.548 63.1835 801.263 60.291 796.542 58.3171C791.821 56.3432 786.757 55.3269 781.643 55.3269C776.528 55.3269 771.464 56.3432 766.743 58.3171C762.022 60.291 757.738 63.1835 754.137 66.8275L93.0138 730.326C85.7818 737.728 81.731 747.68 81.731 758.044C81.731 768.409 85.7818 778.361 93.0138 785.762C96.6387 789.4 100.948 792.28 105.69 794.234C110.433 796.188 115.516 797.178 120.643 797.147C125.735 797.187 130.782 796.2 135.486 794.244C140.19 792.288 144.454 789.404 148.025 785.762L809.148 122.016C812.781 118.404 815.664 114.105 817.632 109.369C819.599 104.633 820.612 99.5528 820.612 94.4217C820.612 89.2907 819.599 84.2105 817.632 79.4743C815.664 74.7381 812.781 70.4398 809.148 66.8275Z" fill="url(#paint3_linear_24_161)" fill-opacity="0.2"></path> <path d="M919.171 177.451C915.571 173.807 911.286 170.915 906.565 168.941C901.844 166.967 896.78 165.951 891.666 165.951C886.551 165.951 881.487 166.967 876.766 168.941C872.045 170.915 867.761 173.807 864.16 177.451L203.283 841.445C199.644 845.079 196.755 849.398 194.784 854.155C192.813 858.912 191.799 864.012 191.799 869.163C191.799 874.315 192.813 879.415 194.784 884.172C196.755 888.929 199.644 893.248 203.283 896.881C210.588 904.181 220.479 908.279 230.789 908.279C241.099 908.279 250.99 904.181 258.295 896.881L919.171 232.64C922.804 229.027 925.687 224.729 927.654 219.993C929.622 215.257 930.635 210.177 930.635 205.046C930.635 199.915 929.622 194.834 927.654 190.098C925.687 185.362 922.804 181.064 919.171 177.451Z" fill="url(#paint4_linear_24_161)" fill-opacity="0.2"></path> <path d="M754.133 564.513C750.512 560.862 746.206 557.964 741.465 555.987C736.723 554.01 731.639 552.992 726.504 552.992C721.37 552.992 716.285 554.01 711.544 555.987C706.802 557.964 702.497 560.862 698.875 564.513L368.56 896.387C364.928 899.999 362.045 904.297 360.077 909.033C358.11 913.769 357.097 918.85 357.097 923.981C357.097 929.112 358.11 934.192 360.077 938.928C362.045 943.664 364.928 947.963 368.56 951.575C372.119 955.25 376.375 958.173 381.078 960.171C385.781 962.168 390.836 963.201 395.943 963.207C401.085 963.192 406.174 962.157 410.916 960.161C415.658 958.164 419.959 955.246 423.572 951.575L754.133 618.712C761.057 611.399 764.917 601.698 764.917 591.613C764.917 581.527 761.057 571.826 754.133 564.513Z" fill="url(#paint5_linear_24_161)" fill-opacity="0.2"></path> <path d="M973.441 564.513C969.819 560.862 965.514 557.964 960.772 555.987C956.031 554.01 950.947 552.992 945.812 552.992C940.677 552.992 935.593 554.01 930.851 555.987C926.11 557.964 921.805 560.862 918.183 564.513L697.891 785.762C694.246 789.467 691.365 793.856 689.411 798.678C687.457 803.5 686.469 808.661 686.504 813.866C686.538 819.071 687.594 824.219 689.611 829.015C691.628 833.81 694.568 838.16 698.261 841.817C701.954 845.473 706.328 848.364 711.135 850.324C715.942 852.284 721.086 853.275 726.275 853.24C731.463 853.206 736.594 852.147 741.374 850.123C746.155 848.099 750.491 845.15 754.135 841.445L973.441 618.712C980.364 611.399 984.225 601.698 984.225 591.613C984.225 581.527 980.364 571.826 973.441 564.513Z" fill="url(#paint6_linear_24_161)" fill-opacity="0.2"></path> <path d="M829.13 414.79C821.913 422.15 817.869 432.06 817.869 442.384C817.869 452.708 821.913 462.618 829.13 469.978C834.574 475.462 841.519 479.202 849.084 480.723C856.649 482.245 864.494 481.479 871.625 478.524C878.756 475.57 884.853 470.558 889.142 464.124C893.432 457.69 895.722 450.124 895.722 442.384C895.722 434.644 893.432 427.077 889.142 420.644C884.853 414.21 878.756 409.198 871.625 406.243C864.494 403.288 856.649 402.523 849.084 404.045C841.519 405.566 834.574 409.306 829.13 414.79Z" fill="#7289FF" fill-opacity="0.2"></path> <path d="M416.915 78.957C422.381 73.4947 426.109 66.5276 427.625 58.9383C429.142 51.349 428.379 43.4789 425.434 36.3248C422.488 29.1707 417.493 23.0546 411.079 18.7511C404.666 14.4476 397.125 12.1504 389.409 12.1504C381.694 12.1504 374.152 14.4476 367.739 18.7511C361.326 23.0546 356.33 29.1707 353.384 36.3248C350.439 43.4789 349.676 51.349 351.193 58.9383C352.709 66.5276 356.437 73.4947 361.903 78.957C365.504 82.601 369.789 85.4935 374.51 87.4674C379.231 89.4413 384.295 90.4576 389.409 90.4576C394.524 90.4576 399.588 89.4413 404.309 87.4674C409.03 85.4935 413.314 82.601 416.915 78.957Z" fill="url(#paint7_linear_24_161)" fill-opacity="0.2"></path> <path d="M556.535 923.117C551.069 928.579 547.341 935.547 545.825 943.136C544.308 950.725 545.071 958.595 548.016 965.749C550.962 972.903 555.957 979.02 562.37 983.323C568.784 987.627 576.325 989.924 584.041 989.924C591.756 989.924 599.298 987.627 605.711 983.323C612.124 979.02 617.12 972.903 620.065 965.749C623.011 958.595 623.774 950.725 622.257 943.136C620.741 935.547 617.013 928.579 611.547 923.117C604.242 915.818 594.351 911.719 584.041 911.719C573.731 911.719 563.84 915.818 556.535 923.117Z" fill="url(#paint8_linear_24_161)" fill-opacity="0.2"></path> <defs> <linearGradient id="paint0_linear_24_161" x1="119.617" y1="558.647" x2="77.886" y2="637.967" gradientUnits="userSpaceOnUse"> <stop stop-color="#7289FF"></stop> <stop offset="0.699569" stop-color="#1035F2" stop-opacity="0"></stop> </linearGradient> <linearGradient id="paint1_linear_24_161" x1="251.218" y1="190.317" x2="120.35" y2="437.552" gradientUnits="userSpaceOnUse"> <stop stop-color="#7289FF"></stop> <stop offset="0.699569" stop-color="#1035F2" stop-opacity="0"></stop> </linearGradient> <linearGradient id="paint2_linear_24_161" x1="670.669" y1="-5.3854" x2="451.846" y2="410.555" gradientUnits="userSpaceOnUse"> <stop stop-color="#7289FF"></stop> <stop offset="0.699569" stop-color="#1035F2" stop-opacity="0"></stop> </linearGradient> <linearGradient id="paint3_linear_24_161" x1="848.305" y1="45.5851" x2="452.291" y2="797.737" gradientUnits="userSpaceOnUse"> <stop stop-color="#7289FF"></stop> <stop offset="0.699569" stop-color="#1035F2" stop-opacity="0"></stop> </linearGradient> <linearGradient id="paint4_linear_24_161" x1="958.326" y1="156.202" x2="561.874" y2="908.625" gradientUnits="userSpaceOnUse"> <stop stop-color="#7289FF"></stop> <stop offset="0.699569" stop-color="#1035F2" stop-opacity="0"></stop> </linearGradient> <linearGradient id="paint5_linear_24_161" x1="780.202" y1="547.605" x2="560.98" y2="963.192" gradientUnits="userSpaceOnUse"> <stop stop-color="#7289FF"></stop> <stop offset="0.699569" stop-color="#1035F2" stop-opacity="0"></stop> </linearGradient> <linearGradient id="paint6_linear_24_161" x1="995.383" y1="549.049" x2="834.692" y2="852.886" gradientUnits="userSpaceOnUse"> <stop stop-color="#7289FF"></stop> <stop offset="0.699569" stop-color="#1035F2" stop-opacity="0"></stop> </linearGradient> <linearGradient id="paint7_linear_24_161" x1="431.307" y1="11.122" x2="389.491" y2="90.5006" gradientUnits="userSpaceOnUse"> <stop stop-color="#7289FF"></stop> <stop offset="0.699569" stop-color="#1035F2" stop-opacity="0"></stop> </linearGradient> <linearGradient id="paint8_linear_24_161" x1="625.939" y1="910.692" x2="584.209" y2="990.012" gradientUnits="userSpaceOnUse"> <stop stop-color="#7289FF"></stop> <stop offset="0.699569" stop-color="#1035F2" stop-opacity="0"></stop> </linearGradient> </defs> </svg> 