<?xml version="1.0" encoding="UTF-8"?> <svg xmlns="http://www.w3.org/2000/svg" width="144" height="40" viewBox="0 0 144 40" fill="none"> <path d="M4.25664 23.0803C4.1103 22.9327 3.93633 22.8157 3.74474 22.7358C3.55316 22.6559 3.34772 22.6147 3.14024 22.6147C2.93276 22.6147 2.72732 22.6559 2.53573 22.7358C2.34414 22.8157 2.17018 22.9327 2.02383 23.0803C1.80436 23.3016 1.65514 23.5831 1.595 23.8894C1.53487 24.1957 1.56651 24.5129 1.68594 24.8012C1.80537 25.0894 2.00724 25.3357 2.26607 25.509C2.52489 25.6823 2.82908 25.7747 3.14024 25.7747C3.4514 25.7747 3.75558 25.6823 4.01441 25.509C4.27324 25.3357 4.4751 25.0894 4.59453 24.8012C4.71397 24.5129 4.74561 24.1957 4.68548 23.8894C4.62534 23.5831 4.47612 23.3016 4.25664 23.0803Z" fill="#1035F2"></path> <path d="M36.6524 15.8303C36.8724 16.0519 37.153 16.203 37.4587 16.2644C37.7644 16.3259 38.0814 16.295 38.3695 16.1756C38.6577 16.0562 38.904 15.8537 39.0774 15.5937C39.2507 15.3337 39.3432 15.028 39.3432 14.7153C39.3432 14.4025 39.2507 14.0968 39.0774 13.8368C38.904 13.5768 38.6577 13.3743 38.3695 13.2549C38.0814 13.1355 37.7644 13.1046 37.4587 13.1661C37.153 13.2276 36.8724 13.3787 36.6524 13.6003C36.5057 13.7462 36.3892 13.9199 36.3096 14.1113C36.2301 14.3026 36.1892 14.5079 36.1892 14.7153C36.1892 14.9226 36.2301 15.1279 36.3096 15.3192C36.3892 15.5106 36.5057 15.6843 36.6524 15.8303Z" fill="#1035F2"></path> <path d="M9.32038 10.5202C9.46699 10.3738 9.58342 10.1998 9.66301 10.0083C9.74261 9.8167 9.78381 9.61129 9.78427 9.40375C9.78474 9.19621 9.74445 8.99061 9.66571 8.79869C9.58697 8.60677 9.47132 8.43229 9.32537 8.28521C9.17941 8.13813 9.00601 8.02133 8.81506 7.94148C8.62411 7.86163 8.41936 7.82029 8.21249 7.81983C8.00561 7.81936 7.80067 7.85978 7.60937 7.93878C7.41807 8.01777 7.24415 8.13379 7.09754 8.28021L0.458911 15.0002C0.164143 15.2973 -0.000930725 15.6996 3.94766e-06 16.1187C0.000938621 16.5379 0.167805 16.9395 0.463895 17.2352C0.759984 17.5309 1.16104 17.6965 1.57884 17.6956C1.99664 17.6947 2.39696 17.5273 2.69172 17.2302L9.32038 10.5202Z" fill="#1035F2"></path> <path d="M11.5532 16.5704C11.968 16.5692 12.3656 16.4039 12.6596 16.1104L26.0166 2.70039C26.3127 2.40467 26.4796 2.00307 26.4805 1.58392C26.4815 1.16478 26.3164 0.76243 26.0216 0.465388C25.7269 0.168346 25.3265 0.000941642 24.9087 3.96037e-06C24.4909 -0.000933721 24.0899 0.164671 23.7938 0.460388L10.4268 13.8704C10.2797 14.0172 10.163 14.1917 10.0834 14.3839C10.0038 14.5761 9.96277 14.7822 9.96277 14.9904C9.96277 15.1985 10.0038 15.4046 10.0834 15.5968C10.163 15.789 10.2797 15.9636 10.4268 16.1104C10.7276 16.406 11.1321 16.5712 11.5532 16.5704Z" fill="#1035F2"></path> <path d="M32.6951 2.7003C32.5496 2.55306 32.3765 2.43618 32.1857 2.35642C31.995 2.27666 31.7904 2.2356 31.5837 2.2356C31.377 2.2356 31.1724 2.27666 30.9817 2.35642C30.7909 2.43618 30.6178 2.55306 30.4723 2.7003L3.75827 29.5103C3.46605 29.8094 3.30237 30.2115 3.30237 30.6303C3.30237 31.0491 3.46605 31.4512 3.75827 31.7503C3.90474 31.8973 4.07885 32.0136 4.2705 32.0926C4.46214 32.1716 4.6675 32.2116 4.87468 32.2103C5.08042 32.2119 5.28439 32.172 5.47446 32.093C5.66453 32.014 5.83683 31.8975 5.98112 31.7503L32.6951 4.9303C32.8419 4.78434 32.9584 4.61066 33.0379 4.41928C33.1174 4.22791 33.1583 4.02263 33.1583 3.8153C33.1583 3.60797 33.1174 3.40269 33.0379 3.21132C32.9584 3.01995 32.8419 2.84626 32.6951 2.7003Z" fill="#1035F2"></path> <path d="M37.1408 7.17027C36.9953 7.02303 36.8222 6.90615 36.6314 6.82639C36.4407 6.74663 36.2361 6.70557 36.0294 6.70557C35.8227 6.70557 35.6181 6.74663 35.4273 6.82639C35.2366 6.90615 35.0635 7.02303 34.918 7.17027L8.21393 34.0003C8.06686 34.1471 7.95015 34.3216 7.87051 34.5138C7.79087 34.706 7.74988 34.9121 7.74988 35.1203C7.74988 35.3284 7.79087 35.5345 7.87051 35.7267C7.95015 35.9189 8.06686 36.0935 8.21393 36.2403C8.50911 36.5352 8.90875 36.7008 9.32536 36.7008C9.74197 36.7008 10.1416 36.5352 10.4368 36.2403L37.1408 9.40027C37.2876 9.25431 37.4041 9.08063 37.4836 8.88925C37.5631 8.69788 37.604 8.4926 37.604 8.28527C37.604 8.07794 37.5631 7.87267 37.4836 7.68129C37.4041 7.48992 37.2876 7.31624 37.1408 7.17027Z" fill="#1035F2"></path> <path d="M30.4723 22.8103C30.3259 22.6627 30.1519 22.5456 29.9604 22.4657C29.7688 22.3859 29.5633 22.3447 29.3559 22.3447C29.1484 22.3447 28.9429 22.3859 28.7513 22.4657C28.5598 22.5456 28.3858 22.6627 28.2394 22.8103L14.8924 36.2203C14.7456 36.3662 14.6291 36.5399 14.5496 36.7313C14.4701 36.9227 14.4292 37.1279 14.4292 37.3353C14.4292 37.5426 14.4701 37.7479 14.5496 37.9393C14.6291 38.1306 14.7456 38.3043 14.8924 38.4503C15.0362 38.5988 15.2082 38.7169 15.3982 38.7976C15.5883 38.8783 15.7925 38.92 15.9989 38.9203C16.2066 38.9197 16.4123 38.8779 16.6039 38.7972C16.7955 38.7165 16.9693 38.5986 17.1153 38.4503L30.4723 25.0003C30.752 24.7048 30.908 24.3128 30.908 23.9053C30.908 23.4977 30.752 23.1058 30.4723 22.8103Z" fill="#1035F2"></path> <path d="M39.3337 22.8103C39.1874 22.6627 39.0134 22.5456 38.8218 22.4657C38.6303 22.3859 38.4248 22.3447 38.2173 22.3447C38.0099 22.3447 37.8044 22.3859 37.6128 22.4657C37.4212 22.5456 37.2473 22.6627 37.1009 22.8103L28.1996 31.7503C28.0523 31.9 27.9359 32.0773 27.857 32.2722C27.778 32.467 27.7381 32.6756 27.7395 32.8859C27.7409 33.0962 27.7835 33.3042 27.865 33.498C27.9466 33.6918 28.0653 33.8675 28.2145 34.0153C28.3638 34.163 28.5405 34.2798 28.7348 34.359C28.929 34.4382 29.1369 34.4783 29.3465 34.4769C29.5562 34.4755 29.7635 34.4327 29.9566 34.3509C30.1498 34.2691 30.325 34.15 30.4723 34.0003L39.3337 25.0003C39.6135 24.7048 39.7695 24.3128 39.7695 23.9053C39.7695 23.4977 39.6135 23.1058 39.3337 22.8103Z" fill="#1035F2"></path> <path d="M33.5025 16.7604C33.2109 17.0578 33.0475 17.4583 33.0475 17.8754C33.0475 18.2926 33.2109 18.693 33.5025 18.9904C33.7225 19.212 34.0031 19.3631 34.3088 19.4246C34.6145 19.4861 34.9315 19.4551 35.2196 19.3357C35.5078 19.2163 35.7541 19.0138 35.9274 18.7539C36.1008 18.4939 36.1933 18.1882 36.1933 17.8754C36.1933 17.5626 36.1008 17.2569 35.9274 16.997C35.7541 16.737 35.5078 16.5345 35.2196 16.4151C34.9315 16.2957 34.6145 16.2648 34.3088 16.3262C34.0031 16.3877 33.7225 16.5388 33.5025 16.7604Z" fill="#1035F2"></path> <path d="M16.8461 3.19042C17.067 2.9697 17.2176 2.68819 17.2789 2.38153C17.3402 2.07486 17.3094 1.75686 17.1904 1.46778C17.0713 1.17871 16.8695 0.931573 16.6104 0.757682C16.3512 0.583791 16.0465 0.490967 15.7347 0.490967C15.423 0.490967 15.1182 0.583791 14.8591 0.757682C14.6 0.931573 14.3981 1.17871 14.2791 1.46778C14.1601 1.75686 14.1292 2.07486 14.1905 2.38153C14.2518 2.68819 14.4024 2.9697 14.6233 3.19042C14.7688 3.33766 14.9419 3.45454 15.1327 3.5343C15.3234 3.61406 15.5281 3.65513 15.7347 3.65513C15.9414 3.65513 16.146 3.61406 16.3368 3.5343C16.5275 3.45454 16.7006 3.33766 16.8461 3.19042Z" fill="#1035F2"></path> <path d="M22.488 37.3004C22.2671 37.5211 22.1165 37.8026 22.0552 38.1093C21.9939 38.4159 22.0247 38.734 22.1438 39.023C22.2628 39.3121 22.4646 39.5592 22.7238 39.7331C22.9829 39.907 23.2876 39.9998 23.5994 39.9998C23.9112 39.9998 24.2159 39.907 24.475 39.7331C24.7342 39.5592 24.936 39.3121 25.0551 39.023C25.1741 38.734 25.2049 38.4159 25.1436 38.1093C25.0823 37.8026 24.9317 37.5211 24.7108 37.3004C24.4157 37.0054 24.016 36.8398 23.5994 36.8398C23.1828 36.8398 22.7832 37.0054 22.488 37.3004Z" fill="#1035F2"></path> <path d="M53.7574 12.6305H49.3017V25.7505H53.7574C54.6433 25.797 55.5297 25.6663 56.3648 25.3658C57.1999 25.0654 57.9671 24.6013 58.6217 24.0005C59.24 23.365 59.7197 22.6074 60.0303 21.7759C60.3409 20.9444 60.4756 20.0571 60.4259 19.1705C60.4757 18.2884 60.3409 17.4056 60.0302 16.5789C59.7195 15.7522 59.2397 15 58.6217 14.3705C57.9651 13.7734 57.1973 13.3122 56.3626 13.0136C55.5278 12.715 54.6424 12.5848 53.7574 12.6305ZM56.8175 22.5305C56.393 22.9327 55.8912 23.244 55.3428 23.4451C54.7943 23.6463 54.2108 23.7332 53.6278 23.7005H51.6342V14.7005H53.6278C54.21 14.6693 54.7924 14.7579 55.3392 14.9608C55.886 15.1638 56.3857 15.4767 56.8075 15.8805C57.2145 16.3247 57.5277 16.847 57.7281 17.4158C57.9286 17.9847 58.0121 18.5884 57.9738 19.1905C58.0102 19.7962 57.9267 20.4032 57.7283 20.9764C57.5298 21.5496 57.2203 22.0778 56.8175 22.5305Z" fill="#1B262C"></path> <path d="M64.5925 16.3303H62.25V25.7503H64.5925V16.3303Z" fill="#1B262C"></path> <path d="M64.5925 12.6304H62.25V14.7204H64.5925V12.6304Z" fill="#1B262C"></path> <path d="M73.3543 17.0903C73.3384 17.1729 73.3384 17.2577 73.3543 17.3403H73.2945C72.9679 16.9186 72.5417 16.5852 72.0543 16.3704C71.567 16.1557 71.0339 16.0662 70.5034 16.1103C69.927 16.0792 69.3513 16.1832 68.8219 16.4141C68.2924 16.6449 67.8239 16.9963 67.4533 17.4403C66.6921 18.389 66.3022 19.5837 66.3568 20.8003C66.3126 22.031 66.7086 23.2369 67.4732 24.2003C67.8469 24.651 68.3193 25.0091 68.8535 25.2467C69.3877 25.4843 69.9694 25.5951 70.5533 25.5703C71.0747 25.6036 71.5957 25.4992 72.0644 25.2676C72.5331 25.036 72.9331 24.6853 73.2247 24.2503V24.7503V25.3503C73.2526 25.6773 73.2 26.0061 73.0713 26.3078C72.9427 26.6095 72.742 26.8748 72.4871 27.0803C71.9283 27.474 71.2553 27.6709 70.5732 27.6403C69.6744 27.637 68.7881 27.4284 67.9816 27.0303L67.2439 28.8203C68.2779 29.3599 69.4277 29.6379 70.5932 29.6303C71.2068 29.6356 71.8179 29.5514 72.4073 29.3803C72.9719 29.2195 73.5046 28.9624 73.9822 28.6203C74.4775 28.2666 74.8697 27.7868 75.1186 27.2303C75.409 26.6043 75.5554 25.9208 75.5472 25.2303V16.3303H73.3543V17.0903ZM72.6665 22.9403C72.4455 23.1577 72.1824 23.3274 71.8934 23.4387C71.6045 23.55 71.2958 23.6007 70.9865 23.5876C70.6773 23.5745 70.374 23.4978 70.0955 23.3624C69.8169 23.227 69.569 23.0357 69.3671 22.8003C68.9347 22.1998 68.7169 21.4704 68.7491 20.7303C68.7165 20.0427 68.9206 19.3648 69.3272 18.8103C69.5262 18.5729 69.7774 18.3852 70.0612 18.2619C70.3449 18.1387 70.6533 18.0834 70.962 18.1003C72.507 18.1003 73.2845 19.0103 73.2845 20.8203C73.3547 21.5801 73.1337 22.3382 72.6665 22.9403Z" fill="#1B262C"></path> <path d="M80.2321 12.6304H77.8896V14.7204H80.2321V12.6304Z" fill="#1B262C"></path> <path d="M80.2321 16.3303H77.8896V25.7503H80.2321V16.3303Z" fill="#1B262C"></path> <path d="M85.9238 23.4003C85.7175 23.2348 85.5563 23.0197 85.4552 22.7749C85.3541 22.5301 85.3164 22.2636 85.3457 22.0003V18.3203H87.4788V16.4603H85.3457V13.7603H83.063V16.4603H81.7871V18.3203H83.0032V22.3203C82.9921 22.8611 83.0904 23.3986 83.2923 23.9003C83.4493 24.2807 83.6875 24.622 83.99 24.9003C84.2848 25.1521 84.6225 25.3486 84.9868 25.4803C85.3067 25.6156 85.6412 25.713 85.9836 25.7703C86.2876 25.8111 86.594 25.8312 86.9007 25.8303C87.0103 25.8303 87.2495 25.8303 87.6183 25.7803V23.7403C87.479 23.7517 87.339 23.7517 87.1997 23.7403C86.7506 23.7525 86.3076 23.6345 85.9238 23.4003Z" fill="#1B262C"></path> <path d="M92.8216 16.1104C92.1433 16.1172 91.4704 16.232 90.828 16.4504C90.24 16.627 89.6869 16.9044 89.1933 17.2704L90.0106 19.0004C90.7698 18.4412 91.6808 18.1273 92.6222 18.1004C93.7984 18.1004 94.3865 18.6504 94.3865 19.7604V19.8904H93.9878C93.3972 19.8867 92.8072 19.9302 92.2235 20.0204C91.6352 20.1127 91.0576 20.2634 90.4991 20.4704C89.9333 20.6611 89.4324 21.0076 89.0537 21.4704C88.6861 21.9588 88.4961 22.5587 88.5154 23.1704C88.5108 23.5483 88.5877 23.9226 88.7408 24.2678C88.894 24.6131 89.1197 24.921 89.4026 25.1704C90.0151 25.6954 90.8002 25.9734 91.6055 25.9504C92.2159 25.9583 92.8164 25.7955 93.3399 25.4804C93.8517 25.1854 94.2777 24.7614 94.5759 24.2504V24.9404V25.7304H96.7489V19.8604C96.7837 19.3546 96.713 18.847 96.5414 18.3701C96.3698 17.8932 96.101 17.4574 95.7521 17.0904C95.3532 16.7397 94.8885 16.4724 94.3853 16.3041C93.8821 16.1359 93.3505 16.07 92.8216 16.1104ZM94.4065 21.7004C94.4085 22.321 94.1933 22.9227 93.7984 23.4004C93.6229 23.646 93.3906 23.8453 93.1216 23.9811C92.8525 24.1169 92.5546 24.1853 92.2534 24.1804C91.8857 24.1927 91.5278 24.0599 91.2566 23.8104C91.1344 23.7017 91.0371 23.5675 90.9717 23.4173C90.9063 23.267 90.8743 23.1043 90.8778 22.9404C90.8778 21.9404 91.9344 21.4504 94.0377 21.4504H94.4464L94.4065 21.7004Z" fill="#1B262C"></path> <path d="M101.494 23.4804C101.306 23.1825 101.222 22.831 101.254 22.4804V12.6304H98.9419V22.8104C98.9228 23.3589 99.0109 23.9058 99.201 24.4204C99.3317 24.8012 99.584 25.128 99.9187 25.3504C100.193 25.5323 100.496 25.6643 100.816 25.7404C101.143 25.8108 101.478 25.8443 101.813 25.8404C102.059 25.8381 102.306 25.8214 102.55 25.7904V23.7404H102.201C102.072 23.7511 101.941 23.7334 101.819 23.6885C101.697 23.6437 101.586 23.5726 101.494 23.4804Z" fill="#1B262C"></path> <path d="M112.428 18.8603C112.911 18.5944 113.311 18.1999 113.585 17.7203C113.875 17.2125 114.023 16.6356 114.013 16.0503C114.035 15.5779 113.946 15.107 113.752 14.676C113.558 14.245 113.265 13.8662 112.897 13.5703C112.037 12.9255 110.978 12.6067 109.907 12.6703H105.252V25.7503H109.986C111.141 25.7853 112.273 25.4335 113.206 24.7503C113.633 24.4336 113.977 24.0182 114.21 23.5394C114.442 23.0607 114.556 22.5327 114.542 22.0003C114.549 21.3187 114.362 20.6491 114.003 20.0703C113.655 19.477 113.09 19.0431 112.428 18.8603ZM107.674 14.6803H109.937C110.162 14.6656 110.387 14.699 110.599 14.7783C110.81 14.8576 111.002 14.981 111.163 15.1403C111.309 15.2965 111.424 15.4803 111.499 15.6812C111.574 15.882 111.609 16.0959 111.601 16.3103C111.618 16.7556 111.46 17.1897 111.163 17.5203C111.01 17.6794 110.825 17.8037 110.62 17.8848C110.416 17.9658 110.196 18.0018 109.976 17.9903H107.674V14.6803ZM111.661 23.1703C111.479 23.3524 111.26 23.4937 111.02 23.585C110.779 23.6764 110.522 23.7157 110.265 23.7003H107.724V19.9103H110.265C110.513 19.903 110.758 19.9473 110.988 20.0403C111.217 20.1334 111.424 20.2732 111.597 20.4509C111.769 20.6286 111.903 20.8403 111.989 21.0726C112.076 21.3049 112.113 21.5527 112.1 21.8003C112.112 22.0497 112.076 22.2992 111.992 22.5344C111.908 22.7695 111.779 22.9857 111.611 23.1703H111.661Z" fill="#1B262C"></path> <path d="M122.685 20.6503C122.708 21.4619 122.459 22.2576 121.978 22.9103C121.754 23.2072 121.463 23.4458 121.128 23.6059C120.793 23.766 120.425 23.843 120.054 23.8303C119.839 23.853 119.621 23.8198 119.422 23.734C119.223 23.6482 119.049 23.5127 118.918 23.3403C118.68 22.903 118.569 22.4075 118.599 21.9103V16.3303H116.256V22.3903C116.256 24.7837 117.343 25.977 119.516 25.9703C120.224 25.9802 120.919 25.7745 121.509 25.3803C122.054 25.0515 122.494 24.5725 122.775 24.0003L122.725 24.6403V25.7503H125.058V16.3303H122.735L122.685 20.6503Z" fill="#1B262C"></path> <path d="M130.739 16.9005C130.2 17.3593 129.803 17.9629 129.593 18.6405V17.9905V16.3305H127.35V25.7505H129.683V22.0005C129.656 21.1341 129.9 20.281 130.381 19.5605C130.611 19.2311 130.922 18.9664 131.283 18.7914C131.644 18.6164 132.044 18.5369 132.444 18.5605C132.636 18.5406 132.83 18.5406 133.022 18.5605V16.2405C132.873 16.2297 132.723 16.2297 132.574 16.2405C131.902 16.2239 131.248 16.4592 130.739 16.9005Z" fill="#1B262C"></path> <path d="M142.492 17.5003C141.482 16.6047 140.181 16.1104 138.833 16.1104C137.486 16.1104 136.185 16.6047 135.175 17.5003C134.703 17.9599 134.327 18.5101 134.07 19.1182C133.814 19.7263 133.681 20.38 133.681 21.0403C133.681 21.7007 133.814 22.3543 134.07 22.9624C134.327 23.5705 134.703 24.1207 135.175 24.5803C136.186 25.4767 137.489 25.9714 138.838 25.9714C140.188 25.9714 141.491 25.4767 142.502 24.5803C142.976 24.1214 143.352 23.5715 143.61 22.9633C143.867 22.3551 144 21.7011 144 21.0403C144 20.3796 143.867 19.7256 143.61 19.1174C143.352 18.5092 142.976 17.9592 142.502 17.5003H142.492ZM140.827 23.1603C140.566 23.424 140.255 23.6332 139.913 23.776C139.571 23.9188 139.204 23.9923 138.833 23.9923C138.463 23.9923 138.096 23.9188 137.754 23.776C137.412 23.6332 137.101 23.424 136.84 23.1603C136.323 22.5779 136.037 21.8252 136.037 21.0453C136.037 20.2654 136.323 19.5127 136.84 18.9303C137.096 18.66 137.406 18.4464 137.749 18.3035C138.092 18.1605 138.462 18.0913 138.833 18.1003C139.205 18.0938 139.573 18.1641 139.916 18.3069C140.259 18.4497 140.569 18.6619 140.827 18.9303C141.357 19.5065 141.651 20.2616 141.651 21.0453C141.651 21.8291 141.357 22.5841 140.827 23.1603Z" fill="#1B262C"></path> </svg> 