<?xml version="1.0" encoding="UTF-8"?> <svg xmlns="http://www.w3.org/2000/svg" width="91" height="90" viewBox="0 0 91 90" fill="none"><circle cx="45.7988" cy="45" r="45" fill="#0033A0"></circle><circle cx="45.7988" cy="45" r="45" fill="white"></circle><path d="M66.3071 33.0918L71.2093 28.6758L68.4314 20.108H59.9468L48.9985 15L46.1326 16.3336L43.2667 15L32.3184 20.108H23.8464L21.0559 28.6758L25.9581 33.0918L20 51.4479L46.1326 75L72.2652 51.4479L66.3071 33.0918Z" fill="white"></path><path d="M64.3209 32.5634L69.2231 28.1474L67.1742 21.8316H59.557L48.9983 16.8998L46.1324 18.2334L43.2665 16.8998L32.7079 21.8316H25.0906L23.0417 28.1474L27.9439 32.5634L21.9858 50.9195L46.1324 72.6851L70.279 50.9195L64.3209 32.5634Z" fill="#00205B"></path><path d="M65.3015 24.4108L66.2568 27.3422L63.4537 29.871L61.6814 24.4108H65.3015Z" fill="white"></path><path d="M26.0208 27.3422L26.9635 24.4108H30.5836L28.8112 29.871L26.0208 27.3422Z" fill="white"></path><path d="M33.2987 24.3982L43.2666 19.7557L40.7778 27.4428L36.4035 29.481L36.2652 29.9088H55.9998L55.8615 29.481L51.4872 27.4428L48.9984 19.7557L58.9663 24.3982L67.3126 50.1142L57.3447 45.4718L54.8057 37.6588L57.6716 35.0796L57.5333 34.6393H34.7317L34.5934 35.0796L37.4593 37.6588L34.9202 45.4718L24.9524 50.1142L33.2987 24.3982Z" fill="white"></path><path d="M52.1034 53.2596L53.373 49.3343H38.8926L40.1621 53.2596L40.8786 51.0579H51.387L52.1034 53.2596Z" fill="white"></path><path d="M52.0908 37.6588H40.1746L37.6355 45.4718L38.0503 46.7425H44.838L43.9832 44.113L41.0796 45.4718V41.4835H51.1857V45.4718L48.2821 44.113L47.4274 46.7425H54.2151L54.6299 45.4718L52.0908 37.6588Z" fill="white"></path><path d="M48.6844 24.0711L46.9372 23.2533L46.1201 20.7496L45.3031 23.2533L43.5559 24.0711L45.3031 24.8889L46.1201 27.3925L46.9372 24.8889L48.6844 24.0711Z" fill="#05C3DE"></path><path d="M67.3126 50.1143L65.6157 49.3343L51.5375 62.0162L50.3937 58.4934L49.6772 60.6952H42.5878L41.8713 58.4934L40.7275 62.0162L26.6493 49.3343L24.9524 50.1143L46.1325 69.2001L67.3126 50.1143Z" fill="#05C3DE"></path></svg> 