<?xml version="1.0" encoding="UTF-8"?> <svg xmlns="http://www.w3.org/2000/svg" width="446" height="251" viewBox="0 0 446 251" fill="none"><g data-figma-bg-blur-radius="32.3188"><rect x="1.07729" y="1.51187" width="443.845" height="247.845" rx="16.1594" fill="url(#paint0_linear_9914_89858)" fill-opacity="0.8"></rect><rect x="1.07729" y="1.51187" width="443.845" height="247.845" rx="16.1594" stroke="url(#paint1_linear_9914_89858)" stroke-width="2.15459"></rect><path fill-rule="evenodd" clip-rule="evenodd" d="M164.112 186.218C164.034 186.088 157.766 175.53 154.971 170.845C142.692 172.535 130.257 174.321 118.208 176.054C109.964 177.242 101.716 178.425 93.4677 179.587L84.9508 180.787L92.7135 169.878C91.4913 170.051 90.2733 170.142 89.0554 170.142C82.1552 170.142 75.6105 167.217 70.6348 161.903C64.4801 155.328 61.3161 145.966 61.9576 136.214L62.1439 133.392L87.8115 128.195L94.5642 118.435L107.901 116.068C118.923 101.085 129.477 84.0249 141.028 62.5226L142.471 59.8354L172.733 69.2234L171.341 72.8989C167.826 82.1915 165.052 90.496 162.764 98.6444C167.995 95.073 173.699 93.2699 179.828 93.2699C185.189 93.2699 189.931 94.6569 193.386 95.8011C194.378 93.1529 195.657 89.6638 196.263 87.9995L197.468 84.6881L214.134 89.8545L216.461 84.9048L231.687 89.6291C232.593 87.5617 236.013 79.708 236.013 79.708L250.884 84.311L252.869 79.5736L265.997 83.6435L270.254 73.2846L283.109 77.2721C286.256 75.3001 289.762 74.2295 293.147 74.2295C296.745 74.2295 299.965 75.4041 302.54 77.6102C308.408 71.798 316.071 68.3132 323.357 68.3132C325.468 68.3132 327.535 68.5993 329.507 69.1671C333.023 70.177 341.37 72.7992 345.83 74.2122C347.841 70.1856 349.87 64.8718 350.676 62.0589L351.716 58.4268L384.123 68.4779L382.459 72.2704C382.403 72.4004 377.492 83.5915 375.282 88.914L382.637 97.4915L381.774 99.5893C381.107 101.206 380.023 103.234 378.732 105.293L383.673 104.422L379.451 111.396C373.6 121.066 369.617 132.053 366.925 145.983L366.383 148.792L363.527 148.97C309.665 152.342 252.518 158.137 178.484 167.728C176.274 172.925 170.964 185.191 170.7 185.798L167.822 192.442L164.125 186.214L164.112 186.218Z" fill="white"></path><path fill-rule="evenodd" clip-rule="evenodd" d="M110.822 156.286C115.464 152.09 120.288 146.547 125.415 139.56L126.295 139.382C126.586 144.124 127.86 149.269 131.609 152.624L110.822 156.29V156.286ZM92.9517 175.929C114.263 172.925 135.566 169.766 156.886 166.849C157.883 168.483 167.293 184.329 167.293 184.329C167.293 184.329 174.887 166.792 175.888 164.335C238.171 156.238 300.58 149.204 363.28 145.277C365.694 132.786 369.482 120.697 376.274 109.476L369.864 110.607C372.971 107.747 376.842 101.809 378.341 98.1765L370.995 89.6077C372.39 85.9842 379.056 70.784 379.056 70.784L354.212 63.0776C353.164 66.7444 350.177 74.3771 347.603 78.655C347.603 78.655 333.278 74.104 328.467 72.717C319.317 70.0861 308.872 75.0315 302.483 83.206C298.153 76.2365 289.745 76.7566 283.711 81.3336L272.373 77.8185L268.117 88.1774L254.966 84.0988L252.986 88.8362L238.067 84.2202C238.067 84.2202 234.106 93.3178 233.729 94.1413L218.424 89.3953L216.097 94.345L199.726 89.2696C199.726 89.2696 196.302 98.6706 195.557 100.43C188.427 98.2199 171.606 90.1841 156.007 110.234C159.088 96.6292 162.967 84.5496 167.869 71.5945L144.274 64.2739C134.023 83.3577 122.919 102.047 109.985 119.453L96.7181 121.807L89.9957 131.524L65.6415 136.457C64.2892 157.062 82.1507 174.824 102.682 162.25L92.9473 175.925L92.9517 175.929Z" fill="black"></path><path d="M354.695 109.913C360.997 113.203 369.344 98.978 369.344 98.978L366.774 95.983C366.774 95.983 362.839 101.613 360.867 100.642C358.24 99.342 368.959 75.3605 368.959 75.3605L358.812 72.2139C356.55 78.6503 343.785 102.402 340.864 101.132C339.546 100.56 341.063 97.3093 341.063 97.3093L335.472 95.5756C335.472 95.5756 333.972 98.2325 332.82 101.921C331.255 104.378 329.686 105.384 328.88 104.751C325.677 102.255 335.667 85.182 337.305 82.5858L330.158 80.3666C329.517 81.5152 328.654 83.1102 327.839 84.5882C327.67 82.7765 327.02 81.2118 325.508 80.423C317.845 76.4268 309.306 85.195 304.439 93.1527C304.183 93.5688 303.806 94.2406 303.36 95.0988C300.417 100.174 292.81 112.353 291.172 111.612C288.489 110.394 302.718 88.9701 294.327 85.5201C290.673 84.0161 285.71 88.6407 281.484 94.5917L283.396 88.9485L276.639 86.8507L271.763 98.7222C270.007 103.616 261.781 119.093 259.124 118.062C256.177 116.917 266.193 95.2808 266.193 95.2808L259.193 93.1094C254.612 104.049 245.761 120.632 242.524 119.405C239.984 118.508 250.334 95.7099 250.334 95.7099L242.281 93.1917C241.874 94.1756 239.711 98.5835 237.379 104.092C235.546 107.946 226.734 124.862 224.246 122.994C222.525 121.698 228.611 105.055 230.5 100.837L221.884 98.1631L207.572 123.072L212.908 101.05L204.287 98.3755C202.159 104.331 190.985 129.678 187.617 128.403C185.788 127.71 187.921 122.322 187.921 122.322L183.872 121.052C186.876 112.505 189.095 106.121 189.095 106.121L182.91 104.201C182.91 104.201 182.59 105.111 181.528 107.941C181.155 107.256 180.626 106.689 179.894 106.307C172.231 102.311 163.77 111.123 158.825 119.037C157.824 120.641 156.961 122.266 156.216 123.857V123.844C153.801 128.455 147.985 134.74 146.268 133.834C142.667 131.936 150.915 95.6189 158.227 76.2924L147.894 73.0894C140.95 86.0098 127.453 108.687 114.134 126.184L101.032 128.507L94.2182 138.355L106.163 135.936C98.6131 144.401 91.9124 149.381 87.7601 147.21C85.7274 145.758 85.0686 142.715 84.9082 140.049L73.5654 142.347C74.0335 147.604 76.27 154.053 82.9838 157.53C95.046 163.78 109.033 149.94 121.138 132.902L134.119 130.271C133.006 138.788 133.526 145.996 137.947 148.046C142.996 150.387 148.279 145.285 152.414 139.404C152.631 141.853 153.515 143.864 155.591 144.947C159.28 146.88 163.792 144.332 167.918 140.418C166.791 143.461 163.514 150.049 160.563 154.968L110.844 163.736L109.037 166.211C124.151 164.079 145.402 160.928 160.654 158.899C162.114 161.27 164.316 164.833 166.293 168.17C167.701 164.928 169.201 161.279 170.67 157.577C236.382 148.974 301.765 141.74 356.97 138.281C358.162 131.004 360.398 124.732 363.402 119.202L272.205 135.282L265.296 142.533C266.904 137.666 269.756 129.075 271.039 125.395C272.105 122.327 282.555 95.0381 286.651 96.5724C289.347 97.5216 274.97 119.704 282.954 122.777C287.392 124.485 293.386 117.667 298.011 110.962C297.708 114.525 298.444 117.602 301.201 119.046C306.32 121.724 313.025 115.778 318.083 109.536C317.923 112.406 318.603 114.638 320.58 115.7C324.281 117.689 328.225 114.287 331.983 109.541C332.317 111.244 333.166 112.7 334.822 113.606C343.035 118.127 357.802 85.208 357.802 85.208C357.802 85.208 348.566 106.693 354.699 109.892L354.695 109.913ZM135.493 122.4L127.228 123.865C133.547 114.005 138.731 104.504 141.726 98.9996C140.187 104.443 137.37 113.502 135.498 122.4H135.493ZM174.385 123.618C170.662 129.851 165.803 134.575 164 133.479C159.839 130.943 171.151 111.686 175.555 113.667C178.628 115.049 176.053 120.233 174.385 123.618ZM257.685 137.861L172.508 152.879C175.195 145.888 177.583 139.226 178.862 135.26C178.901 137.947 179.621 140.14 181.619 140.864C191.163 144.332 200.936 118.2 202.484 115.448C202.124 117.732 198.405 134.822 198.405 134.822L206.168 137.228L218.989 113.697C218.989 113.697 211.798 132.243 218.313 134.601C222.018 135.945 226.938 130.518 231.068 124.307C230.704 127.831 231.233 130.501 233.261 131.442C239.55 134.346 247.499 122.491 249.801 119.41C248.713 122.422 249.186 127.623 252.137 128.564C255.856 129.747 260.407 125.023 264.264 119.566L257.685 137.856V137.861ZM319.994 97.721C316.271 103.954 311.413 108.678 309.61 107.581C305.449 105.046 316.761 85.7888 321.165 87.7695C324.238 89.1522 321.663 94.336 319.994 97.721Z" fill="#B9975B"></path></g><defs><clipPath id="bgblur_0_9914_89858_clip_path" transform="translate(32.3188 31.8843)"><rect x="1.07729" y="1.51187" width="443.845" height="247.845" rx="16.1594"></rect></clipPath><linearGradient id="paint0_linear_9914_89858" x1="223" y1="0.43457" x2="223" y2="250.435" gradientUnits="userSpaceOnUse"><stop stop-color="white"></stop><stop offset="1" stop-color="white" stop-opacity="0.6"></stop></linearGradient><linearGradient id="paint1_linear_9914_89858" x1="223" y1="0.43457" x2="223" y2="250.435" gradientUnits="userSpaceOnUse"><stop stop-color="white"></stop><stop offset="1" stop-color="#EBEBEB"></stop></linearGradient></defs></svg> 