<?xml version="1.0" encoding="UTF-8"?> <svg xmlns="http://www.w3.org/2000/svg" width="93" height="93" viewBox="0 0 93 93" fill="none"><g filter="url(#filter0_b_1267_2064)"><rect x="0.88855" y="0.771362" width="91.383" height="91.9286" rx="45.6915" fill="#FFDD2D"></rect></g><path d="M27.0001 30H66.0001V49.6142C66.0001 54.6424 63.3177 59.2888 58.9634 61.8031L46.5001 69L34.0369 61.8031C29.6825 59.2888 27.0001 54.6424 27.0001 49.6142V30Z" fill="white"></path><path fill-rule="evenodd" clip-rule="evenodd" d="M37.7035 40.3226V46.4231C38.5377 45.481 40.0544 44.8435 41.7886 44.8435H43.6732V51.9351C43.6732 53.8219 43.1606 55.4733 42.4 56.3816H50.5975C49.8385 55.4724 49.327 53.823 49.327 51.9387V44.8435H51.2117C52.9459 44.8435 54.4626 45.481 55.2968 46.4231V40.3226H37.7035Z" fill="#333333"></path><path d="M46.9075 93H47.0926C72.4527 93 93 72.504 93 47C93 21.496 72.5453 1 47.0926 1H46.9075C21.4547 1 1 21.496 1 47C1 72.504 21.5473 93 46.9075 93Z" fill="#00FFFF"></path><path d="M45.0069 86.4292H48.994C76.4058 86.4292 91.3576 71.6552 91.3576 49.5437C91.3576 22.5736 69.1292 2.64349 47.0005 2.64349C24.8717 2.64349 2.64331 22.5736 2.64331 49.5437C2.64331 71.6552 17.5952 86.4292 45.0069 86.4292Z" fill="#00DFDF"></path><path d="M47.0004 7.57092C27.4475 7.57092 5.92896 29.5979 5.92896 53.6931C5.92896 69.7222 15.7572 79.8566 30.6546 79.8566C36.0342 79.8566 43.276 79.7532 47.0004 79.7532C50.7248 79.7532 57.9666 79.8566 63.3462 79.8566C78.2436 79.8566 88.0718 69.7222 88.0718 53.6931C88.0718 29.5979 66.5533 7.57092 47.0004 7.57092Z" fill="#00C0C0"></path><path d="M23.5468 74.9286C29.3015 74.9286 36.5764 71.7051 47 71.7051C57.4237 71.7051 64.6985 74.9286 70.4532 74.9286C80.1168 74.9286 84.7857 65.7953 84.7857 56.8769C84.7857 38.8253 65.0242 12.5 47.5429 12.5H46.4571C28.9758 12.5 9.21429 38.8253 9.21429 56.8769C9.21429 65.7953 13.8832 74.9286 23.5468 74.9286Z" fill="#00A0A0"></path><path d="M76.709 55.88C71.6741 47.8987 65.8324 39.258 59.9333 31.2877C55.2194 24.9201 52.8539 21.6207 47.0549 21.6207C47.0366 21.6207 47.0184 21.6207 47 21.6207C46.9817 21.6207 46.9646 21.6207 46.9451 21.6207C41.1461 21.6207 38.7806 24.9201 34.0668 31.2877C28.1677 39.258 22.326 47.8987 17.2911 55.88C15.6372 58.5017 13.489 63.9139 17.8415 66.6199C18.9779 67.3246 20.0264 67.6207 21.0211 67.6207C23.4989 67.6207 25.6338 65.7893 27.8955 63.9175C35.2178 57.8594 40.7336 53.0381 46.9451 53.0381C46.9634 53.0381 46.9817 53.0381 47 53.0381C47.0184 53.0381 47.0366 53.0381 47.0549 53.0381C53.2665 53.0381 58.7823 57.8594 66.1046 63.9175C68.3663 65.7893 70.5011 67.6207 72.9789 67.6207C73.9737 67.6207 75.0221 67.3246 76.1585 66.6199C80.5111 63.9139 78.3629 58.5017 76.709 55.88Z" fill="black"></path><defs><filter id="filter0_b_1267_2064" x="-0.11145" y="-0.228638" width="93.383" height="93.9286" filterUnits="userSpaceOnUse" color-interpolation-filters="sRGB"><feFlood flood-opacity="0" result="BackgroundImageFix"></feFlood><feGaussianBlur in="BackgroundImageFix" stdDeviation="0.5"></feGaussianBlur><feComposite in2="SourceAlpha" operator="in" result="effect1_backgroundBlur_1267_2064"></feComposite><feBlend mode="normal" in="SourceGraphic" in2="effect1_backgroundBlur_1267_2064" result="shape"></feBlend></filter></defs></svg> 