<?xml version="1.0" encoding="UTF-8"?> <svg xmlns="http://www.w3.org/2000/svg" width="69" height="69" viewBox="0 0 69 69" fill="none"><circle cx="34.2657" cy="34.2657" r="34.2657" fill="#F6F6F6"></circle><path d="M30.6 33.65C30.6 35.6658 32.2342 37.3 34.25 37.3C36.2658 37.3 37.9 35.6658 37.9 33.65C37.9 31.6342 36.2658 30 34.25 30C32.2342 30 30.6 31.6342 30.6 33.65Z" fill="#1858FD"></path><path d="M16 33.65C16 35.6658 17.6342 37.3 19.65 37.3C21.6658 37.3 23.3 35.6658 23.3 33.65C23.3 31.6342 21.6658 30 19.65 30C17.6342 30 16 31.6342 16 33.65Z" fill="#1858FD"></path><path d="M45.2 33.65C45.2 35.6658 46.8342 37.3 48.85 37.3C50.8658 37.3 52.5 35.6658 52.5 33.65C52.5 31.6342 50.8658 30 48.85 30C46.8342 30 45.2 31.6342 45.2 33.65Z" fill="#1858FD"></path><path d="M1.5 62.5L8.5 54.5L23 62.5H1.5Z" fill="#F6F6F6"></path></svg> 