<?xml version="1.0" encoding="UTF-8"?> <svg xmlns="http://www.w3.org/2000/svg" width="69" height="69" viewBox="0 0 69 69" fill="none"><circle cx="34.2657" cy="34.2657" r="34.2657" fill="#F6F6F6"></circle><path opacity="0.5" d="M47.3702 47.3702C49.75 44.9905 49.75 41.1603 49.75 33.5C49.75 25.8397 49.75 22.0095 47.3702 19.6298C44.9905 17.25 41.1603 17.25 33.5 17.25C25.8397 17.25 22.0095 17.25 19.6298 19.6298C17.25 22.0095 17.25 25.8397 17.25 33.5C17.25 41.1603 17.25 44.9905 19.6298 47.3702C22.0095 49.75 25.8397 49.75 33.5 49.75C41.1603 49.75 44.9905 49.75 47.3702 47.3702Z" fill="#1858FD"></path><path d="M42.3636 25.2181C42.899 25.6261 43.0024 26.3908 42.5944 26.9262L31.4516 41.5512C31.2297 41.8424 30.8887 42.0184 30.5228 42.0306C30.1568 42.0428 29.8048 41.8899 29.5641 41.6141L24.4569 35.7641C24.0142 35.257 24.0664 34.4871 24.5735 34.0445C25.0806 33.6018 25.8505 33.654 26.2931 34.161L30.4179 38.8858L40.6556 25.4489C41.0635 24.9135 41.8282 24.8102 42.3636 25.2181Z" fill="#1858FD"></path><path d="M1.5 62.5L8.5 54.5L23 62.5H1.5Z" fill="#F6F6F6"></path></svg> 