<?xml version="1.0" encoding="UTF-8"?> <svg xmlns="http://www.w3.org/2000/svg" width="4274" height="3548" viewBox="0 0 4274 3548" fill="none"><g style="mix-blend-mode:overlay" opacity="0.2"><rect x="4069.34" y="2888.43" width="57.6057" height="347.329" rx="23" transform="rotate(-144.013 4069.34 2888.43)" fill="white"></rect><rect x="3919.01" y="3095.44" width="57.6057" height="232.117" rx="23" transform="rotate(-144.013 3919.01 3095.44)" fill="white"></rect><rect x="3850.32" y="3190.03" width="57.6057" height="57.6057" rx="23" transform="rotate(-144.013 3850.32 3190.03)" fill="white"></rect><rect x="2259.71" y="1574.28" width="57.6057" height="347.329" rx="23" transform="rotate(-144.013 2259.71 1574.28)" fill="white"></rect><rect x="2109.38" y="1781.29" width="57.6057" height="232.117" rx="23" transform="rotate(-144.013 2109.38 1781.29)" fill="white"></rect><rect x="2040.68" y="1875.89" width="57.6057" height="57.6057" rx="23" transform="rotate(-144.013 2040.68 1875.89)" fill="white"></rect><rect x="2833.48" y="2052.86" width="57.6057" height="397.424" rx="23" transform="rotate(-144.013 2833.48 2052.86)" fill="white"></rect><rect x="2661.47" y="2289.73" width="57.6057" height="265.596" rx="23" transform="rotate(-144.013 2661.47 2289.73)" fill="white"></rect><rect x="2494.56" y="2519.57" width="57.6057" height="147.403" rx="23" transform="rotate(-144.013 2494.56 2519.57)" fill="white"></rect><rect x="2598.1" y="2377" width="57.6057" height="57.6057" rx="23" transform="rotate(-144.013 2598.1 2377)" fill="white"></rect><rect x="1023.85" y="738.718" width="57.6057" height="397.424" rx="23" transform="rotate(-144.013 1023.85 738.718)" fill="white"></rect><rect x="851.839" y="975.585" width="57.6057" height="265.596" rx="23" transform="rotate(-144.013 851.839 975.585)" fill="white"></rect><rect x="684.929" y="1205.43" width="57.6057" height="147.403" rx="23" transform="rotate(-144.013 684.929 1205.43)" fill="white"></rect><rect x="788.467" y="1062.85" width="57.6057" height="57.6057" rx="23" transform="rotate(-144.013 788.467 1062.85)" fill="white"></rect><rect x="3400.98" y="2540.09" width="57.6057" height="458.207" rx="23" transform="rotate(-144.013 3400.98 2540.09)" fill="white"></rect><rect x="3202.66" y="2813.19" width="57.6057" height="306.216" rx="23" transform="rotate(-144.013 3202.66 2813.19)" fill="white"></rect><rect x="3112.03" y="2937.98" width="57.6057" height="57.6057" rx="23" transform="rotate(-144.013 3112.03 2937.98)" fill="white"></rect><rect x="1591.35" y="1225.95" width="57.6057" height="458.207" rx="23" transform="rotate(-144.013 1591.35 1225.95)" fill="white"></rect><rect x="1393.03" y="1499.04" width="57.6057" height="306.216" rx="23" transform="rotate(-144.013 1393.03 1499.04)" fill="white"></rect><rect x="1302.4" y="1623.84" width="57.6057" height="57.6057" rx="23" transform="rotate(-144.013 1302.4 1623.84)" fill="white"></rect><rect x="3766.95" y="3146.24" width="57.6057" height="733.626" rx="23" transform="rotate(-144.013 3766.95 3146.24)" fill="white"></rect><rect x="1957.32" y="1832.1" width="57.6057" height="733.626" rx="23" transform="rotate(-144.013 1957.32 1832.1)" fill="white"></rect><rect x="2498.35" y="2355.76" width="57.6057" height="839.438" rx="23" transform="rotate(-144.013 2498.35 2355.76)" fill="white"></rect><rect x="688.722" y="1041.62" width="57.6057" height="839.438" rx="23" transform="rotate(-144.013 688.722 1041.62)" fill="white"></rect><rect x="3026.12" y="2897.69" width="57.6057" height="967.822" rx="23" transform="rotate(-144.013 3026.12 2897.69)" fill="white"></rect><rect x="1216.49" y="1583.55" width="57.6057" height="967.822" rx="23" transform="rotate(-144.013 1216.49 1583.55)" fill="white"></rect><rect x="3950.4" y="2735.04" width="57.6057" height="293.112" rx="23" transform="rotate(-144.013 3950.4 2735.04)" fill="white"></rect><rect x="3646.75" y="3153.18" width="57.6057" height="418.489" rx="23" transform="rotate(-144.013 3646.75 3153.18)" fill="white"></rect><rect x="3904.6" y="2798.11" width="57.6057" height="57.6057" rx="23" transform="rotate(-144.013 3904.6 2798.11)" fill="white"></rect><rect x="2140.76" y="1420.9" width="57.6057" height="293.112" rx="23" transform="rotate(-144.013 2140.76 1420.9)" fill="white"></rect><rect x="1837.12" y="1839.03" width="57.6057" height="418.489" rx="23" transform="rotate(-144.013 1837.12 1839.03)" fill="white"></rect><rect x="2094.97" y="1483.96" width="57.6057" height="57.6057" rx="23" transform="rotate(-144.013 2094.97 1483.96)" fill="white"></rect><rect x="2719.13" y="1893.15" width="57.6057" height="335.387" rx="23" transform="rotate(-144.013 2719.13 1893.15)" fill="white"></rect><rect x="2371.69" y="2371.6" width="57.6057" height="478.848" rx="23" transform="rotate(-144.013 2371.69 2371.6)" fill="white"></rect><rect x="2666.73" y="1965.31" width="57.6057" height="65.9143" rx="23" transform="rotate(-144.013 2666.73 1965.31)" fill="white"></rect><rect x="909.502" y="579.009" width="57.6057" height="335.387" rx="23" transform="rotate(-144.013 909.502 579.009)" fill="white"></rect><rect x="562.059" y="1057.45" width="57.6057" height="478.848" rx="23" transform="rotate(-144.013 562.059 1057.45)" fill="white"></rect><rect x="857.101" y="651.168" width="57.6057" height="65.9143" rx="23" transform="rotate(-144.013 857.101 651.168)" fill="white"></rect><rect x="3292.2" y="2372.71" width="57.6057" height="386.682" rx="23" transform="rotate(-144.013 3292.2 2372.71)" fill="white"></rect><rect x="2891.62" y="2924.32" width="57.6057" height="552.083" rx="23" transform="rotate(-144.013 2891.62 2924.32)" fill="white"></rect><rect x="3231.79" y="2455.9" width="57.6057" height="57.6057" rx="23" transform="rotate(-144.013 3231.79 2455.9)" fill="white"></rect><rect x="1482.57" y="1058.56" width="57.6057" height="386.682" rx="23" transform="rotate(-144.013 1482.57 1058.56)" fill="white"></rect><rect x="1081.99" y="1610.18" width="57.6057" height="552.083" rx="23" transform="rotate(-144.013 1081.99 1610.18)" fill="white"></rect><rect x="1422.16" y="1141.76" width="57.6057" height="57.6057" rx="23" transform="rotate(-144.013 1422.16 1141.76)" fill="white"></rect><rect x="3378.73" y="3046.49" width="57.6057" height="372.743" rx="23" transform="rotate(-144.013 3378.73 3046.49)" fill="white"></rect><rect x="3608.71" y="2729.8" width="57.6057" height="489.649" rx="23" transform="rotate(-144.013 3608.71 2729.8)" fill="white"></rect><rect x="1569.1" y="1732.34" width="57.6057" height="372.743" rx="23" transform="rotate(-144.013 1569.1 1732.34)" fill="white"></rect><rect x="1799.07" y="1415.66" width="57.6057" height="489.649" rx="23" transform="rotate(-144.013 1799.07 1415.66)" fill="white"></rect><rect x="2097.64" y="2273.21" width="57.6057" height="426.504" rx="23" transform="rotate(-144.013 2097.64 2273.21)" fill="white"></rect><rect x="2360.79" y="1910.85" width="57.6057" height="560.271" rx="23" transform="rotate(-144.013 2360.79 1910.85)" fill="white"></rect><rect x="288.01" y="959.066" width="57.6057" height="426.504" rx="23" transform="rotate(-144.013 288.01 959.066)" fill="white"></rect><rect x="551.155" y="596.705" width="57.6057" height="560.271" rx="23" transform="rotate(-144.013 551.155 596.705)" fill="white"></rect><rect x="2610.26" y="2836.02" width="57.6057" height="491.734" rx="23" transform="rotate(-144.013 2610.26 2836.02)" fill="white"></rect><rect x="2913.65" y="2418.23" width="57.6057" height="645.96" rx="23" transform="rotate(-144.013 2913.65 2418.23)" fill="white"></rect><rect x="800.625" y="1521.87" width="57.6057" height="491.734" rx="23" transform="rotate(-144.013 800.625 1521.87)" fill="white"></rect><rect x="1104.02" y="1104.09" width="57.6057" height="645.96" rx="23" transform="rotate(-144.013 1104.02 1104.09)" fill="white"></rect><rect x="3707.74" y="2910.6" width="57.6057" height="577.752" rx="23" transform="rotate(-144.013 3707.74 2910.6)" fill="white"></rect><rect x="3571.35" y="3098.42" width="57.6057" height="133.849" rx="23" transform="rotate(-144.013 3571.35 3098.42)" fill="white"></rect><rect x="3658.96" y="2977.78" width="57.6057" height="57.6057" rx="23" transform="rotate(-144.013 3658.96 2977.78)" fill="white"></rect><rect x="1898.11" y="1596.46" width="57.6057" height="577.752" rx="23" transform="rotate(-144.013 1898.11 1596.46)" fill="white"></rect><rect x="1761.71" y="1784.28" width="57.6057" height="133.849" rx="23" transform="rotate(-144.013 1761.71 1784.28)" fill="white"></rect><rect x="1849.32" y="1663.63" width="57.6057" height="57.6057" rx="23" transform="rotate(-144.013 1849.32 1663.63)" fill="white"></rect><rect x="2452.35" y="2101.93" width="57.6057" height="661.081" rx="23" transform="rotate(-144.013 2452.35 2101.93)" fill="white"></rect><rect x="2296.29" y="2316.84" width="57.6057" height="153.154" rx="23" transform="rotate(-144.013 2296.29 2316.84)" fill="white"></rect><rect x="2396.54" y="2178.8" width="57.6057" height="65.9143" rx="23" transform="rotate(-144.013 2396.54 2178.8)" fill="white"></rect><rect x="642.722" y="787.788" width="57.6057" height="661.081" rx="23" transform="rotate(-144.013 642.722 787.788)" fill="white"></rect><rect x="486.657" y="1002.69" width="57.6057" height="153.154" rx="23" transform="rotate(-144.013 486.657 1002.69)" fill="white"></rect><rect x="586.903" y="864.652" width="57.6057" height="65.9143" rx="23" transform="rotate(-144.013 586.903 864.652)" fill="white"></rect><rect x="2996.15" y="2621.79" width="57.6057" height="762.188" rx="23" transform="rotate(-144.013 2996.15 2621.79)" fill="white"></rect><rect x="2816.22" y="2869.57" width="57.6057" height="176.577" rx="23" transform="rotate(-144.013 2816.22 2869.57)" fill="white"></rect><rect x="2931.8" y="2710.41" width="57.6057" height="57.6057" rx="23" transform="rotate(-144.013 2931.8 2710.41)" fill="white"></rect><rect x="1186.52" y="1307.65" width="57.6057" height="762.188" rx="23" transform="rotate(-144.013 1186.52 1307.65)" fill="white"></rect><rect x="1006.59" y="1555.42" width="57.6057" height="176.577" rx="23" transform="rotate(-144.013 1006.59 1555.42)" fill="white"></rect><rect x="1122.17" y="1396.27" width="57.6057" height="57.6057" rx="23" transform="rotate(-144.013 1122.17 1396.27)" fill="white"></rect><rect x="3406.13" y="2691.58" width="57.6057" height="577.752" rx="23" transform="rotate(-144.013 3406.13 2691.58)" fill="white"></rect><rect x="3269.74" y="2879.4" width="57.6057" height="133.849" rx="23" transform="rotate(-144.013 3269.74 2879.4)" fill="white"></rect><rect x="3357.35" y="2758.76" width="57.6057" height="57.6057" rx="23" transform="rotate(-144.013 3357.35 2758.76)" fill="white"></rect><rect x="1596.5" y="1377.43" width="57.6057" height="577.752" rx="23" transform="rotate(-144.013 1596.5 1377.43)" fill="white"></rect><rect x="1460.11" y="1565.25" width="57.6057" height="133.849" rx="23" transform="rotate(-144.013 1460.11 1565.25)" fill="white"></rect><rect x="1547.72" y="1444.61" width="57.6057" height="57.6057" rx="23" transform="rotate(-144.013 1547.72 1444.61)" fill="white"></rect><rect x="2150.75" y="1882.91" width="57.6057" height="661.081" rx="23" transform="rotate(-144.013 2150.75 1882.91)" fill="white"></rect><rect x="1994.68" y="2097.82" width="57.6057" height="153.154" rx="23" transform="rotate(-144.013 1994.68 2097.82)" fill="white"></rect><rect x="2094.93" y="1959.77" width="57.6057" height="65.9143" rx="23" transform="rotate(-144.013 2094.93 1959.77)" fill="white"></rect><rect x="341.116" y="568.765" width="57.6057" height="661.081" rx="23" transform="rotate(-144.013 341.116 568.765)" fill="white"></rect><rect x="185.052" y="783.671" width="57.6057" height="153.154" rx="23" transform="rotate(-144.013 185.052 783.671)" fill="white"></rect><rect x="285.298" y="645.629" width="57.6057" height="65.9143" rx="23" transform="rotate(-144.013 285.298 645.629)" fill="white"></rect><rect x="2694.55" y="2402.77" width="57.6057" height="762.188" rx="23" transform="rotate(-144.013 2694.55 2402.77)" fill="white"></rect><rect x="2514.62" y="2650.54" width="57.6057" height="176.577" rx="23" transform="rotate(-144.013 2514.62 2650.54)" fill="white"></rect><rect x="2639.65" y="2478.37" width="57.6057" height="57.6057" rx="23" transform="rotate(-144.013 2639.65 2478.37)" fill="white"></rect><rect x="884.917" y="1088.62" width="57.6057" height="762.188" rx="23" transform="rotate(-144.013 884.917 1088.62)" fill="white"></rect><rect x="704.984" y="1336.4" width="57.6057" height="176.577" rx="23" transform="rotate(-144.013 704.984 1336.4)" fill="white"></rect><rect x="830.019" y="1164.22" width="57.6057" height="57.6057" rx="23" transform="rotate(-144.013 830.019 1164.22)" fill="white"></rect><rect x="3793.62" y="2633.76" width="57.6057" height="230.423" rx="23" transform="rotate(-144.013 3793.62 2633.76)" fill="white"></rect><rect x="3495.95" y="3043.67" width="57.6057" height="491.343" rx="23" transform="rotate(-144.013 3495.95 3043.67)" fill="white"></rect><rect x="3937.98" y="2434.97" width="57.6057" height="57.6057" rx="23" transform="rotate(-144.013 3937.98 2434.97)" fill="white"></rect><rect x="1983.99" y="1319.61" width="57.6057" height="230.423" rx="23" transform="rotate(-144.013 1983.99 1319.61)" fill="white"></rect><rect x="1686.31" y="1729.52" width="57.6057" height="491.343" rx="23" transform="rotate(-144.013 1686.31 1729.52)" fill="white"></rect><rect x="2128.34" y="1120.83" width="57.6057" height="57.6057" rx="23" transform="rotate(-144.013 2128.34 1120.83)" fill="white"></rect><rect x="2561.5" y="1793.05" width="57.6057" height="263.657" rx="23" transform="rotate(-144.013 2561.5 1793.05)" fill="white"></rect><rect x="2220.89" y="2262.08" width="57.6057" height="562.21" rx="23" transform="rotate(-144.013 2220.89 2262.08)" fill="white"></rect><rect x="2726.67" y="1565.6" width="57.6057" height="65.9143" rx="23" transform="rotate(-144.013 2726.67 1565.6)" fill="white"></rect><rect x="751.864" y="478.908" width="57.6057" height="263.657" rx="23" transform="rotate(-144.013 751.864 478.908)" fill="white"></rect><rect x="411.256" y="947.938" width="57.6057" height="562.21" rx="23" transform="rotate(-144.013 411.256 947.938)" fill="white"></rect><rect x="917.041" y="251.451" width="57.6057" height="65.9143" rx="23" transform="rotate(-144.013 917.041 251.451)" fill="white"></rect><rect x="3133.52" y="2274.05" width="57.6057" height="303.981" rx="23" transform="rotate(-144.013 3133.52 2274.05)" fill="white"></rect><rect x="2740.82" y="2814.81" width="57.6057" height="648.195" rx="23" transform="rotate(-144.013 2740.82 2814.81)" fill="white"></rect><rect x="3334.77" y="1996.92" width="57.6057" height="57.6057" rx="23" transform="rotate(-144.013 3334.77 1996.92)" fill="white"></rect><rect x="1323.89" y="959.901" width="57.6057" height="303.981" rx="23" transform="rotate(-144.013 1323.89 959.901)" fill="white"></rect><rect x="931.188" y="1500.67" width="57.6057" height="648.195" rx="23" transform="rotate(-144.013 931.188 1500.67)" fill="white"></rect><rect x="1525.13" y="682.777" width="57.6057" height="57.6057" rx="23" transform="rotate(-144.013 1525.13 682.777)" fill="white"></rect><rect x="3656.75" y="2505.05" width="57.6057" height="208.397" rx="23" transform="rotate(-144.013 3656.75 2505.05)" fill="white"></rect><rect x="3386.96" y="2876.57" width="57.6057" height="445.597" rx="23" transform="rotate(-144.013 3386.96 2876.57)" fill="white"></rect><rect x="3787.17" y="2325.46" width="57.6057" height="57.6057" rx="23" transform="rotate(-144.013 3787.17 2325.46)" fill="white"></rect><rect x="1847.12" y="1190.91" width="57.6057" height="208.397" rx="23" transform="rotate(-144.013 1847.12 1190.91)" fill="white"></rect><rect x="1577.32" y="1562.43" width="57.6057" height="445.597" rx="23" transform="rotate(-144.013 1577.32 1562.43)" fill="white"></rect><rect x="1977.54" y="1011.31" width="57.6057" height="57.6057" rx="23" transform="rotate(-144.013 1977.54 1011.31)" fill="white"></rect><rect x="2426.64" y="1661.58" width="57.6057" height="238.455" rx="23" transform="rotate(-144.013 2426.64 1661.58)" fill="white"></rect><rect x="2117.93" y="2086.69" width="57.6057" height="509.866" rx="23" transform="rotate(-144.013 2117.93 2086.69)" fill="white"></rect><rect x="2575.87" y="1456.09" width="57.6057" height="65.9143" rx="23" transform="rotate(-144.013 2575.87 1456.09)" fill="white"></rect><rect x="617.01" y="347.436" width="57.6057" height="238.455" rx="23" transform="rotate(-144.013 617.01 347.436)" fill="white"></rect><rect x="308.298" y="772.543" width="57.6057" height="509.866" rx="23" transform="rotate(-144.013 308.298 772.543)" fill="white"></rect><rect x="766.239" y="141.94" width="57.6057" height="65.9143" rx="23" transform="rotate(-144.013 766.239 141.94)" fill="white"></rect><rect x="3001.1" y="2139.21" width="57.6057" height="274.924" rx="23" transform="rotate(-144.013 3001.1 2139.21)" fill="white"></rect><rect x="2645.18" y="2629.34" width="57.6057" height="587.846" rx="23" transform="rotate(-144.013 2645.18 2629.34)" fill="white"></rect><rect x="3183.96" y="1887.41" width="57.6057" height="57.6057" rx="23" transform="rotate(-144.013 3183.96 1887.41)" fill="white"></rect><rect x="1191.47" y="825.069" width="57.6057" height="274.924" rx="23" transform="rotate(-144.013 1191.47 825.069)" fill="white"></rect><rect x="835.547" y="1315.19" width="57.6057" height="587.846" rx="23" transform="rotate(-144.013 835.547 1315.19)" fill="white"></rect><rect x="1374.33" y="573.266" width="57.6057" height="57.6057" rx="23" transform="rotate(-144.013 1374.33 573.266)" fill="white"></rect></g></svg> 