<?xml version="1.0" encoding="UTF-8"?> <svg xmlns="http://www.w3.org/2000/svg" width="93" height="93" viewBox="0 0 93 93" fill="none"><g filter="url(#filter0_b_1239_5871)"><rect x="0.888428" y="0.771362" width="91.383" height="91.9286" rx="45.6915" fill="#FFDD2D"></rect></g><path d="M27 30H66V49.6142C66 54.6424 63.3176 59.2888 58.9633 61.8031L46.5 69L34.0367 61.8031C29.6824 59.2888 27 54.6424 27 49.6142V30Z" fill="white"></path><path fill-rule="evenodd" clip-rule="evenodd" d="M37.7034 40.3226V46.4231C38.5376 45.481 40.0543 44.8435 41.7885 44.8435H43.6731V51.9351C43.6731 53.8219 43.1605 55.4733 42.3998 56.3816H50.5974C49.8383 55.4724 49.3269 53.823 49.3269 51.9387V44.8435H51.2116C52.9458 44.8435 54.4624 45.481 55.2967 46.4231V40.3226H37.7034Z" fill="#333333"></path><defs><filter id="filter0_b_1239_5871" x="-0.111572" y="-0.228638" width="93.3831" height="93.9286" filterUnits="userSpaceOnUse" color-interpolation-filters="sRGB"><feFlood flood-opacity="0" result="BackgroundImageFix"></feFlood><feGaussianBlur in="BackgroundImageFix" stdDeviation="0.5"></feGaussianBlur><feComposite in2="SourceAlpha" operator="in" result="effect1_backgroundBlur_1239_5871"></feComposite><feBlend mode="normal" in="SourceGraphic" in2="effect1_backgroundBlur_1239_5871" result="shape"></feBlend></filter></defs></svg> 