<?xml version="1.0" encoding="UTF-8"?> <svg xmlns="http://www.w3.org/2000/svg" width="446" height="251" viewBox="0 0 446 251" fill="none"><g data-figma-bg-blur-radius="32.3188"><rect x="1.07729" y="1.55581" width="443.845" height="247.845" rx="16.1594" fill="url(#paint0_linear_9914_89840)" fill-opacity="0.8"></rect><rect x="1.07729" y="1.55581" width="443.845" height="247.845" rx="16.1594" stroke="url(#paint1_linear_9914_89840)" stroke-width="2.15459"></rect><path d="M136.346 106.996L136.33 101.996L123.314 93.4231L121.435 88.9602L108.348 83.627L100.097 87.0575L82.3859 87.1242L75.6045 84.3607L60.2426 90.7517L55.3339 102.654L58.8365 110.973L51.71 128.256L61.0511 150.444L66.9696 147.982L71.5012 158.737L80.379 155.046L83.6706 162.861L90.4679 160.03L108.377 167.33L123.892 160.875L131.297 142.925L146.115 128.085L146.061 113.397L136.346 106.996Z" fill="#F4F6FF"></path><path d="M141.792 115.688L132.08 109.287L132.061 104.284L119.869 96.2542L118.175 92.2265L108.364 88.2305L100.966 91.3085L81.552 91.3783L75.6239 88.9642L63.528 93.9957L59.9648 102.636L63.4673 110.955L56.3408 128.241L63.3459 144.879L69.2644 142.418L73.796 153.176L82.6737 149.482L85.9653 157.296L94.335 153.815L95.9616 157.674L108.361 162.728L120.607 157.633L125.203 146.493L119.223 148.98L117.293 144.4L127.168 134.515L129.095 139.095L141.833 126.342L141.792 115.688Z" fill="black"></path><path d="M109.662 156.365L100.839 152.775L97.7615 145.469L100.612 138.557L106.154 151.721L112.682 149.005L109.662 156.365ZM124.855 123.86L130.182 127.37L121.762 130.864L113.494 139.155L113.459 129.273L106.38 124.61L98.0108 128.104L89.4079 148.967L85.8925 140.648L92.4822 124.673L84.1125 128.167L77.2289 144.86L73.7136 136.54L78.5807 124.737L70.211 128.231L66.7692 136.575L63.2539 128.256L67.5298 117.885L75.8994 114.391L73.0489 121.303L89.7913 114.34L86.9407 121.252L103.715 114.261L104.968 111.224L108.023 112.469L114.958 109.585L101.047 103.918L98.1961 110.833L89.8265 114.327L92.6771 107.415L75.9346 114.378L78.7884 107.45L84.3682 105.128L75.6726 101.587L72.7548 102.8L75.3114 108.892L70.4092 110.932L66.8939 102.613L68.4406 98.8581L75.631 95.8658L86.3623 100.24L87.3945 97.7368L102.248 97.6828L108.375 95.1416L113.267 97.1332L114.689 100.51L125.513 107.641L120.873 109.572L135.749 119.375L126.683 119.407L124.855 123.86Z" fill="#F4F6FF"></path><path d="M186.32 136.53H180.578L173.827 125.345L167.076 136.53H161.334L170.978 120.615L161.904 105.584H167.602L173.827 115.885L180.052 105.584H185.794L176.72 120.615L186.32 136.53Z" fill="#010C2C"></path><path d="M213.174 136.53H207.168L195.07 121.809V136.53H190.029V105.584H195.07V119.466L206.73 105.584H212.735L200.33 120.659L213.174 136.53Z" fill="#010C2C"></path><path d="M247.345 105.584V110.447H238.709V136.53H233.668V110.447H224.989V105.584H247.345Z" fill="#010C2C"></path><path d="M260.303 113.851C263.313 113.851 265.884 114.986 268.018 117.255C270.151 119.495 271.218 122.236 271.218 125.478C271.218 128.75 270.151 131.505 268.018 133.745C265.884 135.985 263.313 137.105 260.303 137.105C256.971 137.105 254.414 135.867 252.632 133.392V145.372H247.898V114.426H252.632V117.609C254.414 115.104 256.971 113.851 260.303 113.851ZM254.604 130.562C255.919 131.888 257.57 132.552 259.558 132.552C261.545 132.552 263.196 131.888 264.511 130.562C265.826 129.206 266.484 127.512 266.484 125.478C266.484 123.444 265.826 121.765 264.511 120.438C263.196 119.083 261.545 118.405 259.558 118.405C257.57 118.405 255.919 119.083 254.604 120.438C253.289 121.765 252.632 123.444 252.632 125.478C252.632 127.512 253.289 129.206 254.604 130.562Z" fill="#010C2C"></path><path d="M292.867 114.426H297.601V136.53H292.867V133.347C291.084 135.853 288.527 137.105 285.196 137.105C282.186 137.105 279.614 135.985 277.481 133.745C275.348 131.476 274.281 128.72 274.281 125.478C274.281 122.207 275.348 119.451 277.481 117.211C279.614 114.971 282.186 113.851 285.196 113.851C288.527 113.851 291.084 115.089 292.867 117.565V114.426ZM280.988 130.562C282.303 131.888 283.954 132.552 285.941 132.552C287.928 132.552 289.579 131.888 290.895 130.562C292.21 129.206 292.867 127.512 292.867 125.478C292.867 123.444 292.21 121.765 290.895 120.438C289.579 119.083 287.928 118.405 285.941 118.405C283.954 118.405 282.303 119.083 280.988 120.438C279.673 121.765 279.015 123.444 279.015 125.478C279.015 127.512 279.673 129.206 280.988 130.562Z" fill="#010C2C"></path><path d="M322.494 136.53H316.84L307.854 126.318V136.53H303.119V114.426H307.854V124.196L316.358 114.426H322.144L312.5 125.257L322.494 136.53Z" fill="#010C2C"></path><path d="M342.424 114.426V119.024H335.279V136.53H330.545V119.024H323.356V114.426H342.424Z" fill="#010C2C"></path><path d="M355.116 137.105C351.902 137.105 349.169 135.985 346.919 133.745C344.669 131.505 343.544 128.75 343.544 125.478C343.544 122.207 344.669 119.451 346.919 117.211C349.169 114.971 351.902 113.851 355.116 113.851C358.36 113.851 361.092 114.971 363.313 117.211C365.564 119.451 366.689 122.207 366.689 125.478C366.689 128.75 365.564 131.505 363.313 133.745C361.092 135.985 358.36 137.105 355.116 137.105ZM350.251 130.474C351.566 131.8 353.188 132.463 355.116 132.463C357.045 132.463 358.667 131.8 359.982 130.474C361.297 129.147 361.955 127.482 361.955 125.478C361.955 123.474 361.297 121.809 359.982 120.482C358.667 119.156 357.045 118.493 355.116 118.493C353.188 118.493 351.566 119.156 350.251 120.482C348.936 121.809 348.278 123.474 348.278 125.478C348.278 127.482 348.936 129.147 350.251 130.474Z" fill="#010C2C"></path><path d="M383.375 113.851C386.385 113.851 388.956 114.986 391.09 117.255C393.223 119.495 394.29 122.236 394.29 125.478C394.29 128.75 393.223 131.505 391.09 133.745C388.956 135.985 386.385 137.105 383.375 137.105C380.043 137.105 377.486 135.867 375.704 133.392V145.372H370.969V114.426H375.704V117.609C377.486 115.104 380.043 113.851 383.375 113.851ZM377.676 130.562C378.991 131.888 380.642 132.552 382.63 132.552C384.617 132.552 386.268 131.888 387.583 130.562C388.898 129.206 389.556 127.512 389.556 125.478C389.556 123.444 388.898 121.765 387.583 120.438C386.268 119.083 384.617 118.405 382.63 118.405C380.642 118.405 378.991 119.083 377.676 120.438C376.361 121.765 375.704 123.444 375.704 125.478C375.704 127.512 376.361 129.206 377.676 130.562Z" fill="#010C2C"></path></g><defs><clipPath id="bgblur_0_9914_89840_clip_path" transform="translate(32.3188 31.8403)"><rect x="1.07729" y="1.55581" width="443.845" height="247.845" rx="16.1594"></rect></clipPath><linearGradient id="paint0_linear_9914_89840" x1="223" y1="0.478516" x2="223" y2="250.479" gradientUnits="userSpaceOnUse"><stop stop-color="white"></stop><stop offset="1" stop-color="white" stop-opacity="0.6"></stop></linearGradient><linearGradient id="paint1_linear_9914_89840" x1="223" y1="0.478516" x2="223" y2="250.479" gradientUnits="userSpaceOnUse"><stop stop-color="white"></stop><stop offset="1" stop-color="#EBEBEB"></stop></linearGradient></defs></svg> 