<?xml version="1.0" encoding="UTF-8"?> <svg xmlns="http://www.w3.org/2000/svg" width="58" height="58" viewBox="0 0 58 58" fill="none"><g data-figma-bg-blur-radius="21.6928"><g clip-path="url(#clip1_864_9403)"><mask id="mask0_864_9403" style="mask-type:luminance" maskUnits="userSpaceOnUse" x="9" y="10" width="40" height="38"><path d="M48.5 10.625H9.5V47.375H48.5V10.625Z" fill="white"></path></mask><g mask="url(#mask0_864_9403)"><path fill-rule="evenodd" clip-rule="evenodd" d="M31.964 42.6418C30.6695 43.3939 29.8762 43.7631 29.0011 44.1866C28.1649 43.7832 27.3631 43.4111 26.0371 42.6406L16.9495 47.3755L18.6838 37.3478C17.547 36.3487 16.9236 35.6909 16.284 35.0326C16.4028 34.1941 16.5227 33.2434 16.8516 31.7633L9.5 24.6623L19.6602 23.199C20.2554 21.8494 20.676 21.0912 21.1417 20.2214C22.1225 20.0507 22.9525 19.8934 24.4576 19.7461L29 10.625L33.544 19.7461C35.052 19.8939 35.878 20.0507 36.8595 20.2214C37.3032 21.0488 37.735 21.826 38.3409 23.199L48.5 24.6623L41.149 31.7622C41.475 33.2306 41.5831 34.092 41.7171 35.0326C41.0527 35.7149 40.4699 36.333 39.3162 37.349L41.0527 47.3755L31.9646 42.6424L31.964 42.6418Z" fill="white"></path><path fill-rule="evenodd" clip-rule="evenodd" d="M31.9482 42.0097C30.9802 42.5821 30.0128 43.0843 29.0021 43.5729C27.9903 43.0831 27.0229 42.5821 26.0538 42.0086L17.6893 46.3669L19.2873 37.1381C18.4376 36.4023 17.6566 35.6463 16.8756 34.8435C17.0322 33.7383 17.214 32.6744 17.4652 31.5831L10.6992 25.0484L20.0491 23.7022C20.4934 22.674 20.9765 21.7033 21.5075 20.7186C22.6174 20.5256 23.6951 20.3677 24.8207 20.2672L29.0004 11.8719L33.183 20.2672C34.3086 20.3677 35.3863 20.5261 36.4962 20.7186C37.0243 21.7049 37.5097 22.6723 37.9528 23.7022L47.3044 25.0484L40.5379 31.582C40.7885 32.6721 40.972 33.7383 41.1275 34.8435C40.347 35.6474 39.5655 36.4017 38.7163 37.1381L40.3121 46.3669L31.9476 42.0097H31.9482Z" fill="black"></path><path d="M33.6354 31.2567C33.5099 31.8409 33.2892 32.5488 32.913 33.1463C32.7002 32.8992 32.4541 32.8701 32.3229 32.8701C31.8685 32.8701 31.5875 33.2161 31.4327 33.3768C31.2046 33.4119 30.9129 33.5291 30.6844 34.1667C30.6264 34.1851 30.5751 34.2114 30.5273 34.2404C30.3206 34.073 30.2023 33.7706 30.1826 33.3288L30.0807 31.0776C30.5672 31.1223 30.8161 30.8009 31.0594 30.4444C31.5166 30.3496 31.6821 29.9428 31.7621 29.4971C32.1258 29.255 32.1112 28.8282 32.1123 28.7696L32.7672 28.7205V27.2945H32.0065C32.2165 26.7009 31.5993 26.1804 31.565 26.1441C31.5436 25.5148 30.833 25.3095 30.7418 25.2816C30.744 25.2464 30.7452 25.2107 30.7452 25.1756C30.7452 24.2227 29.9613 23.4467 29.0013 23.4467C28.0412 23.4467 27.307 24.1764 27.2614 25.0897C26.9787 25.2052 26.7856 25.4875 26.6876 25.719C26.2456 25.8099 26.0778 26.3282 26.0373 26.7344C26.2619 26.6278 26.4928 26.6942 26.5069 26.8125C26.7276 26.6569 26.9455 26.6764 26.937 26.8114C27.1989 26.7394 27.396 26.4387 27.5632 26.1519C27.7073 26.3611 27.8971 26.5391 28.124 26.6685L28.0942 27.2945H25.2349V28.7205L28.0187 28.928L27.941 30.6447C27.6516 30.7111 27.4078 30.9214 27.2867 31.0972C26.7896 31.1452 26.4703 31.5329 26.3864 31.857C25.8413 32.1215 25.7957 32.6409 25.816 32.917C25.7518 32.9907 25.5052 33.2847 25.624 33.8002C24.906 33.1402 24.5411 32.0769 24.3655 31.2573C23.2601 32.3954 23.348 34.5784 24.0901 35.7445L24.6853 35.3104C25.9596 37.1939 27.4861 36.7336 29.0007 38.6327C30.5154 36.7336 32.0419 37.1939 33.3162 35.3104L33.9114 35.7445C34.6535 34.5784 34.7414 32.3954 33.636 31.2573L33.6354 31.2567ZM27.8183 33.3276C27.7845 34.0803 27.468 34.4301 26.9078 34.3921L26.8577 34.3871C26.937 34.15 26.9112 33.8381 26.7896 33.6183C26.972 33.4303 26.9934 33.2607 27.0181 32.8729C27.2676 32.7603 27.3515 32.5968 27.5131 32.2682C27.7029 32.2531 27.8228 32.1817 27.8712 32.1505L27.8177 33.3282L27.8183 33.3276ZM29.8775 26.6674C30.0306 26.5804 30.1663 26.4705 30.2829 26.3444C30.3183 26.3606 30.3538 26.3762 30.391 26.3918C30.4462 26.702 30.6382 26.9085 30.8071 27.0507C30.784 27.1896 30.7902 27.2716 30.7919 27.2928H29.9073L29.8775 26.6669V26.6674ZM29.9822 28.9264L30.7519 28.8689C30.6731 28.9995 30.641 29.1272 30.592 29.3476C30.3454 29.4419 30.1967 29.6087 30.025 29.8698L29.9822 28.9269V28.9264Z" fill="#B9975B"></path><path d="M32.7685 21.9287L29.001 14.3658V21.7764C30.2983 21.7764 31.5697 21.8283 32.7685 21.9287Z" fill="#B9975B"></path><path d="M20.2019 28.1073L13.0908 25.8182L19.1856 31.7052C19.4632 30.5269 19.8078 29.3096 20.2019 28.1079V28.1073Z" fill="#B9975B"></path><path d="M36.4873 24.6049C36.962 25.7201 37.4051 26.9056 37.7993 28.1073L44.9104 25.8183L36.4873 24.6049Z" fill="white"></path><path d="M29.0005 21.7768V14.3656L28.9994 14.3645L25.2324 21.9285C26.4312 21.8286 27.7026 21.7762 29 21.7762L29.0005 21.7768Z" fill="white"></path><path d="M20.6072 36.0355L19.168 44.3499L23.5639 38.3547C22.5318 37.6116 21.5307 36.8272 20.6072 36.0355Z" fill="white"></path><path d="M21.5139 24.6049L13.0908 25.8183L20.2019 28.1073C20.5961 26.9056 21.0398 25.7201 21.5139 24.6049Z" fill="white"></path><path fill-rule="evenodd" clip-rule="evenodd" d="M32.8105 41.2125L38.8327 44.3501L34.7842 38.828L32.8105 41.2125Z" fill="white"></path><path fill-rule="evenodd" clip-rule="evenodd" d="M37.6929 37.7601L34.7852 38.8279L38.8337 44.35L37.6929 37.7601Z" fill="#B9975B"></path><path fill-rule="evenodd" clip-rule="evenodd" d="M38.3604 27.9271L40.0823 30.4812L44.9101 25.8182L38.3604 27.9271Z" fill="#B9975B"></path><path fill-rule="evenodd" clip-rule="evenodd" d="M23.2165 38.828L19.168 44.3501L25.2385 41.1874L23.2165 38.828Z" fill="#B9975B"></path><path fill-rule="evenodd" clip-rule="evenodd" d="M29.0005 22.2918C31.1442 22.2918 33.2631 22.4391 35.0345 22.7102L35.766 21.7121C31.7687 21.0131 26.2313 21.0131 22.2335 21.7121C20.3269 25.2637 18.6157 30.4801 18.0498 34.4629L19.2362 34.0819C19.8235 30.4812 21.305 25.9661 22.9649 22.7102C24.7364 22.4391 26.8553 22.2918 29 22.2918H29.0005Z" fill="white"></path><path fill-rule="evenodd" clip-rule="evenodd" d="M35.767 21.7122L35.0355 22.7103C36.6955 25.9656 38.1769 30.4813 38.7642 34.0819C36.1527 36.6533 32.2759 39.4439 29.001 41.1104C25.7261 39.4439 21.8482 36.6533 19.2372 34.0819L18.0508 34.463C20.873 37.3568 25.3517 40.5815 29.001 42.3444C32.6492 40.5815 37.1285 37.3568 39.9489 34.463C39.3836 30.4801 37.6724 25.2638 35.767 21.7122Z" fill="#B9975B"></path><path d="M28.085 36.5069C27.6042 36.5488 27.1858 36.421 26.983 36.0762C26.6007 36.0065 26.1767 35.7537 26.1058 35.2745C25.8659 35.1155 25.5821 34.7512 25.6396 34.2602C25.0951 33.882 24.5674 33.232 24.2217 32.0878C23.7819 33.0111 23.881 34.4845 24.2595 35.1791C24.3546 34.9214 24.4813 34.7043 24.6243 34.5052C25.8524 36.9237 27.6458 36.3435 29.0062 38.0462L29.004 36.6258C28.7635 36.7212 28.3964 36.7323 28.0856 36.5069H28.085Z" fill="white"></path><path d="M29.7651 25.9353C29.6727 25.9364 29.3669 25.9604 29.0803 25.793C29.0561 25.7958 29.0314 25.7981 29.006 25.7981C28.6738 25.7981 28.4041 25.5303 28.4041 25.2017C28.4041 24.8731 28.6732 24.6053 29.006 24.6053C29.0263 24.6053 29.0465 24.6064 29.0662 24.6081C29.2251 24.6008 29.4266 24.6376 29.6789 24.766C29.7194 24.7671 30.0472 24.7464 30.3219 24.8563C30.1671 24.2789 29.6361 23.8516 29.006 23.8516C28.2532 23.8516 27.6434 24.4563 27.6434 25.2017C27.6434 25.7635 27.9953 26.2622 28.5206 26.4631L28.4632 27.6994H25.623V28.3934L25.8736 28.0302L28.4457 28.1167L28.2002 33.4536C28.1614 34.3021 27.7689 34.7083 27.2087 34.7585C27.2345 34.8137 27.2537 34.8723 27.2644 34.9354C27.5848 35.0252 27.7937 35.1211 27.9322 35.3415C28.2588 35.3131 28.4981 35.3253 28.707 35.4838C28.8844 35.404 28.8652 35.4023 29.0038 35.3554L29.006 26.1624L29.4903 26.4631C29.6699 26.3956 29.8304 26.2907 29.9644 26.1596C29.8917 26.101 29.8247 26.0296 29.7651 25.9359V25.9353Z" fill="white"></path><path d="M32.0334 34.4969C32.0086 34.6883 31.9613 34.8701 31.9033 35.0353C33.0565 34.4495 33.815 33.3638 33.7919 32.084C33.5582 33.091 32.9428 33.9942 32.0334 34.4969Z" fill="white"></path><path d="M27.3431 26.0107C27.1269 25.9945 26.9354 25.9348 26.7609 25.9644C26.6714 25.9778 26.5942 26.0207 26.5165 26.1005C26.4811 26.1424 26.4473 26.1954 26.4157 26.2595C26.3853 26.3243 26.3622 26.4035 26.3408 26.4944C26.512 26.4587 26.7153 26.5178 26.9045 26.4905C27.0937 26.4632 27.1979 26.2607 27.3437 26.0107H27.3431Z" fill="white"></path><path d="M30.7958 26.4662C30.8149 26.5091 30.8386 26.5538 30.8741 26.5973C30.8915 26.619 30.9112 26.6414 30.9343 26.6637C30.9563 26.6866 30.9771 26.7122 31.003 26.7368C31.0424 26.6341 31.0835 26.5443 31.1202 26.4567C31.1573 26.3691 31.19 26.2837 31.2001 26.1962C31.2052 26.1119 31.1866 26.0249 31.1269 25.9328C31.0976 25.886 31.0503 25.8452 30.9946 25.8006C30.9383 25.7565 30.8701 25.7119 30.7806 25.6779C30.7857 25.8447 30.7294 26.0399 30.7395 26.209C30.7395 26.2983 30.7519 26.3847 30.7958 26.4662Z" fill="white"></path><path d="M30.668 30.0707C30.7615 30.0891 30.851 30.1036 30.9389 30.0964C31.0278 30.0902 31.1061 30.0511 31.1866 29.9764C31.2277 29.9401 31.2604 29.886 31.2936 29.823C31.3263 29.7594 31.3578 29.684 31.3747 29.5903C31.2097 29.6277 31.007 29.6121 30.8403 29.6523C30.6607 29.6868 30.5245 29.7716 30.3662 30.0121C30.4721 30.0244 30.5751 30.0528 30.668 30.0712V30.0707Z" fill="white"></path><path d="M30.137 30.2565C30.1055 30.252 30.0739 30.2514 30.043 30.252L30.0632 30.7022C30.0728 30.705 30.0824 30.7084 30.0919 30.7106C30.2558 30.7441 30.4506 30.6922 30.6606 30.3842C30.619 30.377 30.5762 30.3669 30.5334 30.3558C30.49 30.3429 30.4461 30.3296 30.4016 30.3162C30.3132 30.2894 30.226 30.2671 30.137 30.2576V30.2565Z" fill="white"></path><path d="M29.6965 25.5757C29.6526 25.4781 29.6205 25.3799 29.5845 25.294C29.549 25.2064 29.5124 25.1204 29.4555 25.0546C29.1689 24.7411 28.7218 24.9888 29.1407 25.3883C29.2703 25.5082 29.4127 25.5791 29.696 25.5757H29.6965Z" fill="white"></path><path d="M30.1691 25.8563C30.2355 25.9237 30.3313 25.9728 30.4619 26.0292C30.4551 25.8144 30.4889 25.6253 30.4411 25.4562C30.4169 25.372 30.3639 25.3022 30.2738 25.2386C30.2299 25.2051 30.1696 25.1856 30.101 25.165C30.0666 25.1555 30.0289 25.1466 29.9889 25.1393C29.9478 25.1337 29.9028 25.1321 29.8555 25.131C29.9236 25.285 29.9472 25.4841 30.0199 25.6381C30.0525 25.7223 30.0998 25.7932 30.1685 25.8563H30.1691Z" fill="white"></path><path d="M31.0645 34.1808C31.2323 34.1774 31.426 34.207 31.6022 34.1802C31.6467 34.1741 31.69 34.1646 31.7317 34.149C31.774 34.1362 31.8145 34.1166 31.8539 34.0915C31.9339 34.0452 32.0042 33.9721 32.0876 33.8717C32.0397 33.8561 31.9919 33.8383 31.9434 33.8204C31.895 33.8042 31.8483 33.7891 31.8038 33.7741C31.7098 33.744 31.6236 33.7261 31.5341 33.7283C31.3618 33.7351 31.1855 33.8455 31.065 34.1808H31.0645Z" fill="white"></path><path d="M32.4309 33.7495C32.5244 33.6585 32.6122 33.5609 32.6933 33.4577C32.655 33.3991 32.6116 33.3472 32.5576 33.3071C32.4855 33.2513 32.3915 33.2212 32.2682 33.2334C32.1471 33.2496 31.9945 33.3143 31.8555 33.4588C32.0277 33.5129 32.1877 33.6217 32.3341 33.7032C32.3656 33.7188 32.3977 33.7355 32.4304 33.7495H32.4309Z" fill="white"></path><path d="M31.5476 27.7237C31.4789 27.7862 31.4119 27.8503 31.3595 27.9217C31.3331 27.9574 31.3105 27.9954 31.2937 28.0355C31.2756 28.0763 31.257 28.1192 31.248 28.1661C31.2379 28.2135 31.2351 28.2648 31.239 28.3223C31.2379 28.3786 31.2446 28.4412 31.2599 28.5126C31.346 28.4495 31.4367 28.3999 31.5217 28.3507C31.6028 28.3011 31.6765 28.2514 31.7345 28.1878C31.7925 28.1242 31.8359 28.0461 31.8381 27.9407C31.8398 27.8358 31.8252 27.7019 31.7351 27.5374C31.6788 27.6015 31.6157 27.6618 31.5482 27.7237H31.5476Z" fill="white"></path><path d="M31.1632 27.1332C31.1576 27.1762 31.1513 27.223 31.1558 27.2705C31.1592 27.3185 31.1705 27.3681 31.1908 27.4217C31.2077 27.4758 31.2291 27.5355 31.2634 27.6002C31.3287 27.5154 31.4042 27.4417 31.4706 27.3715C31.5337 27.3017 31.5911 27.2331 31.6288 27.1555C31.6666 27.078 31.6868 26.9898 31.6564 26.8861C31.6429 26.8342 31.6199 26.7773 31.5855 26.7159C31.5506 26.6551 31.4943 26.5932 31.4306 26.5262C31.398 26.606 31.3541 26.6847 31.313 26.7639C31.2719 26.8425 31.2228 26.9251 31.1947 27.0077C31.1801 27.049 31.1694 27.0908 31.1643 27.1338L31.1632 27.1332Z" fill="white"></path><path d="M31.7081 29.0085C31.7323 28.9588 31.7402 28.8974 31.7458 28.8271C31.7492 28.7563 31.7526 28.676 31.7312 28.5845C31.6625 28.6313 31.5786 28.6704 31.4952 28.7105C31.4119 28.7507 31.3325 28.7926 31.2616 28.8433C31.185 28.8924 31.1242 28.9521 31.0769 29.0324C31.0228 29.11 30.9952 29.2126 30.9648 29.3493C31.176 29.3019 31.3686 29.2958 31.5274 29.2154C31.6051 29.1742 31.6636 29.1089 31.7081 29.0085Z" fill="white"></path><path d="M26.6277 32.1466C26.5821 32.1612 26.5371 32.1812 26.4926 32.2086C26.4475 32.2353 26.4048 32.2705 26.3698 32.3174C26.3333 32.3631 26.2995 32.4178 26.2696 32.4814C26.2437 32.5467 26.2262 32.6231 26.2139 32.7068C26.3225 32.6549 26.4245 32.632 26.5185 32.6164C26.6165 32.603 26.7049 32.5963 26.7815 32.5757C26.8552 32.5534 26.9273 32.5249 26.9859 32.4613C27.0146 32.4289 27.0416 32.3888 27.0731 32.3408C27.1041 32.2928 27.1283 32.2281 27.1638 32.1567C27.081 32.1428 26.9988 32.1305 26.907 32.1232C26.8181 32.1182 26.7167 32.1154 26.6283 32.1466H26.6277Z" fill="white"></path><path d="M29.4513 35.7056C29.3769 35.6705 29.3077 35.6615 29.2215 35.6699C29.1787 35.6755 29.1337 35.6922 29.0796 35.7101C29.0261 35.7301 28.967 35.7625 28.8955 35.7949C28.949 35.8551 29.0064 35.9243 29.0729 35.9834C29.1393 36.0437 29.2164 36.104 29.3066 36.1357C29.3516 36.1525 29.4006 36.1664 29.453 36.1709C29.5047 36.1737 29.5605 36.1704 29.6191 36.1581C29.6776 36.1453 29.7373 36.119 29.8004 36.0855C29.8617 36.0493 29.9237 36.0008 29.9839 35.9394C29.8657 35.9176 29.7689 35.8736 29.6844 35.8289C29.5982 35.7809 29.525 35.7363 29.4518 35.705L29.4513 35.7056Z" fill="white"></path><path d="M28.5548 35.8332C28.5002 35.7757 28.4405 35.7266 28.3549 35.7088C28.3121 35.701 28.2642 35.6887 28.2057 35.6887C28.1764 35.6887 28.1448 35.6893 28.1105 35.6926C28.0761 35.6943 28.0395 35.6943 27.999 35.6982C28.0542 35.8522 28.1105 36.029 28.2462 36.1713C28.3149 36.2343 28.4039 36.2896 28.5193 36.3147C28.6353 36.3326 28.7772 36.332 28.9393 36.2662C28.7445 36.1323 28.6646 35.9443 28.5553 35.8338L28.5548 35.8332Z" fill="white"></path><path d="M30.2194 35.2152C30.1372 35.2135 30.0646 35.2325 29.9891 35.2782C29.9525 35.3028 29.9148 35.3346 29.8748 35.3753C29.8359 35.4188 29.792 35.4668 29.7441 35.5315C29.8906 35.5918 30.0674 35.6782 30.2605 35.6688C30.452 35.6615 30.6625 35.551 30.7999 35.2537C30.5696 35.2793 30.3816 35.2135 30.2205 35.2152H30.2194Z" fill="white"></path><path d="M30.8544 34.495C30.6883 34.5245 30.5599 34.6277 30.4434 34.9391C30.6061 34.9485 30.7993 34.9803 30.98 34.9335C31.1619 34.8877 31.3263 34.7627 31.4338 34.4788C31.2131 34.5056 31.0188 34.4648 30.8544 34.4944V34.495Z" fill="white"></path><path d="M27.9104 31.2848L27.9217 31.0365C27.8468 31.0739 27.7697 31.1274 27.6914 31.205C27.7731 31.2251 27.8446 31.2541 27.9104 31.2848Z" fill="white"></path><path d="M26.5347 34.1104C26.537 34.0696 26.5314 34.0245 26.5161 33.972C26.4992 33.9207 26.4886 33.8498 26.4598 33.7739C26.3939 33.8202 26.318 33.8666 26.2442 33.9218C26.1721 33.9765 26.1096 34.0429 26.0595 34.1288C26.0049 34.2153 25.9902 34.3179 25.9998 34.4406C26.0021 34.5031 26.028 34.5645 26.0578 34.6309C26.0736 34.6638 26.0916 34.6973 26.1118 34.7313C26.1332 34.7648 26.1625 34.796 26.1924 34.8284C26.2064 34.7698 26.2222 34.7196 26.2475 34.671C26.2723 34.6225 26.2994 34.579 26.3264 34.5388C26.3534 34.4998 26.3793 34.4629 26.4041 34.4267C26.4277 34.391 26.4503 34.3575 26.4728 34.324C26.5173 34.2554 26.5347 34.1912 26.5364 34.1098L26.5347 34.1104Z" fill="white"></path><path d="M26.237 33.5615C26.322 33.5135 26.4003 33.4739 26.4622 33.4248C26.5247 33.3762 26.5805 33.3216 26.6081 33.239C26.6204 33.1971 26.6334 33.1503 26.6418 33.094C26.6458 33.0655 26.648 33.0348 26.6486 33.0008C26.6486 32.9835 26.6486 32.9656 26.6486 32.9472C26.6497 32.9294 26.6508 32.9104 26.652 32.8909C26.5709 32.9087 26.4881 32.9288 26.4025 32.9578C26.3181 32.9874 26.2268 33.0253 26.1542 33.0867C26.0838 33.1481 26.0185 33.2301 25.9825 33.34C25.9673 33.3952 25.9577 33.4566 25.9555 33.5252C25.9549 33.5592 25.9543 33.5955 25.9588 33.6323C25.9644 33.6697 25.9729 33.7082 25.983 33.7489C26.0236 33.7071 26.0653 33.6725 26.1069 33.6418C26.1497 33.6111 26.1948 33.5849 26.237 33.5609V33.5615Z" fill="white"></path><path d="M26.8549 34.8658C26.8172 34.7894 26.7338 34.723 26.6201 34.6193C26.5852 34.6879 26.539 34.7671 26.5069 34.8508C26.4771 34.9333 26.4545 35.0248 26.4551 35.123C26.4574 35.2201 26.4911 35.3172 26.5564 35.4176C26.6308 35.5074 26.7366 35.605 26.8994 35.6625C26.8481 35.4354 26.9179 35.2402 26.9117 35.0879C26.9146 35.007 26.9028 34.9345 26.8543 34.8647L26.8549 34.8658Z" fill="white"></path><path d="M27.5182 35.422C27.4805 35.3992 27.4405 35.3718 27.3853 35.3518C27.3583 35.3411 27.3285 35.3317 27.2947 35.3222C27.2626 35.3116 27.2282 35.2993 27.1894 35.2887C27.1849 35.451 27.1758 35.6374 27.253 35.817C27.2947 35.9007 27.3589 35.9816 27.4568 36.0457C27.5576 36.1021 27.6888 36.1518 27.8606 36.149C27.7333 35.9543 27.726 35.7501 27.6618 35.6078C27.6314 35.5342 27.5914 35.4684 27.5177 35.4209L27.5182 35.422Z" fill="white"></path><path d="M27.1144 31.5219C27.0649 31.5509 27.0136 31.5866 26.9652 31.6351C26.9185 31.6865 26.8729 31.7478 26.8301 31.8198C26.9494 31.8142 27.053 31.8321 27.1459 31.8521C27.2405 31.8739 27.3273 31.9007 27.4072 31.9074C27.4472 31.9113 27.486 31.9107 27.5243 31.9029C27.5643 31.8973 27.6043 31.8856 27.6448 31.8644C27.6859 31.8438 27.7254 31.812 27.7709 31.7729C27.8104 31.74 27.8977 31.6106 27.8977 31.6106C27.7552 31.5498 27.5897 31.4566 27.4106 31.4521C27.316 31.4488 27.2135 31.4616 27.115 31.5219H27.1144Z" fill="white"></path><path d="M27.2703 25.386C27.2438 25.4049 27.2173 25.4278 27.1903 25.454C27.1357 25.5036 27.0839 25.5706 27.0332 25.6521C27.1346 25.6632 27.2399 25.6917 27.3451 25.7168C27.3091 25.6097 27.2838 25.4986 27.2697 25.3854L27.2703 25.386Z" fill="white"></path><path fill-rule="evenodd" clip-rule="evenodd" d="M30.9613 27.8901C30.9674 27.8751 30.9748 27.8606 30.9821 27.8455L30.941 27.7674C30.9286 27.744 30.9179 27.7211 30.9078 27.6993H29.5485L29.0068 28.1362L30.8976 28.0726C30.9145 27.9973 30.9432 27.9315 30.9613 27.8907V27.8901Z" fill="white"></path></g></g></g><defs><clipPath id="bgblur_0_864_9403_clip_path" transform="translate(21.6928 21.6928)"><rect width="58" height="58" rx="11.5695"></rect></clipPath><clipPath id="clip1_864_9403"><rect width="39" height="36.75" fill="white" transform="translate(9.5 10.625)"></rect></clipPath></defs></svg> 