<?xml version="1.0" encoding="UTF-8"?> <svg xmlns="http://www.w3.org/2000/svg" width="58" height="58" viewBox="0 0 58 58" fill="none"><g data-figma-bg-blur-radius="21.6928"><path fill-rule="evenodd" clip-rule="evenodd" d="M32.7105 17.6526C34.0736 13.6759 33.5056 9.9594 30.855 9.55058C27.8636 9.06743 25.5538 12.0778 24.9101 17.2067C18.4729 17.9871 11.6191 21.9639 11.6191 28.728C11.6191 35.9752 20.0254 36.9787 21.2371 31.5897C15.6329 31.2181 15.9359 20.7374 24.7965 18.6933C24.7207 20.4029 24.7965 22.2983 25.0615 24.3424C23.9634 24.9742 22.7517 25.5689 21.4643 26.1635C21.4643 26.1635 21.5021 27.9475 21.5021 28.5421C22.9789 27.8732 24.2664 27.167 25.4024 26.4237C26.1975 31.9985 26.2732 40.1749 23.4333 44.3375C21.6914 43.4826 19.9118 42.6278 17.867 42.6278C12.1493 42.6278 12.0357 48.5 18.3972 48.5C20.5555 48.5 22.4488 47.7567 24.1149 46.5302C33.8843 51.7705 46.38 45.9356 46.38 33.1135C46.38 26.1263 40.6623 19.6596 32.7105 17.6526ZM18.6243 47.0877C15.5193 47.0877 15.5572 44.003 18.4729 44.003C19.6467 44.003 21.1235 44.7834 22.4109 45.5639C21.4264 46.4931 20.1769 47.0877 18.6243 47.0877ZM30.2492 12.3752C31.6502 12.5981 31.9153 14.8281 31.1579 17.3181C29.7191 17.058 28.2423 16.9836 26.6898 17.0208C27.2578 14.1963 28.6209 12.0778 30.2492 12.3752ZM26.4626 18.4331C27.8258 18.3216 29.2268 18.4331 30.5899 18.7676C29.7948 20.4772 28.5073 22.1868 26.7655 23.2647C26.349 21.7037 26.2732 20.0312 26.4626 18.4331ZM25.4024 45.4524C30.022 41.0297 32.3696 33.002 33.2406 29.5084C30.2492 29.0625 28.3938 27.2785 27.3714 25.0486C29.4919 23.4876 31.0443 21.3692 32.0667 19.2508C36.6864 20.9975 40.6244 25.5689 40.6244 33.4108C40.6244 42.1075 33.0134 48.7973 25.4024 45.4524Z" fill="white"></path></g><defs><clipPath id="bgblur_0_864_9416_clip_path" transform="translate(21.6928 21.6928)"><rect width="58" height="58" rx="11.5695"></rect></clipPath></defs></svg> 