<?xml version="1.0" encoding="UTF-8"?> <svg xmlns="http://www.w3.org/2000/svg" width="58" height="58" viewBox="0 0 58 58" fill="none"><g data-figma-bg-blur-radius="21.6928"><path d="M42.2701 20.9992L45.4946 18.0322L43.6674 12.2757H38.0865L30.885 8.84375L28.9999 9.73977L27.1147 8.84375L19.9133 12.2757H14.3406L12.5051 18.0322L15.7296 20.9992L11.8105 33.3322L28.9999 49.1562L46.1892 33.3322L42.2701 20.9992Z" fill="white"></path><path d="M40.9631 20.6444L44.1876 17.6774L42.8399 13.4339H37.8295L30.8843 10.1204L28.9992 11.0164L27.114 10.1204L20.1689 13.4339H15.1584L13.8107 17.6774L17.0353 20.6444L13.1162 32.9774L28.9992 47.6011L44.8821 32.9774L40.9631 20.6444Z" fill="#00205B"></path><path d="M41.6078 15.1667L42.2361 17.1363L40.3924 18.8354L39.2266 15.1667H41.6078Z" fill="white"></path><path d="M15.7705 17.1363L16.3906 15.1667H18.7718L17.606 18.8354L15.7705 17.1363Z" fill="white"></path><path d="M20.5584 15.1585L27.1149 12.0393L25.4779 17.2041L22.6006 18.5735L22.5096 18.8609H35.4905L35.3995 18.5735L32.5222 17.2041L30.8852 12.0393L37.4417 15.1585L42.9317 32.4365L36.3752 29.3173L34.705 24.068L36.5901 22.3351L36.4992 22.0392H21.5009L21.41 22.3351L23.2951 24.068L21.6249 29.3173L15.0684 32.4365L20.5584 15.1585Z" fill="white"></path><path d="M32.927 34.5495L33.7621 31.9121H24.2373L25.0724 34.5495L25.5437 33.0702H32.4558L32.927 34.5495Z" fill="white"></path><path d="M32.9184 24.0679H25.0803L23.4102 29.3172L23.683 30.171H28.1478L27.5855 28.4043L25.6756 29.3172V26.6376H32.3231V29.3172L30.4132 28.4043L29.851 30.171H34.3157L34.5886 29.3172L32.9184 24.0679Z" fill="white"></path><path d="M30.6781 14.9389L29.5288 14.3894L28.9914 12.7073L28.4539 14.3894L27.3047 14.9389L28.4539 15.4883L28.9914 17.1705L29.5288 15.4883L30.6781 14.9389Z" fill="#05C3DE"></path><path d="M42.9317 32.4362L41.8156 31.9121L32.5553 40.4328L31.8029 38.0659L31.3316 39.5452H26.6685L26.1972 38.0659L25.4448 40.4328L16.1845 31.9121L15.0684 32.4362L29.0001 45.2594L42.9317 32.4362Z" fill="#05C3DE"></path></g><defs><clipPath id="bgblur_0_864_9405_clip_path" transform="translate(21.6928 21.6928)"><rect width="58" height="58" rx="11.5695"></rect></clipPath></defs></svg> 