<?xml version="1.0" encoding="UTF-8"?> <svg xmlns="http://www.w3.org/2000/svg" viewBox="0 0 200.00 200.00" data-guides="{&quot;vertical&quot;:[],&quot;horizontal&quot;:[]}"><defs></defs><path fill="#e41e12" stroke="none" fill-opacity="1" stroke-width="1" stroke-opacity="1" clip-rule="evenodd" fill-rule="evenodd" id="tSvg11c2f99ad32" title="Path 1" d="M172.9167 58.3333C172.9167 61.7851 170.1183 64.5833 166.6667 64.5833C122.2222 64.5833 77.7778 64.5833 33.3333 64.5833C29.8816 64.5833 27.0833 61.7851 27.0833 58.3333C27.0833 54.8816 29.8816 52.0833 33.3333 52.0833C77.7778 52.0833 122.2222 52.0833 166.6667 52.0833C170.1183 52.0833 172.9167 54.8816 172.9167 58.3333Z"></path><path fill="#e41e12" stroke="none" fill-opacity="1" stroke-width="1" stroke-opacity="1" clip-rule="evenodd" fill-rule="evenodd" id="tSvg8a2e1ee5ec" title="Path 2" d="M172.9167 100C172.9167 103.4517 170.1183 106.25 166.6667 106.25C122.2222 106.25 77.7778 106.25 33.3333 106.25C29.8816 106.25 27.0833 103.4517 27.0833 100C27.0833 96.5483 29.8816 93.75 33.3333 93.75C77.7778 93.75 122.2222 93.75 166.6667 93.75C170.1183 93.75 172.9167 96.5483 172.9167 100Z"></path><path fill="#e41e12" stroke="none" fill-opacity="1" stroke-width="1" stroke-opacity="1" clip-rule="evenodd" fill-rule="evenodd" id="tSvg588a7d95f4" title="Path 3" d="M172.8331 141.2502C172.8331 144.8399 171.2596 147.7502 169.3188 147.7502C144.3283 147.7502 119.3377 147.7502 94.3472 147.7502C92.4063 147.7502 90.8329 144.8399 90.8329 141.2502C90.8329 137.6604 92.4063 134.7502 94.3472 134.7502C119.3377 134.7502 144.3283 134.7502 169.3188 134.7502C171.2596 134.7502 172.8331 137.6604 172.8331 141.2502Z" style=""></path></svg> 