<?xml version="1.0" encoding="UTF-8"?> <svg xmlns="http://www.w3.org/2000/svg" width="58" height="58" viewBox="0 0 58 58" fill="none"><g data-figma-bg-blur-radius="21.6928"><path d="M44.4292 21.3819L44.4226 19.3212L39.0576 15.7874L38.2831 13.9479L32.889 11.7496L29.488 13.1636L22.1879 13.1911L19.3928 12.0521L13.0609 14.6863L11.0377 19.5922L12.4813 23.0212L9.54395 30.1449L13.3942 39.2902L15.8337 38.2755L17.7015 42.7087L21.3607 41.1873L22.7175 44.4081L25.5192 43.2415L32.9009 46.2503L39.296 43.5898L42.348 36.1911L48.4559 30.0742L48.4335 24.0201L44.4292 21.3819Z" fill="#F4F6FF"></path><path d="M46.6733 24.9646L42.6703 22.3264L42.6624 20.2643L37.6372 16.9544L36.939 15.2943L32.8952 13.6472L29.8458 14.9159L21.8437 14.9447L19.4003 13.9497L14.4146 16.0235L12.9459 19.5848L14.3895 23.0137L11.4521 30.1388L14.3395 36.9968L16.779 35.9821L18.6468 40.4166L22.306 38.8939L23.6628 42.1147L27.1126 40.6797L27.783 42.2705L32.8939 44.3536L37.9414 42.2535L39.8356 37.6619L37.3711 38.687L36.5755 36.7991L40.6457 32.7246L41.44 34.6126L46.6904 29.3559L46.6733 24.9646Z" fill="black"></path><path d="M33.4304 41.7298L29.7936 40.2503L28.5251 37.239L29.7001 34.39L31.9841 39.8156L34.6752 38.6962L33.4304 41.7298ZM39.6925 28.332L41.8883 29.7787L38.4174 31.2189L35.0098 34.6361L34.9953 30.563L32.0776 28.641L28.6278 30.0812L25.0819 38.6805L23.6329 35.2515L26.3491 28.6672L22.8993 30.1074L20.062 36.9876L18.613 33.5586L20.6191 28.6934L17.1693 30.1336L15.7507 33.573L14.3018 30.144L16.0642 25.8693L19.514 24.4291L18.339 27.278L25.24 24.4081L24.065 27.2571L30.9791 24.3754L31.4954 23.1237L32.7547 23.637L35.6131 22.4481L29.8792 20.1124L28.7042 22.9627L25.2544 24.4029L26.4294 21.5539L19.5285 24.4238L20.7048 21.5683L23.0046 20.6112L19.4205 19.1514L18.2179 19.6515L19.2716 22.1627L17.251 23.0033L15.8021 19.5743L16.4396 18.0267L19.4034 16.7934L23.8266 18.5963L24.252 17.5645L30.3745 17.5423L32.8996 16.4949L34.9163 17.3158L35.5024 18.7075L39.9638 21.6469L38.0512 22.4429L44.1829 26.4833L40.446 26.4964L39.6925 28.332Z" fill="#F4F6FF"></path></g><defs><clipPath id="bgblur_0_864_9395_clip_path" transform="translate(21.6928 21.6928)"><rect width="58" height="58" rx="11.5695"></rect></clipPath></defs></svg> 