<?xml version="1.0" encoding="UTF-8"?> <svg xmlns="http://www.w3.org/2000/svg" width="369" height="172" viewBox="0 0 369 172" fill="none"><path d="M151.04 3C151.04 4.47276 152.234 5.66667 153.706 5.66667C155.179 5.66667 156.373 4.47276 156.373 3C156.373 1.52724 155.179 0.333333 153.706 0.333333C152.234 0.333333 151.04 1.52724 151.04 3ZM353.981 3L354.336 2.64781L354.189 2.5H353.981V3ZM368 17.1277H368.5V16.9217L368.355 16.7755L368 17.1277ZM368 169V169.5H368.5V169H368ZM0.333333 169C0.333333 170.473 1.52724 171.667 3 171.667C4.47276 171.667 5.66667 170.473 5.66667 169C5.66667 167.527 4.47276 166.333 3 166.333C1.52724 166.333 0.333333 167.527 0.333333 169ZM153.706 3.5H353.981V2.5H153.706V3.5ZM353.626 3.35219L367.645 17.4798L368.355 16.7755L354.336 2.64781L353.626 3.35219ZM367.5 17.1277V169H368.5V17.1277H367.5ZM368 168.5H3V169.5H368V168.5Z" fill="#013EDF"></path></svg> 