<?xml version="1.0" encoding="UTF-8"?> <svg xmlns="http://www.w3.org/2000/svg" width="292" height="294" viewBox="0 0 292 294" fill="none"> <path d="M31.2543 169.462C30.1797 168.379 28.9024 167.519 27.4957 166.933C26.089 166.346 24.5806 166.044 23.0573 166.044C21.5339 166.044 20.0255 166.346 18.6188 166.933C17.2121 167.519 15.9348 168.379 14.8603 169.462C13.2488 171.087 12.1532 173.154 11.7117 175.403C11.2701 177.652 11.5025 179.981 12.3794 182.098C13.2563 184.214 14.7385 186.022 16.6388 187.295C18.5392 188.567 20.7726 189.246 23.0573 189.246C25.3419 189.246 27.5753 188.567 29.4757 187.295C31.3761 186.022 32.8582 184.214 33.7351 182.098C34.612 179.981 34.8444 177.652 34.4029 175.403C33.9613 173.154 32.8657 171.087 31.2543 169.462Z" fill="#7289FF" fill-opacity="0.2"></path> <path d="M269.113 116.23C270.728 117.857 272.789 118.967 275.033 119.418C277.277 119.87 279.605 119.643 281.721 118.766C283.836 117.889 285.645 116.402 286.918 114.494C288.19 112.585 288.87 110.34 288.87 108.044C288.87 105.747 288.19 103.503 286.918 101.594C285.645 99.685 283.836 98.1981 281.721 97.3215C279.605 96.4448 277.277 96.2177 275.033 96.6691C272.789 97.1205 270.728 98.23 269.113 99.857C268.035 100.929 267.18 102.204 266.596 103.609C266.012 105.014 265.712 106.521 265.712 108.044C265.712 109.566 266.012 111.073 266.596 112.478C267.18 113.883 268.035 115.159 269.113 116.23Z" fill="#7289FF" fill-opacity="0.2"></path> <path d="M68.433 77.2425C69.5095 76.1674 70.3643 74.8901 70.9487 73.4836C71.5331 72.0771 71.8357 70.5689 71.8391 69.0451C71.8425 67.5213 71.5467 66.0117 70.9685 64.6026C70.3904 63.1935 69.5413 61.9124 68.4697 60.8324C67.398 59.7525 66.1248 58.895 64.7228 58.3087C63.3208 57.7224 61.8175 57.4189 60.2985 57.4155C58.7796 57.4121 57.2749 57.7088 55.8703 58.2888C54.4657 58.8688 53.1887 59.7206 52.1123 60.7957L3.36946 110.136C1.20519 112.317 -0.00683366 115.271 2.89849e-05 118.349C0.00689163 121.426 1.23208 124.375 3.40605 126.546C5.58003 128.717 8.52471 129.933 11.5923 129.926C14.6599 129.919 17.5992 128.69 19.7634 126.509L68.433 77.2425Z" fill="#7289FF" fill-opacity="0.2"></path> <path d="M84.8278 121.665C87.8734 121.656 90.7927 120.442 92.9516 118.287L191.023 19.8271C193.197 17.6558 194.422 14.7071 194.429 11.6297C194.436 8.55219 193.224 5.59802 191.059 3.41705C188.895 1.23607 185.956 0.00694434 182.888 5.95958e-05C179.821 -0.00682514 176.876 1.2091 174.702 3.38034L76.5576 101.841C75.4778 102.919 74.6209 104.2 74.0361 105.611C73.4514 107.022 73.1504 108.536 73.1504 110.064C73.1504 111.592 73.4514 113.105 74.0361 114.517C74.6209 115.928 75.4778 117.209 76.5576 118.287C78.7659 120.458 81.7362 121.671 84.8278 121.665Z" fill="#7289FF" fill-opacity="0.2"></path> <path d="M240.058 19.8264C238.99 18.7453 237.719 17.8871 236.318 17.3015C234.918 16.7159 233.415 16.4144 231.898 16.4144C230.381 16.4144 228.878 16.7159 227.478 17.3015C226.077 17.8871 224.806 18.7453 223.738 19.8264L27.5954 216.673C25.4498 218.869 24.248 221.822 24.248 224.897C24.248 227.972 25.4498 230.924 27.5954 233.12C28.6709 234.199 29.9492 235.054 31.3563 235.633C32.7634 236.213 34.2713 236.507 35.7924 236.498C37.303 236.51 38.8006 236.217 40.1962 235.636C41.5918 235.056 42.8568 234.201 43.9162 233.12L240.058 36.1997C241.136 35.128 241.991 33.8528 242.575 32.4476C243.159 31.0425 243.459 29.5353 243.459 28.013C243.459 26.4908 243.159 24.9836 242.575 23.5784C241.991 22.1733 241.136 20.8981 240.058 19.8264Z" fill="#7289FF" fill-opacity="0.2"></path> <path d="M272.7 52.6463C271.632 51.5652 270.36 50.7071 268.96 50.1215C267.559 49.5358 266.057 49.2343 264.539 49.2343C263.022 49.2343 261.52 49.5358 260.119 50.1215C258.718 50.7071 257.447 51.5652 256.379 52.6463L60.3101 249.64C59.2302 250.718 58.3733 252 57.7886 253.411C57.2038 254.822 56.9028 256.335 56.9028 257.864C56.9028 259.392 57.2038 260.905 57.7886 262.316C58.3733 263.728 59.2302 265.009 60.3101 266.087C62.4773 268.253 65.4116 269.468 68.4705 269.468C71.5293 269.468 74.4636 268.253 76.6309 266.087L272.7 69.0197C273.777 67.948 274.633 66.6727 275.217 65.2676C275.8 63.8625 276.101 62.3553 276.101 60.833C276.101 59.3107 275.8 57.8035 275.217 56.3984C274.633 54.9932 273.777 53.718 272.7 52.6463Z" fill="#7289FF" fill-opacity="0.2"></path> <path d="M223.737 167.48C222.662 166.397 221.385 165.537 219.978 164.95C218.572 164.364 217.063 164.062 215.54 164.062C214.016 164.062 212.508 164.364 211.101 164.95C209.695 165.537 208.417 166.397 207.343 167.48L109.345 265.94C108.267 267.012 107.412 268.287 106.828 269.692C106.244 271.097 105.944 272.605 105.944 274.127C105.944 275.649 106.244 277.156 106.828 278.561C107.412 279.967 108.267 281.242 109.345 282.313C110.401 283.404 111.663 284.271 113.059 284.864C114.454 285.456 115.953 285.763 117.469 285.764C118.994 285.76 120.504 285.453 121.911 284.861C123.318 284.268 124.594 283.403 125.666 282.313L223.737 183.56C225.791 181.39 226.936 178.512 226.936 175.52C226.936 172.528 225.791 169.65 223.737 167.48Z" fill="#7289FF" fill-opacity="0.2"></path> <path d="M288.801 167.48C287.726 166.397 286.449 165.537 285.042 164.95C283.636 164.364 282.127 164.062 280.604 164.062C279.08 164.062 277.572 164.364 276.165 164.95C274.759 165.537 273.481 166.397 272.407 167.48L207.05 233.12C205.969 234.219 205.114 235.521 204.535 236.952C203.955 238.383 203.662 239.914 203.672 241.458C203.682 243.002 203.996 244.529 204.594 245.952C205.193 247.375 206.065 248.666 207.16 249.75C208.256 250.835 209.554 251.693 210.98 252.274C212.406 252.856 213.932 253.15 215.471 253.14C217.011 253.129 218.533 252.815 219.951 252.215C221.369 251.614 222.656 250.739 223.737 249.64L288.801 183.56C290.855 181.39 292 178.512 292 175.52C292 172.528 290.855 169.65 288.801 167.48Z" fill="#7289FF" fill-opacity="0.2"></path> <path d="M245.986 123.06C243.845 125.243 242.646 128.184 242.646 131.247C242.646 134.309 243.845 137.25 245.986 139.433C247.602 141.06 249.662 142.17 251.906 142.621C254.151 143.072 256.478 142.845 258.594 141.969C260.71 141.092 262.518 139.605 263.791 137.696C265.064 135.788 265.743 133.543 265.743 131.247C265.743 128.95 265.064 126.705 263.791 124.797C262.518 122.888 260.71 121.401 258.594 120.524C256.478 119.648 254.151 119.421 251.906 119.872C249.662 120.323 247.602 121.433 245.986 123.06Z" fill="#7289FF" fill-opacity="0.2"></path> <path d="M123.69 23.425C125.312 21.8045 126.418 19.7375 126.868 17.4859C127.318 15.2343 127.092 12.8994 126.218 10.7769C125.344 8.65443 123.862 6.83989 121.959 5.56313C120.056 4.28637 117.819 3.60483 115.53 3.60483C113.241 3.60483 111.003 4.28637 109.101 5.56313C107.198 6.83989 105.716 8.65443 104.842 10.7769C103.968 12.8994 103.742 15.2343 104.192 17.4859C104.642 19.7375 105.748 21.8045 107.37 23.425C108.438 24.5061 109.709 25.3643 111.11 25.9499C112.51 26.5355 114.013 26.837 115.53 26.837C117.047 26.837 118.55 26.5355 119.95 25.9499C121.351 25.3643 122.622 24.5061 123.69 23.425Z" fill="#7289FF" fill-opacity="0.2"></path> <path d="M165.113 273.871C163.491 275.491 162.385 277.558 161.936 279.81C161.486 282.061 161.712 284.396 162.586 286.519C163.46 288.641 164.942 290.456 166.844 291.732C168.747 293.009 170.985 293.691 173.274 293.691C175.563 293.691 177.8 293.009 179.703 291.732C181.605 290.456 183.087 288.641 183.961 286.519C184.835 284.396 185.062 282.061 184.612 279.81C184.162 277.558 183.056 275.491 181.434 273.871C179.267 271.705 176.332 270.489 173.274 270.489C170.215 270.489 167.28 271.705 165.113 273.871Z" fill="#7289FF" fill-opacity="0.2"></path> </svg> 