<?xml version="1.0" encoding="UTF-8"?> <svg xmlns="http://www.w3.org/2000/svg" width="93" height="93" viewBox="0 0 93 93" fill="none"><g filter="url(#filter0_b_1237_5704)"><rect x="0.888428" y="0.771362" width="91.383" height="91.9286" rx="45.6915" fill="white"></rect></g><g clip-path="url(#clip0_1237_5704)"><mask id="mask0_1237_5704" style="mask-type:luminance" maskUnits="userSpaceOnUse" x="16" y="27" width="283" height="59"><path d="M298.009 27.7516H16.1155V85.9834H298.009V27.7516Z" fill="white"></path></mask><g mask="url(#mask0_1237_5704)"><path d="M50.3446 56.0528C50.3446 58.5738 48.2972 60.6183 45.7753 60.6183C43.2591 60.6183 41.2156 58.5738 41.2156 56.0528C41.2156 53.5279 43.2591 51.4834 45.7753 51.4834C48.2972 51.4834 50.3446 53.5279 50.3446 56.0528Z" fill="#E31212"></path></g><mask id="mask1_1237_5704" style="mask-type:luminance" maskUnits="userSpaceOnUse" x="16" y="27" width="283" height="59"><path d="M298.009 27.7516H16.1155V85.9834H298.009V27.7516Z" fill="white"></path></mask><g mask="url(#mask1_1237_5704)"><path d="M34.3681 56.0525C34.3681 57.9437 32.8349 59.4759 30.9466 59.4759C29.0554 59.4759 27.5232 57.9437 27.5232 56.0525C27.5232 54.1593 29.0554 52.6252 30.9466 52.6252C32.8349 52.6252 34.3681 54.1593 34.3681 56.0525Z" fill="#E31212"></path></g><mask id="mask2_1237_5704" style="mask-type:luminance" maskUnits="userSpaceOnUse" x="16" y="27" width="283" height="59"><path d="M298.009 27.7516H16.1155V85.9834H298.009V27.7516Z" fill="white"></path></mask><g mask="url(#mask2_1237_5704)"><path d="M41.1935 44.1853C41.1935 46.0765 39.6633 47.6087 37.7711 47.6087C35.8818 47.6087 34.3496 46.0765 34.3496 44.1853C34.3496 42.2921 35.8818 40.758 37.7711 40.758C39.6633 40.758 41.1935 42.2931 41.1935 44.1853Z" fill="#E31212"></path></g><mask id="mask3_1237_5704" style="mask-type:luminance" maskUnits="userSpaceOnUse" x="16" y="27" width="283" height="59"><path d="M298.009 27.7516H16.1155V85.9834H298.009V27.7516Z" fill="white"></path></mask><g mask="url(#mask3_1237_5704)"><path d="M48.0595 32.3158C48.0595 34.208 46.5292 35.7411 44.637 35.7411C42.7468 35.7411 41.2156 34.208 41.2156 32.3158C41.2156 30.4246 42.7468 28.8904 44.637 28.8904C46.5292 28.8904 48.0595 30.4246 48.0595 32.3158Z" fill="#E31212"></path></g><mask id="mask4_1237_5704" style="mask-type:luminance" maskUnits="userSpaceOnUse" x="16" y="27" width="283" height="59"><path d="M298.009 27.7516H16.1155V85.9834H298.009V27.7516Z" fill="white"></path></mask><g mask="url(#mask4_1237_5704)"><path d="M20.6781 56.0527C20.6781 57.3122 19.6573 58.3359 18.3929 58.3359C17.1353 58.3359 16.1155 57.3122 16.1155 56.0527C16.1155 54.7883 17.1353 53.7685 18.3929 53.7685C19.6573 53.7685 20.6781 54.7883 20.6781 56.0527Z" fill="#E31212"></path></g><mask id="mask5_1237_5704" style="mask-type:luminance" maskUnits="userSpaceOnUse" x="16" y="27" width="283" height="59"><path d="M298.009 27.7516H16.1155V85.9834H298.009V27.7516Z" fill="white"></path></mask><g mask="url(#mask5_1237_5704)"><path d="M27.5025 44.1854C27.5025 45.444 26.4788 46.4677 25.2173 46.4677C23.9617 46.4677 22.938 45.444 22.938 44.1854C22.938 42.922 23.9617 41.8983 25.2173 41.8983C26.4788 41.8983 27.5025 42.922 27.5025 44.1854Z" fill="#E31212"></path></g><mask id="mask6_1237_5704" style="mask-type:luminance" maskUnits="userSpaceOnUse" x="16" y="27" width="283" height="59"><path d="M298.009 27.7516H16.1155V85.9834H298.009V27.7516Z" fill="white"></path></mask><g mask="url(#mask6_1237_5704)"><path d="M34.3678 32.316C34.3678 33.5784 33.344 34.6002 32.0855 34.6002C30.826 34.6002 29.8042 33.5784 29.8042 32.316C29.8042 31.0546 30.826 30.0338 32.0855 30.0338C33.344 30.0338 34.3678 31.0546 34.3678 32.316Z" fill="#E31212"></path></g><mask id="mask7_1237_5704" style="mask-type:luminance" maskUnits="userSpaceOnUse" x="16" y="27" width="283" height="59"><path d="M298.009 27.7516H16.1155V85.9834H298.009V27.7516Z" fill="white"></path></mask><g mask="url(#mask7_1237_5704)"><path d="M57.1865 44.1854C57.1865 46.7074 55.1448 48.7529 52.6219 48.7529C50.1029 48.7529 48.0593 46.7074 48.0593 44.1854C48.0593 41.6596 50.1029 39.616 52.6219 39.616C55.1448 39.616 57.1865 41.6596 57.1865 44.1854Z" fill="#E31212"></path></g><mask id="mask8_1237_5704" style="mask-type:luminance" maskUnits="userSpaceOnUse" x="16" y="27" width="283" height="59"><path d="M298.009 27.7516H16.1155V85.9834H298.009V27.7516Z" fill="white"></path></mask><g mask="url(#mask8_1237_5704)"><path d="M64.0346 32.316C64.0346 34.8399 61.991 36.8854 59.4662 36.8854C56.952 36.8854 54.9075 34.8399 54.9075 32.316C54.9075 29.796 56.952 27.7515 59.4662 27.7515C61.991 27.7515 64.0346 29.796 64.0346 32.316Z" fill="#E31212"></path></g><mask id="mask9_1237_5704" style="mask-type:luminance" maskUnits="userSpaceOnUse" x="16" y="27" width="283" height="59"><path d="M298.009 27.7516H16.1155V85.9834H298.009V27.7516Z" fill="white"></path></mask><g mask="url(#mask9_1237_5704)"><path d="M70.8579 44.1854C70.8579 46.7074 68.8153 48.7529 66.2972 48.7529C63.7772 48.7529 61.7327 46.7074 61.7327 44.1854C61.7327 41.6596 63.7772 39.616 66.2972 39.616C68.8153 39.616 70.8579 41.6596 70.8579 44.1854Z" fill="#E31212"></path></g><mask id="mask10_1237_5704" style="mask-type:luminance" maskUnits="userSpaceOnUse" x="16" y="27" width="283" height="59"><path d="M298.009 27.7516H16.1155V85.9834H298.009V27.7516Z" fill="white"></path></mask><g mask="url(#mask10_1237_5704)"><path d="M77.7214 56.0528C77.7214 58.5738 75.6798 60.6183 73.1588 60.6183C70.6388 60.6183 68.5962 58.5738 68.5962 56.0528C68.5962 53.5279 70.6388 51.4834 73.1588 51.4834C75.6798 51.4834 77.7214 53.5279 77.7214 56.0528Z" fill="#E31212"></path></g></g><defs><filter id="filter0_b_1237_5704" x="-0.111572" y="-0.228638" width="93.3831" height="93.9286" filterUnits="userSpaceOnUse" color-interpolation-filters="sRGB"><feFlood flood-opacity="0" result="BackgroundImageFix"></feFlood><feGaussianBlur in="BackgroundImageFix" stdDeviation="0.5"></feGaussianBlur><feComposite in2="SourceAlpha" operator="in" result="effect1_backgroundBlur_1237_5704"></feComposite><feBlend mode="normal" in="SourceGraphic" in2="effect1_backgroundBlur_1237_5704" result="shape"></feBlend></filter><clipPath id="clip0_1237_5704"><rect width="62" height="40" fill="white" transform="translate(16 26)"></rect></clipPath></defs></svg> 