<?xml version="1.0" encoding="UTF-8"?> <svg xmlns="http://www.w3.org/2000/svg" width="446" height="251" viewBox="0 0 446 251" fill="none"><g data-figma-bg-blur-radius="32.3188"><rect x="1.07729" y="2.03384" width="443.845" height="247.845" rx="16.1594" fill="url(#paint0_linear_9914_89848)" fill-opacity="0.8"></rect><rect x="1.07729" y="2.03384" width="443.845" height="247.845" rx="16.1594" stroke="url(#paint1_linear_9914_89848)" stroke-width="2.15459"></rect><g clip-path="url(#clip1_9914_89848)"><path d="M231.969 182.067L238.013 150.468H267.35L262.769 157.569H245.919L242.209 176.929C241.933 178.375 241.167 179.679 240.043 180.616C238.92 181.554 237.508 182.066 236.05 182.067L231.969 182.067ZM77.1949 170.492L84.8166 158.096H85.8648L88.9506 170.492H77.1949ZM93.0619 150.468H73.3907C73.3254 150.643 73.2601 150.825 73.2045 150.996C75.1867 151.755 78.0538 153.329 76.5614 155.817L59.6104 182.067H66.5887C67.6557 182.066 68.7051 181.791 69.6376 181.266C70.57 180.742 71.3549 179.987 71.9179 179.071L73.2339 176.933H90.554L91.8341 182.067H101.601L93.0619 150.468ZM161.075 170.492L168.7 158.096H169.748L172.834 170.492H161.075ZM176.945 150.468H157.362C157.297 150.643 157.235 150.825 157.176 150.996C159.015 151.699 161.601 153.105 160.791 155.282L143.494 182.067H150.469C151.536 182.067 152.585 181.793 153.518 181.269C154.45 180.745 155.235 179.99 155.798 179.074L157.117 176.929H174.438L175.718 182.067H185.481L176.945 150.468ZM275.197 170.492L282.822 158.096H283.867L286.956 170.492H275.197ZM291.064 150.468H271.412C271.347 150.643 271.282 150.825 271.226 150.996C273.172 151.739 275.958 153.273 274.655 155.678L257.612 182.067H264.591C265.658 182.066 266.707 181.791 267.64 181.267C268.572 180.743 269.357 179.987 269.92 179.071L271.236 176.933H288.559L289.836 182.067H299.606L291.064 150.468Z" fill="#010C2C"></path><path d="M370.81 175.626H354.398L361.886 156.909H374.389L370.81 175.626ZM380.068 175.626L384.884 150.468H349.105C349.039 150.64 348.974 150.825 348.918 150.996C350.852 151.732 353.16 153.075 352.334 155.625L344.334 175.626H338.534L336.317 187.204H340.399C341.856 187.204 343.268 186.692 344.391 185.755C345.515 184.819 346.281 183.515 346.557 182.07H375.898L374.918 187.204H384.176L386.39 175.63H380.068V175.626Z" fill="#010C2C"></path><path d="M133.629 161.891C133.217 162.353 132.709 162.717 132.141 162.956C131.572 163.195 130.958 163.302 130.344 163.27H117.892L119.146 156.783H131.372C133.521 156.783 134.612 157.641 134.612 159.334C134.602 160.278 134.254 161.186 133.632 161.891H133.629ZM132.375 174.247C131.903 174.783 131.317 175.203 130.661 175.477C130.004 175.75 129.295 175.869 128.587 175.824H115.492L116.887 168.602H129.749C130.631 168.602 133.309 168.602 133.309 171.347C133.364 172.398 133.031 173.433 132.375 174.25V174.247ZM139.562 165.326L138.968 165.154L139.079 164.712L139.654 164.57C140.925 164.224 142.074 163.524 142.971 162.551C143.671 161.806 144.216 160.928 144.577 159.967C144.937 159.007 145.105 157.985 145.071 156.958C145.071 151.593 140.032 150.472 135.804 150.472H106.888L106.702 151C108.681 151.749 110.588 152.973 110.065 155.79L105.036 182.067H131.01C135.621 182.067 138.912 180.892 141.074 178.47C142.753 176.482 143.619 173.922 143.494 171.311C143.494 168.348 142.171 166.124 139.562 165.326ZM222.071 150.468L219.772 162.379H201.965L204.268 150.468H190.797L190.611 150.996C192.597 151.755 194.51 152.979 193.972 155.817L188.923 182.067H193.021C194.476 182.068 195.887 181.558 197.01 180.623C198.134 179.689 198.901 178.389 199.18 176.946L200.617 169.509L218.423 169.463L215.994 182.067H225.258L231.338 150.468H222.071ZM331.474 163.323C330.979 163.966 330.335 164.477 329.599 164.81C328.862 165.143 328.057 165.288 327.252 165.233H315.526L317.054 157.358H328.555C331.131 157.358 332.441 158.347 332.441 160.307C332.444 161.391 332.105 162.447 331.474 163.323ZM332.3 150.472H304.89C304.825 150.643 304.759 150.828 304.704 151C306.686 151.752 308.603 152.979 308.061 155.817L303.042 182.067H307.124C308.582 182.066 309.994 181.553 311.118 180.615C312.243 179.677 313.009 178.373 313.285 176.926L314.314 171.509H328.689C333.966 171.509 337.695 170.123 340.098 167.285C342.056 164.763 343.049 161.612 342.894 158.41C342.894 152.992 339.53 150.472 332.3 150.472ZM151.419 202.348L154.045 199.181H156.974L152.663 204.196L155.514 209.729L152.653 209.722L150.805 205.977L147.703 209.722H144.813L149.6 204.173L147.06 199.171L149.914 199.177L151.419 202.348ZM159.847 204.978C159.843 205.368 159.911 205.757 160.046 206.123C160.173 206.459 160.365 206.767 160.611 207.028C160.858 207.289 161.153 207.497 161.48 207.64C161.829 207.786 162.203 207.859 162.58 207.855C163.434 207.838 164.261 207.55 164.942 207.03C165.624 206.51 166.125 205.786 166.375 204.961C166.475 204.618 166.525 204.263 166.522 203.905C166.526 203.513 166.458 203.124 166.319 202.757C166.198 202.419 166.008 202.11 165.762 201.849C165.515 201.589 165.218 201.384 164.889 201.246C164.537 201.099 164.16 201.027 163.779 201.032C163.274 201.03 162.773 201.133 162.309 201.335C161.845 201.536 161.42 201.819 161.055 202.173C160.687 202.531 160.389 202.957 160.177 203.427C159.957 203.913 159.845 204.443 159.851 204.978L159.847 204.978ZM157.401 205.195C157.4 204.635 157.486 204.079 157.656 203.546C157.827 203.016 158.069 202.512 158.375 202.048C159.341 200.622 160.781 199.592 162.434 199.144C162.991 198.99 163.567 198.912 164.145 198.913C164.811 198.907 165.472 199.032 166.091 199.283C166.66 199.516 167.178 199.859 167.616 200.293C168.047 200.721 168.387 201.234 168.615 201.8C168.855 202.393 168.977 203.027 168.974 203.668C168.974 204.228 168.885 204.785 168.71 205.317C168.538 205.848 168.296 206.353 167.991 206.819C167.681 207.291 167.312 207.721 166.894 208.099C166.045 208.873 165.027 209.432 163.923 209.732C163.367 209.886 162.794 209.964 162.218 209.963C161.552 209.971 160.892 209.846 160.275 209.593C159.708 209.366 159.193 209.025 158.76 208.59C158.327 208.156 157.986 207.638 157.757 207.066C157.517 206.473 157.394 205.837 157.398 205.195H157.401ZM173.794 204.456L178.751 199.177H181.573L177.092 203.876L179.894 209.722H177.024L175.198 205.684L173.219 207.752L172.873 209.722H170.44L172.282 199.177H174.715L173.794 204.456ZM185.246 204.456L190.203 199.177H193.028L188.544 203.876L191.346 209.722H188.476L186.65 205.684L184.671 207.752L184.325 209.722H181.893L183.734 199.177H186.167L185.246 204.456ZM195.186 199.177H202.534L202.168 201.295H197.25L196.868 203.45H201.084L200.725 205.562H196.499L196.14 207.614H201.136L200.767 209.722H193.348L195.186 199.177ZM213.176 195.627C213.098 195.95 212.971 196.26 212.8 196.544C212.459 197.121 211.92 197.551 211.285 197.752C210.924 197.869 210.547 197.926 210.168 197.92C209.81 197.93 209.452 197.873 209.114 197.752C208.845 197.661 208.604 197.502 208.413 197.291C208.223 197.08 208.088 196.823 208.023 196.544C207.947 196.245 207.925 195.934 207.958 195.627L209.587 195.518C209.61 195.627 209.64 195.734 209.679 195.838C209.71 195.927 209.762 196.008 209.828 196.074C209.895 196.14 209.975 196.19 210.064 196.221C210.191 196.258 210.323 196.274 210.456 196.271C210.591 196.273 210.726 196.257 210.857 196.221C211.069 196.159 211.252 196.023 211.373 195.838C211.439 195.743 211.51 195.637 211.579 195.518L213.179 195.627H213.176ZM205.198 199.177H207.615L206.511 205.479L212.591 199.177H214.714L212.869 209.722H210.439L211.543 203.404L205.456 209.722H203.356L205.198 199.177ZM217.796 199.177H220.226L219.475 203.45H224.024L224.775 199.177H227.217L225.376 209.722H222.933L223.658 205.558H219.106L218.384 209.722H215.955L217.796 199.177ZM237.657 209.722H240.09L241.932 199.177H239.499L237.657 209.722ZM233.752 204.519H231.782L231.234 207.614H233.213C233.436 207.613 233.657 207.562 233.859 207.465C234.28 207.267 234.616 206.923 234.806 206.495C234.972 206.117 234.992 205.69 234.862 205.298C234.806 205.146 234.722 205.007 234.614 204.889C234.51 204.77 234.38 204.677 234.235 204.618C234.082 204.552 233.918 204.518 233.752 204.519ZM234.258 202.411C234.703 202.405 235.146 202.482 235.564 202.638C235.933 202.77 236.269 202.981 236.55 203.256C236.831 203.531 237.051 203.864 237.193 204.232C237.344 204.628 237.418 205.049 237.412 205.473C237.415 206.051 237.295 206.624 237.059 207.152C236.831 207.662 236.505 208.12 236.099 208.501C235.236 209.292 234.11 209.727 232.945 209.722H228.439L230.284 199.177H232.716L232.148 202.411H234.258ZM253.132 195.627C253.054 195.95 252.927 196.26 252.757 196.544C252.418 197.124 251.878 197.554 251.241 197.752C250.882 197.869 250.506 197.926 250.128 197.92C249.768 197.93 249.409 197.873 249.07 197.752C248.802 197.659 248.561 197.5 248.37 197.289C248.179 197.078 248.043 196.822 247.976 196.544C247.904 196.244 247.884 195.934 247.917 195.627L249.543 195.518C249.565 195.627 249.596 195.734 249.635 195.838C249.667 195.927 249.718 196.008 249.785 196.074C249.851 196.14 249.932 196.19 250.02 196.221C250.148 196.257 250.28 196.274 250.412 196.271C250.547 196.273 250.683 196.257 250.814 196.221C250.919 196.19 251.017 196.139 251.104 196.073C251.192 196.006 251.269 195.928 251.333 195.838C251.398 195.743 251.467 195.637 251.538 195.518L253.132 195.627ZM245.155 199.177H247.571L246.467 205.479L252.551 199.177H254.667L252.825 209.722H250.396L251.499 203.404L245.413 209.722H243.313L245.155 199.177ZM263.598 204.456L268.555 199.177H271.376L266.896 203.876L269.698 209.722H266.828L265.002 205.684L263.02 207.752L262.677 209.722H260.244L262.086 199.177H264.519L263.598 204.456ZM276.699 201.295L276.023 205.195L275.987 205.42L275.693 207.053C275.62 207.532 275.447 207.991 275.187 208.399C274.727 209.096 274.03 209.598 273.228 209.811C272.681 209.961 272.11 210.005 271.546 209.94C271.407 209.922 271.268 209.896 271.132 209.861L271.896 207.822L271.987 207.828L272.128 207.845C272.209 207.852 272.291 207.858 272.372 207.861C272.482 207.865 272.591 207.846 272.693 207.807C272.795 207.767 272.888 207.707 272.967 207.63C273.142 207.436 273.253 207.192 273.284 206.931L273.594 205.185L274.645 199.177H283.723L281.878 209.722H279.462L280.934 201.295H276.699Z" fill="#010C2C"></path><path d="M285.983 207.845L286.064 207.852C286.111 207.857 286.158 207.862 286.205 207.865L286.355 207.875H286.453C286.598 207.876 286.741 207.851 286.878 207.802C287.017 207.75 287.134 207.651 287.211 207.522L287.978 206.373L285.744 199.184H288.416L289.741 203.78L292.69 199.181H295.358L289.304 208.389C288.944 208.915 288.453 209.335 287.88 209.607C287.343 209.862 286.756 209.992 286.162 209.986C285.843 209.985 285.524 209.949 285.212 209.877L285.986 207.845H285.983Z" fill="#010C2C"></path><path d="M298.787 205.109L298.349 207.603H300.06C300.263 207.603 300.465 207.571 300.658 207.508C301.03 207.381 301.339 207.112 301.517 206.759C301.607 206.566 301.652 206.355 301.647 206.142C301.653 205.996 301.626 205.851 301.568 205.718C301.509 205.584 301.421 205.466 301.311 205.373C301.206 205.281 301.082 205.214 300.949 205.175C300.804 205.13 300.653 205.107 300.501 205.109H298.787ZM300.958 202.997C301.42 202.99 301.88 203.065 302.317 203.218C302.685 203.345 303.022 203.55 303.306 203.819C303.571 204.07 303.777 204.378 303.91 204.719C304.048 205.076 304.116 205.456 304.113 205.838C304.118 206.38 304.001 206.915 303.77 207.404C303.539 207.893 303.2 208.322 302.78 208.659C302.224 209.123 301.566 209.444 300.86 209.596C300.495 209.68 300.121 209.722 299.747 209.721H295.551L297.389 199.177H304.488L304.119 201.288H299.459L299.159 202.997H300.958Z" fill="#010C2C"></path><path d="M306.558 88.5019C306.088 81.6491 301.167 74.7204 290.681 66.1882V66.1849C291.175 65.0433 291.426 60.3581 286.201 57.5471C273.041 50.493 244.795 43.0627 223.569 41.9277C223.778 42.5051 224.275 44.1152 224.627 45.3162C201.217 44.3433 177.769 45.007 154.449 47.3024C148.055 47.9392 128.182 50.7173 128.182 50.7173L173.085 70.1738C168.295 71.2692 163.429 72.4504 158.534 73.7372C153.538 75.0569 138.739 80.1611 138.739 80.1611L156.689 84.127C165.627 86.0934 190.83 91.5506 201.59 94.0647C200.166 98.5189 190.902 129.378 190.902 129.378C190.902 129.378 202.899 116.524 206.625 112.934C211.36 108.364 212.927 106.817 214.348 105.632C213.802 112.205 212.594 126.31 212.284 129.784C212.036 132.562 212.571 135.442 214.158 137.125C215.023 137.932 216.051 138.539 217.171 138.903C218.291 139.268 219.476 139.382 220.644 139.237C222.86 138.785 224.92 137.755 226.619 136.247C233.849 130.196 251.96 113.835 267.275 98.7829C268.137 98.6509 268.995 98.5288 269.861 98.4364C280.376 97.2585 290.554 98.9544 292.295 104.28C293.431 107.777 292.262 109.932 291.201 113.28C293.003 111.538 297.66 107.196 299.479 104.887C302.441 101.132 307.022 95.302 306.555 88.5019" fill="black"></path><path d="M224.441 61.3403L224.647 61.3172C224.027 60.0964 223.504 58.8361 223.034 57.9188C231.648 56.8697 251.594 57.9188 259.555 63.0824C267.516 68.2459 274.749 70.0177 280.193 68.7837C279.597 69.9747 278.769 71.031 277.757 71.8885C275.727 72.3368 273.632 72.4017 271.578 72.0799C269.325 75.8511 263.79 75.3859 255.055 79.8532C242.804 86.1095 231.025 93.2688 219.814 101.273C219.461 105.661 218.707 114.18 218.606 115.51L235.919 109.125L232.425 106.113L247.205 102.672C249.599 98.7455 267.915 80.7539 270.814 78.5697C271.786 78.3478 272.77 78.1793 273.76 78.0649C277.589 74.5336 281.834 71.4908 286.397 69.0048C286.476 68.755 286.539 68.5004 286.587 68.2426C286.848 66.6325 286.734 64.2965 284.653 63.188C249.425 44.5002 184.269 50.5348 149.179 53.4218L182.271 68.17C198.109 64.8773 212.751 62.6468 224.441 61.3403" fill="#BFBD9C"></path><path d="M232.425 106.113L235.923 109.126L218.603 115.51C218.603 115.51 217.675 126.893 217.43 129.572C217.104 133.211 220.147 134.333 223.034 131.921C229.467 126.533 244.439 113.326 258.399 100.069L232.425 106.113Z" fill="#6F7757"></path><path d="M263.317 74.2214C256.747 75.2838 253.58 70.5888 252.998 65.6331C250.638 65.2371 248.286 65.0062 246.167 64.8115C246.059 71.0276 250.203 77.7979 260.182 76.2703C263.886 75.7094 265.662 74.4292 266.475 73.1128C265.51 73.6993 264.435 74.0768 263.317 74.2214" fill="#FEFEFE"></path><path d="M279.715 78.593C280.407 77.1741 281.602 76.0697 283.062 75.4981C285.317 76.4366 287.321 77.902 288.907 79.7741L279.715 78.593ZM286.396 69.0049C272.661 76.2306 261.611 90.8733 257.787 96.2018C269.122 92.4702 292.535 90.4378 296.32 102.081C302.531 93.8592 308.794 86.7128 286.393 69.0049L286.396 69.0049Z" fill="#F2F2D9"></path><path d="M204.746 78.1747L233.433 74.9347L217.935 86.5221L218.268 81.7941L204.746 78.1747ZM248.242 77.8777C243.536 75.1953 242.031 69.9526 242.544 65.0464H242.534C235.017 65.6304 194.58 68.8737 158.023 78.7389C169.828 80.8274 208.165 89.904 208.165 89.904C208.165 89.904 203.969 102.554 201.807 110.604C215.796 98.1129 225.044 90.7586 248.242 77.8777V77.8777Z" fill="#FF0000"></path></g></g><defs><clipPath id="bgblur_0_9914_89848_clip_path" transform="translate(32.3188 31.3623)"><rect x="1.07729" y="2.03384" width="443.845" height="247.845" rx="16.1594"></rect></clipPath><linearGradient id="paint0_linear_9914_89848" x1="223" y1="0.956543" x2="223" y2="250.957" gradientUnits="userSpaceOnUse"><stop stop-color="white"></stop><stop offset="1" stop-color="white" stop-opacity="0.6"></stop></linearGradient><linearGradient id="paint1_linear_9914_89848" x1="223" y1="0.956543" x2="223" y2="250.957" gradientUnits="userSpaceOnUse"><stop stop-color="white"></stop><stop offset="1" stop-color="#EBEBEB"></stop></linearGradient><clipPath id="clip1_9914_89848"><rect width="326.779" height="168.058" fill="white" transform="translate(59.6104 41.9277)"></rect></clipPath></defs></svg> 