<?xml version="1.0" encoding="UTF-8"?> <svg xmlns="http://www.w3.org/2000/svg" width="446" height="251" viewBox="0 0 446 251" fill="none"><g data-figma-bg-blur-radius="32.3188"><rect x="1.07729" y="1.99038" width="443.845" height="247.845" rx="16.1594" fill="url(#paint0_linear_9914_89864)" fill-opacity="0.8"></rect><rect x="1.07729" y="1.99038" width="443.845" height="247.845" rx="16.1594" stroke="url(#paint1_linear_9914_89864)" stroke-width="2.15459"></rect><path d="M263.298 112.107V132.157H272.153V121.456H286.546V132.157H295.401V105.587H286.546V115.797H272.153V105.587H261.083L260.344 108.294C262.19 108.663 263.298 110.262 263.298 112.107Z" fill="#0033A0"></path><path d="M220.622 112.107V132.157H229.725L244.362 114.69H244.609V132.157H253.465V105.587H244.362L229.725 123.055H229.479V105.587H218.408L217.67 108.294C219.392 108.663 220.622 110.262 220.622 112.107Z" fill="#0033A0"></path><path d="M204.502 136.217H212.005V126.745H208.192V105.587H178.67L177.932 108.294C179.654 108.786 180.884 110.385 180.761 112.23C180.392 118.257 178.916 123.67 176.21 126.868H172.766V136.34H180.269V132.28H204.379V136.217H204.502ZM199.458 126.745H184.82C187.773 123.301 189.126 117.396 189.372 110.877H199.458V126.745Z" fill="#0033A0"></path><path d="M301.919 132.157H310.776L313.237 126.868H328.367L330.827 132.157H339.682L327.259 105.587H310.408L309.669 108.294C311.268 108.663 312.007 110.385 311.391 111.861L301.919 132.157ZM320.616 110.877H320.862L325.783 121.456H315.695L320.616 110.877Z" fill="#0033A0"></path><path d="M407.959 104.975C398.242 104.975 390.737 107.558 390.737 118.875C390.737 130.192 398.119 132.775 407.959 132.775C417.676 132.775 425.181 130.192 425.181 118.875C425.181 107.558 417.801 104.975 407.959 104.975ZM415.832 121.212C415.832 124.656 413.742 127.117 407.959 127.117C402.178 127.117 400.086 124.533 400.086 121.212V116.538C400.086 113.094 402.178 110.633 407.959 110.633C413.742 110.633 415.832 113.217 415.832 116.538V121.212Z" fill="#0033A0"></path><path d="M345.83 132.157H354.687V114.69H354.933L363.297 124.654H366.742L375.106 114.69H375.352V132.157H384.209V105.587H374.738L365.018 117.15L355.301 105.587H343.617L342.878 108.294C344.599 108.786 345.83 110.385 345.83 112.107V132.157Z" fill="#0033A0"></path><path d="M195.035 164.387L185.317 152.824H173.631L172.894 155.53C174.616 156.022 175.846 157.622 175.846 159.344V179.394H184.702V161.927H184.948L193.313 171.891H196.757L205.122 161.927H205.368V179.394H214.224V152.824H204.753L195.035 164.387Z" fill="#0033A0"></path><path d="M277.943 174.596C272.162 174.596 270.316 171.89 269.824 168.445C269.579 167.092 269.579 165.247 269.824 163.771C270.316 160.327 272.285 157.866 277.943 157.866C282.493 157.866 286.8 158.851 288.153 159.466L290.121 155.16C287.414 153.93 282.125 152.331 277.204 152.331C268.594 152.331 260.476 154.914 260.476 166.231C260.476 177.548 268.594 180.131 277.204 180.131C283.846 180.131 288.522 178.532 291.105 177.302L289.136 172.997C287.906 173.489 283.11 174.596 277.943 174.596Z" fill="#0033A0"></path><path d="M383.115 152.824L382.376 155.53C383.977 155.899 384.714 157.622 384.099 159.098L374.628 179.517H383.483L385.944 174.228H401.073L403.534 179.517H412.391L399.966 152.947H383.115V152.824ZM388.404 168.815L393.323 158.237H393.571L398.49 168.815H388.404Z" fill="#0033A0"></path><path d="M237.968 152.211C228.252 152.211 220.748 154.794 220.748 166.111C220.748 177.428 228.129 180.011 237.968 180.011C247.688 180.011 255.19 177.428 255.19 166.111C255.19 154.794 247.811 152.211 237.968 152.211ZM245.841 168.448C245.841 171.892 243.751 174.353 237.968 174.353C232.188 174.353 230.097 171.769 230.097 168.448V163.774C230.097 160.329 232.188 157.869 237.968 157.869C243.751 157.869 245.841 160.452 245.841 163.774V168.448Z" fill="#0033A0"></path><path d="M321.73 165.494V165.248C323.822 165.002 325.666 163.649 326.528 161.804L330.71 152.947H321.853L318.41 160.328C317.548 162.05 315.826 163.157 313.857 163.157H307.831V152.824H296.761L296.021 155.53C297.743 156.022 298.973 157.622 298.973 159.344V179.394H307.831V168.569H313.98C316.195 168.569 318.287 169.922 319.147 171.891L322.592 179.394H331.447L327.02 169.799C326.035 167.585 324.068 165.986 321.73 165.494Z" fill="#0033A0"></path><path d="M366.388 165.494V165.248C367.25 165.125 368.849 163.28 368.849 160.574C368.849 153.193 363.191 152.824 358.147 152.824H337.112L336.375 155.53C338.097 156.022 339.327 157.622 339.327 159.344V179.394H360.116C363.928 179.394 370.57 178.779 370.57 171.522C370.57 168.323 368.726 165.986 366.388 165.494ZM347.814 157.991H358.27C360.239 157.991 360.853 158.975 360.853 160.82C360.853 162.665 360.239 163.649 358.27 163.649H347.814V157.991ZM359.132 174.228H347.691V168.323H359.132C361.345 168.323 361.961 169.184 361.961 171.275C361.961 173.367 361.469 174.228 359.132 174.228Z" fill="#0033A0"></path><path fill-rule="evenodd" clip-rule="evenodd" d="M90.138 88.2993C94.618 75.1176 92.7513 62.7982 84.0398 61.443C74.2085 59.8415 66.6172 69.8203 64.5016 86.8211C43.3455 89.4081 20.8203 102.59 20.8203 125.011C20.8203 149.034 48.4478 152.36 52.4301 134.497C34.0118 133.265 35.0074 98.5246 64.1282 91.7488C63.8794 97.4158 64.1282 103.699 64.9993 110.474C61.3904 112.569 57.408 114.54 53.1769 116.511C53.1769 116.511 53.3012 122.424 53.3012 124.395C58.1548 122.178 62.386 119.837 66.1195 117.373C68.7328 135.852 68.9816 162.955 59.6482 176.753C53.9234 173.919 48.0744 171.086 41.3542 171.086C22.5626 171.086 22.1892 190.551 43.0966 190.551C50.19 190.551 56.4124 188.087 61.8881 184.021C93.9958 201.392 135.064 182.05 135.064 139.548C135.064 116.388 116.272 94.9518 90.138 88.2993ZM43.8432 185.869C33.6385 185.869 33.7629 175.644 43.3455 175.644C47.2033 175.644 52.0567 178.231 56.2881 180.818C53.0523 183.898 48.9457 185.869 43.8432 185.869ZM82.0488 70.8058C86.6534 71.545 87.5245 78.9366 85.0355 87.1906C80.3066 86.3283 75.4529 86.0818 70.3507 86.2051C72.2174 76.8423 76.6974 69.8203 82.0488 70.8058ZM69.6039 90.8866C74.0841 90.5168 78.6887 90.8866 83.1687 91.9953C80.5554 97.6621 76.324 103.329 70.5995 106.902C69.2307 101.728 68.9816 96.1838 69.6039 90.8866ZM66.1195 180.449C81.302 165.789 89.0178 139.179 91.8802 127.598C82.0488 126.12 75.9509 120.207 72.5908 112.815C79.5598 107.641 84.6621 100.619 88.0222 93.5968C103.205 99.3868 116.148 114.54 116.148 140.534C116.148 169.361 91.1334 191.536 66.1195 180.449Z" fill="#0033A0"></path></g><defs><clipPath id="bgblur_0_9914_89864_clip_path" transform="translate(32.3188 31.4058)"><rect x="1.07729" y="1.99038" width="443.845" height="247.845" rx="16.1594"></rect></clipPath><linearGradient id="paint0_linear_9914_89864" x1="223" y1="0.913086" x2="223" y2="250.913" gradientUnits="userSpaceOnUse"><stop stop-color="white"></stop><stop offset="1" stop-color="white" stop-opacity="0.6"></stop></linearGradient><linearGradient id="paint1_linear_9914_89864" x1="223" y1="0.913086" x2="223" y2="250.913" gradientUnits="userSpaceOnUse"><stop stop-color="white"></stop><stop offset="1" stop-color="#EBEBEB"></stop></linearGradient></defs></svg> 