<?xml version="1.0" encoding="UTF-8"?> <svg xmlns="http://www.w3.org/2000/svg" width="446" height="251" viewBox="0 0 446 251" fill="none"><g data-figma-bg-blur-radius="32.3188"><rect x="1.07729" y="1.94692" width="443.845" height="247.845" rx="16.1594" fill="url(#paint0_linear_9914_89881)" fill-opacity="0.8"></rect><rect x="1.07729" y="1.94692" width="443.845" height="247.845" rx="16.1594" stroke="url(#paint1_linear_9914_89881)" stroke-width="2.15459"></rect><mask id="mask0_9914_89881" style="mask-type:luminance" maskUnits="userSpaceOnUse" x="7" y="93" width="432" height="66"><path d="M438.459 93.5508H7.54102V158.188H438.459V93.5508Z" fill="white"></path></mask><g mask="url(#mask0_9914_89881)"><path d="M397.812 144.827C397.987 144.872 398.162 144.918 398.334 144.963L398.276 144.827H397.812Z" fill="#03045E"></path><path d="M48.5206 104.655H77.1975V129.571C80.0276 128.939 82.8867 128.307 85.7168 127.675V107.363C85.7168 104.88 85.7168 99.3736 83.9552 96.575C82.0203 93.5508 78.1794 93.5508 76.5044 93.5508H48.8093C45.4593 93.5508 43.1201 94.3633 41.8782 96.3042C39.9434 99.193 39.9434 105.016 39.9434 107.363V138.147C39.9434 138.508 39.9434 138.915 39.9434 139.411C42.7736 138.508 45.6326 137.696 48.4628 136.838V104.655H48.5206Z" fill="#03045E"></path><path d="M125.888 120.724V103.932H145.699C146.537 103.932 147.865 104.068 148.615 105.016C149.453 106.099 149.453 107.634 149.453 108.627V115.127C149.453 116.12 149.453 117.293 148.991 118.196L154.969 117.609L157.481 117.428V104.925C157.481 102.443 157.308 98.5609 155.402 96.0783C154.479 94.8144 152.717 93.5957 149.223 93.5957H117.368V122.078C120.863 121.581 125.888 120.724 125.888 120.724Z" fill="#03045E"></path><path d="M195.689 115.352L196.959 115.307V103.255H216.193C218.358 103.255 219.022 103.797 219.284 104.203C219.948 105.151 220.034 106.686 220.034 107.363V112.87C220.034 113.682 220.004 114.359 219.802 114.991H222.834C224.655 115.036 226.445 115.082 228.264 115.127C228.438 114.224 228.583 113.141 228.583 111.877V104.925C228.583 102.578 228.408 98.9671 226.734 96.4845C224.971 93.8665 222.142 93.5957 220.206 93.5957H188.44V115.533H188.902L195.689 115.352Z" fill="#03045E"></path><path d="M268.667 117.158V93.5957H260.146V116.571C261.303 116.616 262.457 116.706 263.584 116.752C265.258 116.887 266.963 117.022 268.667 117.158Z" fill="#03045E"></path><path d="M322.178 103.932H339.333V93.5957H296.506V103.932H313.659V122.033C316.518 122.439 319.349 122.845 322.178 123.251V103.932Z" fill="#03045E"></path><path d="M398.276 139.14L398.334 139.275C401.857 140.223 405.352 141.217 408.844 142.21L391.084 93.5508H382.826L368.993 132.054C378.637 134.175 388.253 136.522 397.841 139.095H398.276V139.14ZM386.579 104.519L394.868 128.804H378.204L386.579 104.519Z" fill="#03045E"></path><path d="M438.302 157.195C428.541 153.855 418.723 150.741 408.874 147.897C405.379 146.904 401.857 145.911 398.362 144.963C398.187 144.918 398.015 144.872 397.841 144.827C388.255 142.254 378.637 139.907 368.993 137.786C356.429 134.987 343.868 132.595 331.247 130.473C328.243 129.932 325.212 129.435 322.208 128.939C319.377 128.487 316.518 128.081 313.689 127.72C310.541 127.269 307.393 126.862 304.245 126.456C299.74 125.915 295.235 125.418 290.701 124.921L283.943 124.154C281.691 123.883 279.437 123.748 277.156 123.522C274.327 123.251 271.495 123.026 268.666 122.8C266.962 122.665 265.288 122.529 263.584 122.439C262.427 122.349 261.274 122.304 260.145 122.258C256.767 122.078 253.388 121.897 250.04 121.717L243.253 121.356L236.466 121.13C233.751 121.04 231.037 120.949 228.322 120.859C226.503 120.814 224.713 120.769 222.892 120.724H219.86L209.291 120.769H205.882L202.475 120.859L196.959 120.994L195.689 121.04L188.902 121.22H188.44L182.115 121.491L175.328 121.807L171.92 121.988L168.542 122.258L157.511 123.161L154.997 123.342L149.019 123.929L141.453 124.651L134.002 125.508L127.909 126.231C124.386 126.682 120.891 127.269 117.368 127.765C116.386 127.901 115.376 128.081 114.394 128.216C105.383 129.661 96.373 131.151 87.4205 133.001C86.8719 133.137 86.3234 133.227 85.7746 133.362C82.9154 133.994 80.0854 134.626 77.2551 135.258C76.1578 135.484 75.0893 135.754 73.9918 135.98C69.5156 137.064 65.0395 138.057 60.592 139.23C56.5777 140.314 52.5924 141.397 48.5782 142.571C45.7193 143.383 42.889 144.241 40.0587 145.143C38.0084 145.775 35.9581 146.452 33.9078 147.129C31.6838 147.852 29.4892 148.619 27.2654 149.386C25.0706 150.154 22.847 150.966 20.6522 151.779C16.2625 153.494 11.8729 155.254 7.54102 157.195L7.68541 158.143C16.4647 155.119 25.3594 152.681 34.2543 150.424C36.2468 149.928 38.2683 149.431 40.261 148.935C40.4922 151.011 40.9253 153.178 41.7917 154.622C43.1202 156.834 45.8059 157.647 49.2424 157.647H76.5909C79.0167 157.647 82.2801 157.511 84.0419 154.487C85.63 151.734 85.8035 147.31 85.8035 144.557V139.907C95.4491 138.373 105.124 137.019 114.798 135.89C115.664 135.8 116.531 135.709 117.397 135.574V157.647H125.917V135.845H134.176L148.817 157.647H161.207L144.573 135.845H149.251C151.099 135.845 153.669 135.303 155.201 133.633C155.604 133.182 155.951 132.64 156.211 132.098C166.954 131.421 177.726 130.925 188.469 130.654V157.647H218.504C220.35 157.647 223.702 157.376 226.04 154.893C228.639 152.14 228.871 148.393 228.871 146.182V138.734C228.871 135.123 227.947 132.505 227.023 131.015C226.964 130.925 226.878 130.744 226.704 130.519C226.329 129.977 226.329 129.977 226.704 130.519C229.91 130.564 233.116 130.654 236.322 130.744L243.079 130.88L249.838 131.196C253.274 131.376 256.68 131.512 260.117 131.647V157.647H268.636V132.144L276.839 132.685C279.09 132.866 281.342 132.956 283.596 133.182L290.352 133.769C294.86 134.175 299.363 134.536 303.84 134.987L313.631 136.071V157.692H322.15V137.019L324.057 137.244L330.785 138.147C342.827 139.727 354.869 141.532 366.883 143.518L361.801 157.692H370.406L374.825 144.918C383.2 146.407 391.575 147.987 399.922 149.657L402.693 157.692H412.397L410.26 151.824C419.589 153.81 428.886 155.931 438.185 158.188L438.302 157.195ZM77.1976 146.633H50.2532C53.8054 145.866 57.3575 145.098 60.9384 144.376C66.3389 143.293 71.768 142.3 77.1976 141.352V146.633ZM220.322 142.074C220.322 143.338 220.236 144.963 219.484 146.091C218.82 147.039 217.636 147.355 216.482 147.355H196.987V132.459H216.308C217.982 132.459 218.908 132.866 219.484 133.723C220.236 134.807 220.322 136.477 220.322 137.741V142.074Z" fill="#03045E"></path></g></g><defs><clipPath id="bgblur_0_9914_89881_clip_path" transform="translate(32.3188 31.4492)"><rect x="1.07729" y="1.94692" width="443.845" height="247.845" rx="16.1594"></rect></clipPath><linearGradient id="paint0_linear_9914_89881" x1="223" y1="0.869629" x2="223" y2="250.87" gradientUnits="userSpaceOnUse"><stop stop-color="white"></stop><stop offset="1" stop-color="white" stop-opacity="0.6"></stop></linearGradient><linearGradient id="paint1_linear_9914_89881" x1="223" y1="0.869629" x2="223" y2="250.87" gradientUnits="userSpaceOnUse"><stop stop-color="white"></stop><stop offset="1" stop-color="#EBEBEB"></stop></linearGradient></defs></svg> 