<?xml version="1.0" encoding="UTF-8"?> <svg xmlns="http://www.w3.org/2000/svg" width="69" height="69" viewBox="0 0 69 69" fill="none"><circle cx="34.2657" cy="34.2657" r="34.2657" fill="#F6F6F6"></circle><path d="M33.875 16C35.4338 16 36.6974 17.2636 36.6974 18.8224V48.9276C36.6974 50.4864 35.4338 51.75 33.875 51.75C32.3162 51.75 31.0526 50.4864 31.0526 48.9276V18.8224C31.0526 17.2636 32.3162 16 33.875 16Z" fill="#1858FD"></path><path d="M18.8224 23.5263C20.3811 23.5263 21.6447 24.7899 21.6447 26.3487V41.4013C21.6447 42.9601 20.3811 44.2237 18.8224 44.2237C17.2636 44.2237 16 42.9601 16 41.4013V26.3487C16 24.7899 17.2636 23.5263 18.8224 23.5263Z" fill="#1858FD"></path><path d="M48.9276 23.5263C50.4864 23.5263 51.75 24.7899 51.75 26.3487V41.4013C51.75 42.9601 50.4864 44.2237 48.9276 44.2237C47.3689 44.2237 46.1053 42.9601 46.1053 41.4013V26.3487C46.1053 24.7899 47.3689 23.5263 48.9276 23.5263Z" fill="#1858FD"></path><path d="M1.5 62.5L8.5 54.5L23 62.5H1.5Z" fill="#F6F6F6"></path></svg> 